<svg width="72" height="72" viewBox="0 0 72 72" fill="none" xmlns="http://www.w3.org/2000/svg">
<circle cx="36" cy="36" r="36" fill="#63B5C0"/>
<g clip-path="url(#clip0)">
<path d="M51.8203 36.9184H49.7832L43.382 18.9346C43.0362 17.9629 41.7928 17.6819 41.0628 18.4117C39.701 19.7734 37.8907 20.5235 35.9648 20.5235C34.0389 20.5235 32.2287 19.7734 30.8669 18.412C30.1371 17.6822 28.8938 17.9623 28.5477 18.9346L22.1465 36.9184H20.1094C19.3326 36.9184 18.7031 37.548 18.7031 38.3247C18.7031 39.1014 19.3326 39.7309 20.1094 39.7309H51.8203C52.597 39.7309 53.2266 39.1014 53.2266 38.3247C53.2266 37.548 52.597 36.9184 51.8203 36.9184ZM25.132 36.9184L30.534 21.7411C32.1383 22.7793 34.0087 23.336 35.9648 23.336C37.921 23.336 39.7914 22.7793 41.3957 21.7411L46.7976 36.9184H25.132ZM43.2815 41.5679C40.3374 41.5679 37.8649 43.6251 37.2258 46.3777H34.7039C34.0648 43.6251 31.5923 41.5679 28.6482 41.5679C25.2208 41.5679 22.4322 44.3565 22.4322 47.7839C22.4322 51.2114 25.2208 54 28.6482 54C31.5923 54 34.0648 51.9425 34.7039 49.1902H37.2258C37.8649 51.9425 40.3374 54 43.2815 54C46.7089 54 49.4975 51.2114 49.4975 47.7839C49.4975 44.3565 46.7089 41.5679 43.2815 41.5679ZM28.6482 51.1875C26.7715 51.1875 25.2447 49.6607 25.2447 47.7839C25.2447 45.9072 26.7715 44.3804 28.6482 44.3804C30.525 44.3804 32.0518 45.9072 32.0518 47.7839C32.0518 49.6607 30.525 51.1875 28.6482 51.1875ZM43.2815 51.1875C41.4047 51.1875 39.8779 49.6607 39.8779 47.7839C39.8779 45.9072 41.4047 44.3804 43.2815 44.3804C45.1582 44.3804 46.685 45.9072 46.685 47.7839C46.685 49.6607 45.1582 51.1875 43.2815 51.1875Z" fill="white"/>
</g>
<defs>
<clipPath id="clip0">
<rect width="36" height="36" fill="white" transform="translate(18 18)"/>
</clipPath>
</defs>
</svg>
