<svg width="16" height="11" viewBox="0 0 16 11" fill="none" xmlns="http://www.w3.org/2000/svg">
<path fill-rule="evenodd" clip-rule="evenodd" d="M10.1311 0.367526C10.2963 0.19441 10.5706 0.188031 10.7437 0.353278L15.6326 5.01995C15.7183 5.10171 15.7667 5.21498 15.7667 5.3334C15.7667 5.45182 15.7183 5.56509 15.6326 5.64685L10.7437 10.3135C10.5706 10.4788 10.2963 10.4724 10.1311 10.2993C9.96581 10.1262 9.97219 9.85186 10.1453 9.68661L14.2518 5.76673H0.666732C0.427408 5.76673 0.233398 5.57272 0.233398 5.3334C0.233398 5.09408 0.427408 4.90007 0.666732 4.90007H14.2518L10.1453 0.980187C9.97219 0.81494 9.96581 0.540642 10.1311 0.367526Z" fill="#00C189"/>
</svg>
