<svg width="24" height="16" viewBox="0 0 24 16" fill="none" xmlns="http://www.w3.org/2000/svg">
<path fill-rule="evenodd" clip-rule="evenodd" d="M15.1961 0.551167C15.444 0.291494 15.8554 0.281925 16.1151 0.529796L23.4484 7.5298C23.5769 7.65245 23.6496 7.82234 23.6496 7.99998C23.6496 8.17761 23.5769 8.34751 23.4484 8.47016L16.1151 15.4702C15.8554 15.718 15.444 15.7085 15.1961 15.4488C14.9482 15.1891 14.9578 14.7777 15.2175 14.5298L21.3773 8.64998H0.999609C0.640624 8.64998 0.349609 8.35896 0.349609 7.99998C0.349609 7.64099 0.640624 7.34998 0.999609 7.34998H21.3773L15.2175 1.47016C14.9578 1.22229 14.9482 0.810841 15.1961 0.551167Z" fill="white"/>
</svg>
