<svg width="72" height="72" viewBox="0 0 72 72" fill="none" xmlns="http://www.w3.org/2000/svg">
<circle cx="36" cy="36" r="36" fill="#63B5C0"/>
<path d="M49.4583 25H22.5416C20.5895 25 19 26.5895 19 28.5417V44.125C19 46.0772 20.5895 47.6667 22.5416 47.6667H49.4582C51.4104 47.6667 52.9999 46.0772 52.9999 44.125V28.5417C52.9999 26.5895 51.4104 25 49.4583 25ZM51.5833 44.125C51.5833 45.2966 50.6299 46.25 49.4583 46.25H22.5416C21.37 46.25 20.4166 45.2966 20.4166 44.125V28.5417C20.4166 27.3701 21.37 26.4167 22.5416 26.4167H49.4582C50.6298 26.4167 51.5832 27.3701 51.5832 28.5417V44.125H51.5833Z" fill="white"/>
<path fill-rule="evenodd" clip-rule="evenodd" d="M18.625 28.5417C18.625 26.3824 20.3824 24.625 22.5416 24.625H49.4583C51.6175 24.625 53.3749 26.3824 53.3749 28.5417V44.125C53.3749 46.2843 51.6175 48.0417 49.4582 48.0417H22.5416C20.3824 48.0417 18.625 46.2843 18.625 44.125V28.5417ZM22.5416 25.375C20.7966 25.375 19.375 26.7966 19.375 28.5417V44.125C19.375 45.8701 20.7966 47.2917 22.5416 47.2917H49.4582C51.2033 47.2917 52.6249 45.8701 52.6249 44.125V28.5417C52.6249 26.7966 51.2033 25.375 49.4583 25.375H22.5416ZM22.5416 26.7917C21.5771 26.7917 20.7916 27.5772 20.7916 28.5417V44.125C20.7916 45.0895 21.5771 45.875 22.5416 45.875H49.4583C50.4176 45.875 51.1998 45.0979 51.2082 44.1406V28.5417C51.2082 27.5772 50.4227 26.7917 49.4582 26.7917H22.5416ZM51.9582 43.75V28.5417C51.9582 27.163 50.8369 26.0417 49.4582 26.0417H22.5416C21.1629 26.0417 20.0416 27.163 20.0416 28.5417V44.125C20.0416 45.5037 21.1629 46.625 22.5416 46.625H49.4583C50.837 46.625 51.9583 45.5037 51.9583 44.125L51.9582 43.75Z" fill="white"/>
<path d="M52.2916 29.25H19.7084C19.3174 29.25 19 29.5674 19 29.9584V34.2083C19 34.5993 19.3174 34.9167 19.7084 34.9167H52.2916C52.6826 34.9167 53 34.5993 53 34.2083V29.9584C52.9999 29.5674 52.6826 29.25 52.2916 29.25ZM51.5833 33.5H20.4166V30.6666H51.5832V33.5H51.5833Z" fill="white"/>
<path d="M29.625 39.1665H23.9584C23.5674 39.1665 23.25 39.4839 23.25 39.8749C23.25 40.2659 23.5674 40.5831 23.9584 40.5831H29.625C30.016 40.5831 30.3333 40.2658 30.3333 39.8748C30.3333 39.4838 30.016 39.1665 29.625 39.1665Z" fill="white"/>
<path d="M33.875 42H23.9584C23.5674 42 23.25 42.3174 23.25 42.7084C23.25 43.0994 23.5674 43.4167 23.9584 43.4167H33.875C34.266 43.4167 34.5833 43.0994 34.5833 42.7084C34.5833 42.3174 34.266 42 33.875 42Z" fill="white"/>
</svg>
