<svg width="54" height="36" viewBox="0 0 54 36" fill="none" xmlns="http://www.w3.org/2000/svg">
<rect width="54" height="36" rx="8" fill="#474F5A"/>
<g clip-path="url(#clip0)">
<path d="M35.7838 10.5923V9.74707H33.0283V14.7308H35.7838V13.8871H33.9996V12.5416H35.7193V11.6978H33.9996V10.5923H35.7838Z" fill="#F7F7F7"/>
<path d="M38.5007 12.633C39.2319 12.4838 39.6362 11.9835 39.6362 11.22C39.6362 10.287 38.9927 9.74854 37.8722 9.74854H36.4307V14.7323H37.4019V12.7298H37.5279L38.8727 14.7323H40.0697L38.5007 12.633ZM37.6847 12.042H37.4019L37.4027 10.5338H37.7012C38.3072 10.5338 38.6357 10.7873 38.6357 11.2718C38.6357 11.7735 38.3057 12.042 37.6847 12.042Z" fill="#F7F7F7"/>
<path d="M40.0678 9.64893C39.8541 9.64893 39.6846 9.81843 39.6846 10.0307C39.6846 10.2429 39.8556 10.4124 40.0678 10.4124C40.2733 10.4124 40.4443 10.2407 40.4443 10.0307C40.4443 9.82143 40.2733 9.64893 40.0678 9.64893ZM40.0641 10.3442C39.8998 10.3442 39.7618 10.2047 39.7618 10.0314C39.7618 9.85818 39.8983 9.71793 40.0641 9.71793C40.2298 9.71793 40.3671 9.85968 40.3671 10.0314C40.3671 10.2032 40.2321 10.3442 40.0641 10.3442Z" fill="#F7F7F7"/>
<path d="M40.1165 10.07C40.178 10.0535 40.2118 10.0085 40.2118 9.94776C40.2118 9.85926 40.1518 9.81201 40.0453 9.81201H39.9043V10.25H40.0085V10.0798L40.1315 10.25H40.259L40.1165 10.07ZM40.0258 10.0063H40.0093V9.89226H40.0273C40.079 9.89226 40.1053 9.91101 40.1053 9.94851C40.1053 9.98826 40.0775 10.0063 40.0258 10.0063Z" fill="#F7F7F7"/>
<path d="M14.524 9.74707H13.5527V14.7308H14.524V9.74707Z" fill="#F7F7F7"/>
<path d="M16.8975 11.6588C16.3132 11.4436 16.1415 11.3003 16.1415 11.0318C16.1415 10.7176 16.4475 10.4791 16.8667 10.4791C17.157 10.4791 17.397 10.5991 17.6505 10.8833L18.159 10.2166C17.7397 9.8513 17.2402 9.66455 16.6942 9.66455C15.8122 9.66455 15.1417 10.2766 15.1417 11.0918C15.1417 11.7781 15.4537 12.1298 16.3665 12.4583C16.7475 12.5926 16.941 12.6818 17.0385 12.7418C17.2335 12.8686 17.3302 13.0486 17.3302 13.2578C17.3302 13.6613 17.0092 13.9613 16.5757 13.9613C16.113 13.9613 15.738 13.7288 15.5152 13.2961L14.8867 13.9013C15.3352 14.5591 15.8722 14.8508 16.611 14.8508C17.622 14.8508 18.3307 14.1788 18.3307 13.2143C18.33 12.4223 18.0015 12.0631 16.8975 11.6588Z" fill="#F7F7F7"/>
<path d="M18.5098 26.356H44.9615V16.813C44.9615 16.813 35.6203 23.4047 18.5098 26.356Z" fill="#F7F7F7"/>
<path d="M10.425 9.74854H9V14.7323H10.4197C11.1727 14.7323 11.7172 14.5523 12.1965 14.1555C12.765 13.686 13.1002 12.9773 13.1002 12.2438C13.1002 10.7723 12.0015 9.74704 10.425 9.74854ZM11.5605 13.491C11.256 13.7663 10.8592 13.887 10.2322 13.887H9.97125V10.5915H10.2322C10.8585 10.5915 11.2395 10.704 11.5605 10.9943C11.8972 11.2935 12.0997 11.757 12.0997 12.2348C12.0997 12.7148 11.898 13.1918 11.5605 13.491Z" fill="#F7F7F7"/>
<path d="M31.5371 9.74854L30.1901 13.0958L28.8618 9.74854H27.7998L29.9148 14.8583H30.4361L32.5893 9.74854H31.5371Z" fill="#F7F7F7"/>
<path d="M25.4515 9.60498C24.3543 9.60498 23.4108 10.2725 23.0095 11.2242C22.8745 11.5415 22.8018 11.8902 22.8018 12.2562C22.8018 13.7195 23.9883 14.9067 25.4515 14.9067C26.641 14.9067 27.6498 14.123 27.9828 13.0437C27.9985 12.998 28.0075 12.9515 28.021 12.9057C28.03 12.8667 28.0413 12.8285 28.0488 12.7902C28.0855 12.6177 28.1028 12.4385 28.1028 12.2547C28.1028 10.7915 26.9163 9.60498 25.4515 9.60498Z" fill="#F7F7F7"/>
<path d="M21.2662 10.5233C21.7305 10.5233 22.0822 10.689 22.485 11.0843V9.94125C22.059 9.7245 21.7072 9.63525 21.2895 9.63525C19.8172 9.63525 18.6367 10.794 18.6367 12.243C18.636 13.707 19.7857 14.8418 21.2655 14.8418C21.6847 14.8418 22.0432 14.7608 22.4842 14.5515V13.407C22.0957 13.7963 21.7515 13.9538 21.3112 13.9538C20.3325 13.9538 19.6387 13.2435 19.6387 12.2348C19.6387 11.2793 20.355 10.5233 21.2662 10.5233Z" fill="#F7F7F7"/>
</g>
<defs>
<clipPath id="clip0">
<rect width="35.9618" height="35.9618" fill="white" transform="translate(9)"/>
</clipPath>
</defs>
</svg>
