<svg width="54" height="36" viewBox="0 0 54 36" fill="none" xmlns="http://www.w3.org/2000/svg">
<rect width="54" height="36" rx="8" fill="#474F5A"/>
<g clip-path="url(#clip0)">
<path d="M34.9156 13.1699L34.2549 14.7742H35.5831L34.9156 13.1699Z" fill="#F7F7F7"/>
<path d="M12.079 13.1699L11.4258 14.7742H12.7375L12.079 13.1699Z" fill="#F7F7F7"/>
<path d="M27.2396 13.3975C27.1256 13.333 26.9501 13.3247 26.7836 13.3247H25.5986V14.218H26.7679C26.9531 14.218 27.1091 14.215 27.2434 14.1355C27.3671 14.0702 27.4414 13.9285 27.4414 13.753C27.4414 13.5805 27.3641 13.456 27.2396 13.3975Z" fill="#F7F7F7"/>
<path d="M31.3618 20.3198C31.2448 20.2501 31.0723 20.2471 30.9028 20.2471H29.7178V21.1508H30.887C31.0745 21.1508 31.2343 21.1448 31.364 21.0691C31.4885 20.9926 31.5628 20.8553 31.5628 20.6821C31.5605 20.5088 31.4863 20.3843 31.3618 20.3198Z" fill="#F7F7F7"/>
<path d="M26.6778 20.2456H25.4238V21.2709H26.6658C27.0356 21.2709 27.2658 21.0879 27.2658 20.7406C27.2651 20.3866 27.0258 20.2456 26.6778 20.2456Z" fill="#F7F7F7"/>
<path d="M44.4466 20.8498C44.4399 20.843 44.4324 20.8355 44.4256 20.8303C44.6079 20.7118 44.7294 20.5063 44.7294 20.2723V19.415C44.7294 19.0468 44.4316 18.7498 44.0641 18.7498H42.1366C41.5359 18.7498 41.0829 18.9268 40.7529 19.1938C40.6606 18.9358 40.4236 18.7498 40.1334 18.7498H38.2059C37.6756 18.7498 37.2579 18.881 36.9399 19.097C36.8244 18.8908 36.6166 18.7498 36.3676 18.7498H33.1576C32.8989 18.7498 32.6806 18.9005 32.5704 19.1158C32.5246 19.0835 32.4909 19.046 32.4429 19.0175C31.9771 18.7685 31.4821 18.7498 30.9721 18.7498H28.7499C28.4911 18.7498 28.2721 18.902 28.1626 19.1188C27.8244 18.899 27.3511 18.7498 26.6784 18.7498H23.6049C23.4196 18.7498 23.2434 18.8248 23.1166 18.9613L22.3884 19.7465L21.6894 18.9703C21.5641 18.827 21.3849 18.749 21.1951 18.749H17.3266C16.9591 18.749 16.6621 19.0468 16.6621 19.4143V23.4395C16.6621 23.8078 16.9599 24.1048 17.3266 24.1048H21.1374C21.3226 24.1048 21.4989 24.0275 21.6249 23.891L22.3591 23.0968L23.0559 23.8805C23.1819 24.023 23.3634 24.1033 23.5531 24.1033H25.4229C25.7911 24.1033 26.0881 23.8055 26.0881 23.4395V22.7525H26.6229C27.2731 22.7525 27.7434 22.619 28.0854 22.4158V23.4395C28.0854 23.8063 28.3831 24.1033 28.7506 24.1033H29.7174C30.0856 24.1033 30.3826 23.8055 30.3826 23.4395V22.6325H30.7449C30.8334 22.6325 30.8956 22.6355 30.9406 22.6385C30.9436 22.7105 30.9436 22.7968 30.9421 22.8538V23.4395C30.9421 23.8063 31.2414 24.1033 31.6074 24.1033H32.5726C32.6806 24.1033 32.7781 24.074 32.8666 24.0283C32.9566 24.0725 33.0534 24.1033 33.1599 24.1033H36.3706C36.4749 24.1033 36.5716 24.074 36.6594 24.0313C36.7471 24.074 36.8416 24.1033 36.9481 24.1033H38.8216C39.4179 24.1033 39.9039 23.957 40.2676 23.699C40.3674 23.936 40.6029 24.1033 40.8781 24.1033H42.7516C44.1144 24.1033 44.9266 23.3795 44.9266 22.1683C44.9266 21.6073 44.7751 21.1895 44.4466 20.8498ZM26.6236 22.0873H25.4236V23.438H23.5539L22.3689 22.106L21.1374 23.438H17.3266V19.412H21.1951L22.3801 20.732L23.6041 19.412H26.6776C27.4404 19.412 28.2991 19.6258 28.2991 20.7403C28.2991 21.857 27.4651 22.0895 26.6236 22.0873ZM31.9434 21.569C32.1564 21.647 32.3311 21.7888 32.4121 21.9073C32.5494 22.1038 32.5674 22.2868 32.5719 22.6415V23.4395H31.6066V22.9355C31.6066 22.694 31.6299 22.3348 31.4499 22.1473C31.3119 22.004 31.0981 21.9703 30.7456 21.9703H29.7181V23.4395H28.7514V19.4143H30.9736C31.4596 19.4143 31.8136 19.4345 32.1309 19.6033C32.4339 19.7863 32.6251 20.0383 32.6251 20.4965C32.6251 21.14 32.1954 21.4678 31.9434 21.569ZM36.3691 20.246H34.1161V20.9788H36.3136V21.8008H34.1161V22.6003L36.3691 22.6048V23.4395H33.1591V19.4143H36.3691V20.246ZM38.8224 23.435H36.9489V22.5703H38.8141C38.9956 22.5703 39.1254 22.5478 39.2064 22.4705C39.2724 22.409 39.3189 22.3168 39.3189 22.2073C39.3189 22.0903 39.2694 21.998 39.2019 21.9418C39.1269 21.8803 39.0279 21.8525 38.8591 21.8525C37.9606 21.8233 36.8334 21.8803 36.8334 20.6075C36.8334 20.0218 37.1994 19.409 38.2089 19.409H40.1364V20.2655H38.3716C38.1954 20.2655 38.0821 20.273 37.9861 20.339C37.8804 20.405 37.8406 20.5018 37.8406 20.6293C37.8406 20.7815 37.9299 20.8828 38.0506 20.9293C38.1534 20.9645 38.2614 20.975 38.4256 20.975L38.9424 20.99C39.4636 21.0043 39.8229 21.0943 40.0396 21.314C40.2286 21.5083 40.3284 21.7543 40.3284 22.1675C40.3284 23.0353 39.7891 23.4395 38.8224 23.435ZM42.7531 23.435H40.8796V22.5703H42.7456C42.9271 22.5703 43.0569 22.5478 43.1371 22.4705C43.2031 22.409 43.2496 22.3168 43.2496 22.2073C43.2496 22.0903 43.2001 21.998 43.1326 21.9418C43.0584 21.8803 42.9594 21.8525 42.7899 21.8525C41.8906 21.8233 40.7641 21.8803 40.7641 20.6075C40.7641 20.0218 41.1301 19.409 42.1396 19.409H44.0671V20.2655H42.3031C42.1261 20.2655 42.0121 20.273 41.9169 20.339C41.8111 20.405 41.7721 20.5018 41.7721 20.6293C41.7721 20.7815 41.8621 20.8828 41.9814 20.9293C42.0849 20.9645 42.1921 20.975 42.3564 20.975L42.8731 20.99C43.3951 21.0043 43.7551 21.0943 43.9719 21.314C44.1594 21.5083 44.2606 21.7543 44.2606 22.1675C44.2606 23.0353 43.7199 23.4395 42.7531 23.435Z" fill="#F7F7F7"/>
<path d="M41.4269 11.8213H40.4422C40.0739 11.8213 39.7769 12.119 39.7769 12.4858V12.9013L39.3202 12.143C39.1987 11.9443 38.9834 11.822 38.7517 11.822H37.2854C36.9179 11.822 36.6209 12.1198 36.6209 12.4865V13.0513L36.2677 12.2248C36.1634 11.981 35.9234 11.822 35.6579 11.822H34.2164C34.0702 11.822 33.9307 11.87 33.8197 11.954C33.7094 11.8708 33.5707 11.822 33.4214 11.822H32.4922C31.7017 11.822 31.1167 12.0133 30.6862 12.3868C30.6367 12.0695 30.3734 11.822 30.0419 11.822H29.0594C28.7969 11.822 28.5772 11.9773 28.4677 12.1963C28.4264 12.1663 28.3949 12.1303 28.3484 12.1033C27.8969 11.8423 27.4222 11.822 26.8499 11.822H24.6374C24.5129 11.822 24.4042 11.8655 24.3037 11.9248C24.2054 11.8655 24.0952 11.822 23.9707 11.822H20.7577C20.6219 11.822 20.5042 11.8723 20.3992 11.9413C20.2934 11.8723 20.1757 11.822 20.0407 11.822H18.4372C18.1717 11.822 17.9309 11.9818 17.8267 12.2278L17.2552 13.5748L16.6259 12.2083C16.5164 11.9728 16.2802 11.822 16.0222 11.822H14.4517C14.0842 11.822 13.7872 12.1198 13.7872 12.4865V13.0648L13.4264 12.2233C13.3214 11.9795 13.0814 11.8213 12.8152 11.8213H11.3872C11.1209 11.8213 10.8809 11.9803 10.7759 12.224L9.05393 16.2493C8.96543 16.4555 8.98718 16.6895 9.10943 16.877C9.23243 17.063 9.44093 17.1755 9.66443 17.1755H10.7099C10.9769 17.1755 11.2192 17.0135 11.3219 16.766L11.5252 16.277H12.6397L12.8399 16.763C12.9419 17.012 13.1849 17.1748 13.4549 17.1748H15.4117C15.7792 17.1748 16.0762 16.877 16.0762 16.5103V16.4945L16.2022 16.7803C16.3087 17.0203 16.5472 17.1755 16.8097 17.1755L17.6549 17.177C17.9189 17.177 18.1559 17.0218 18.2624 16.781L18.3899 16.496V16.5125C18.3899 16.8793 18.6869 17.1763 19.0544 17.1763H20.0407C20.1757 17.1763 20.2934 17.1253 20.3992 17.057C20.5042 17.1253 20.6219 17.1763 20.7577 17.1763H23.9707C24.0952 17.1763 24.2054 17.1328 24.3037 17.0735C24.4034 17.1328 24.5129 17.1763 24.6374 17.1763H25.6004C25.9679 17.1763 26.2649 16.8785 26.2649 16.5118V15.7123H26.6324C26.7157 15.7123 26.7749 15.7145 26.8192 15.7175C26.8237 15.7858 26.8222 15.8668 26.8222 15.9208L26.8207 16.0093L26.8244 16.517C26.8274 16.8815 27.1252 17.1763 27.4897 17.1763H28.4602C28.5689 17.1763 28.6672 17.1425 28.7579 17.096C28.8502 17.1433 28.9492 17.1763 29.0587 17.1763H30.0412C30.3637 17.1763 30.6187 16.9438 30.6809 16.6408C31.2262 17.099 31.9942 17.1763 32.4217 17.1763H33.5489C33.8174 17.1763 34.0604 17.0113 34.1617 16.76L34.3574 16.2778H35.4659L35.6692 16.7668C35.7719 17.0135 36.0134 17.1755 36.2827 17.1755H38.2402C38.6077 17.1755 38.9047 16.8778 38.9047 16.511V15.8758L39.4949 16.8545C39.6157 17.0533 39.8309 17.1755 40.0649 17.1755H41.4269C41.7944 17.1755 42.0914 16.8778 42.0914 16.511V12.4858C42.0914 12.119 41.7929 11.8213 41.4269 11.8213ZM20.0399 16.5103H19.0537L19.0499 13.358L17.6549 16.5103H16.8097L15.4124 13.355V16.5103H13.4542L13.0844 15.6125H11.0819L10.7084 16.5103H9.66293L11.3857 12.485H12.8137L14.4509 16.2965V12.485H16.0214L17.2807 15.2158L18.4364 12.485H20.0399V16.5103ZM23.9699 13.3235H21.7184V14.0488H23.9167V14.8738H21.7184V15.6778H23.9699V16.5103H20.7569V12.485H23.9699V13.3235ZM27.8227 14.6428C28.0334 14.7238 28.2134 14.8648 28.2989 14.9818C28.4354 15.182 28.4587 15.3605 28.4587 15.7198V16.5095H27.4882L27.4837 16.0018C27.4837 15.7603 27.5069 15.4123 27.3322 15.218C27.1919 15.077 26.9774 15.0463 26.6309 15.0463H25.5997V16.5103H24.6367H24.6359V12.4858H26.8484C27.3404 12.4858 27.7027 12.4985 28.0132 12.6785C28.3177 12.8585 28.4999 13.121 28.4999 13.5703C28.4999 14.2115 28.0717 14.5438 27.8227 14.6428ZM30.0419 16.5103H29.0594V12.485H30.0419V16.5103ZM41.4269 16.5103H40.0642L38.2394 13.4893V16.5103H36.2819L35.9069 15.6125H33.9074L33.5459 16.5103H32.4194C31.9522 16.5103 31.3619 16.4068 31.0274 16.0655C30.6869 15.7235 30.5114 15.26 30.5114 14.5288C30.5114 13.9318 30.6172 13.3858 31.0267 12.9538C31.3364 12.6328 31.8232 12.485 32.4877 12.485H33.4169V13.3475H32.5057C32.1554 13.3475 31.9567 13.3993 31.7662 13.586C31.6019 13.7555 31.4902 14.0758 31.4902 14.498C31.4902 14.9285 31.5757 15.239 31.7557 15.4423C31.9049 15.602 32.1749 15.65 32.4262 15.65H32.8574L34.2164 12.485H35.6579L37.2854 16.292V12.485H38.7517L40.4422 15.2885V12.485H41.4269V16.5103ZM32.8409 14.0128L32.4232 14.987C32.3309 14.987 32.2687 14.9765 32.2342 14.9675C32.2019 14.9075 32.1577 14.7748 32.1577 14.4988C32.1577 14.2198 32.2252 14.075 32.2342 14.0623C32.2619 14.0353 32.2852 14.012 32.5109 14.012L32.8409 14.0128Z" fill="#F7F7F7"/>
<path d="M22.9883 21.4334L24.4658 23.0744V19.8472L22.9883 21.4334Z" fill="#F7F7F7"/>
<path d="M20.6976 20.2471H18.2871V20.9783H20.3984V21.8003H18.2871V22.6013H20.6511L21.7499 21.4186L20.6976 20.2471Z" fill="#F7F7F7"/>
</g>
<defs>
<clipPath id="clip0">
<rect width="35.9265" height="35.9265" fill="white" transform="translate(9)"/>
</clipPath>
</defs>
</svg>
