<svg width="54" height="37" viewBox="0 0 54 37" fill="none" xmlns="http://www.w3.org/2000/svg">
<rect width="54" height="36" rx="8" fill="#474F5A"/>
<g clip-path="url(#clip0)">
<path d="M34.4498 7.28711C31.644 7.28786 29.0865 8.35136 27.159 10.0981C25.23 8.35361 22.674 7.28936 19.8713 7.28936C19.848 7.28936 19.824 7.28936 19.8015 7.28936C13.833 7.32836 9 12.1839 9 18.1606C9 24.1614 13.8705 29.0311 19.8705 29.0311C22.6733 29.0311 25.2292 27.9684 27.1575 26.2224C26.7548 25.8586 26.3903 25.4559 26.046 25.0344H28.2908C27.9525 25.4491 27.5835 25.8376 27.1868 26.1991H27.1853C27.1763 26.2089 27.1665 26.2149 27.1575 26.2231C29.0873 27.9706 31.6463 29.0356 34.4535 29.0349C40.4573 29.0326 45.3225 24.1636 45.321 18.1606C45.321 18.1584 45.321 18.1569 45.321 18.1554C45.3218 12.1524 40.4535 7.28561 34.4498 7.28711ZM26.1705 11.2209H28.2368C28.5413 11.5899 28.824 11.9784 29.0805 12.3849H25.3943C25.632 11.9964 25.893 11.5966 26.1705 11.2209ZM24.7523 13.5264H29.7075C29.8838 13.9029 30.0398 14.2921 30.1763 14.6911H24.165C24.225 14.5786 24.435 14.1256 24.7523 13.5264ZM13.4378 20.9296L14.097 16.7731L12.6098 20.9296H11.8125L11.709 16.7731L11.0048 20.9296H9.888L10.8135 15.4171H12.5025L12.5618 18.7996L13.7025 15.4171H15.5348L14.622 20.9296H13.4378ZM17.3865 20.9206L17.4248 20.4804C17.4068 20.4826 17.0543 21.0121 16.2375 21.0121C15.81 21.0121 15.12 20.7789 15.12 19.7649C15.12 18.4756 16.1715 18.0481 17.1728 18.0481C17.3303 18.0481 17.67 18.0766 17.67 18.0766C17.67 18.0766 17.7083 17.9979 17.7083 17.7849C17.7083 17.4346 17.3933 17.3866 16.962 17.3866C16.2023 17.3866 15.7005 17.5899 15.7005 17.5899L15.8685 16.5924C15.8685 16.5924 16.4775 16.3374 17.2703 16.3374C17.6805 16.3374 18.8603 16.3809 18.8603 17.7331L18.4058 20.9206H17.3865ZM21.6938 19.5166C21.6938 21.0549 20.2035 20.9889 19.9433 20.9889C18.972 20.9889 18.672 20.8546 18.6443 20.8471L18.7988 19.8346C18.8003 19.8256 19.2863 20.0109 19.827 20.0109C20.139 20.0109 20.544 19.9801 20.544 19.6074C20.544 19.0494 19.095 19.1829 19.095 17.8576C19.095 16.6884 19.9635 16.3464 20.82 16.3464C21.4815 16.3464 21.888 16.4371 21.888 16.4371L21.7418 17.4586C21.7418 17.4586 21.114 17.4069 20.9513 17.4069C20.5395 17.4069 20.3153 17.4969 20.3153 17.7849C20.3145 18.3639 21.6938 18.0804 21.6938 19.5166ZM23.4833 19.9201C23.586 19.9201 23.7023 19.8849 23.7818 19.8849L23.637 20.8681C23.5208 20.9004 23.1915 21.0174 22.7693 21.0204C22.23 21.0249 21.8468 20.7234 21.8468 20.0394C21.8468 19.5804 22.5045 15.7981 22.53 15.7734H23.6873L23.5695 16.4499H24.147L23.9993 17.5396H23.3865L23.061 19.5474C23.0363 19.7071 23.0805 19.9201 23.4833 19.9201ZM26.0288 16.3224C27.2993 16.3224 27.6795 17.2524 27.6795 18.0151C27.6795 18.3204 27.5265 19.0704 27.5265 19.0704H25.1745C25.1745 19.0704 24.957 19.9966 26.1998 19.9966C26.7825 19.9966 27.429 19.7116 27.429 19.7116L27.225 20.8269C27.225 20.8269 26.8515 21.0174 26.0025 21.0174C25.0823 21.0174 24.003 20.6281 24.003 18.9931C24.0038 17.5764 24.8648 16.3224 26.0288 16.3224ZM29.094 23.9146H25.2375C25.0028 23.5396 24.7838 23.1549 24.5955 22.7506H29.7278C29.5388 23.1526 29.3273 23.5411 29.094 23.9146ZM28.8353 20.9379H27.6473L28.3695 16.4514H29.4473L29.3438 17.1016C29.3438 17.1016 29.7278 16.3944 30.246 16.3944C30.3968 16.3944 30.4695 16.4094 30.4695 16.4094C30.3158 16.7229 30.18 17.0101 30.039 17.7519C29.235 17.4669 29.1735 19.0216 28.8353 20.9379ZM33.3615 20.8681C33.3615 20.8681 32.739 21.0271 32.349 21.0271C30.9675 21.0271 30.2663 20.0739 30.2663 18.6301C30.2663 16.4529 31.566 15.2934 32.9018 15.2934C33.5055 15.2934 34.2053 15.5769 34.2053 15.5769L34.0163 16.8031C34.0163 16.8031 33.543 16.4724 32.9543 16.4724C32.1668 16.4724 31.4603 17.2239 31.4603 18.5896C31.4603 19.2624 31.7895 19.8894 32.6115 19.8894C33.0023 19.8894 33.5685 19.6051 33.5685 19.6051L33.3615 20.8681ZM36.1478 20.9229L36.1868 20.4796C36.168 20.4819 35.8155 21.0114 34.9995 21.0114C34.572 21.0114 33.882 20.7781 33.882 19.7641C33.882 18.4749 34.9335 18.0474 35.934 18.0474C36.0915 18.0474 36.432 18.0759 36.432 18.0759C36.432 18.0759 36.471 17.9979 36.471 17.7849C36.471 17.4346 36.156 17.3866 35.724 17.3866C34.9643 17.3866 34.4633 17.5899 34.4633 17.5899L34.6313 16.5924C34.6313 16.5924 35.2403 16.3374 36.0338 16.3374C36.4433 16.3374 37.6238 16.3809 37.623 17.7331L37.1685 20.9206C37.1678 20.9229 36.1478 20.9229 36.1478 20.9229ZM38.553 20.9379H37.365L38.0873 16.4514H39.1658L39.0623 17.1016C39.0623 17.1016 39.447 16.3944 39.9653 16.3944C40.116 16.3944 40.188 16.4094 40.188 16.4094C40.035 16.7229 39.8978 17.0101 39.7575 17.7519C38.9528 17.4669 38.8913 19.0216 38.553 20.9379ZM42.0998 20.9259L42.15 20.5126C42.15 20.5126 41.766 20.9971 41.0715 20.9971C40.1093 20.9971 39.6375 20.0679 39.6375 19.1184C39.6375 17.6499 40.521 16.3696 41.5815 16.3696C42.264 16.3711 42.6998 16.9734 42.6998 16.9734L42.9503 15.4246L44.1105 15.4224L43.2255 20.9259H42.0998ZM44.3888 20.7706C44.358 20.8261 44.3145 20.8689 44.259 20.9019C44.2043 20.9326 44.1458 20.9484 44.0843 20.9484C44.0243 20.9484 43.9665 20.9326 43.911 20.9019C43.8555 20.8689 43.812 20.8261 43.7813 20.7706C43.7498 20.7144 43.7348 20.6574 43.7348 20.5966C43.7348 20.5351 43.7505 20.4766 43.7813 20.4211C43.812 20.3656 43.8578 20.3206 43.9125 20.2906C43.9695 20.2599 44.0258 20.2441 44.0843 20.2441C44.1443 20.2441 44.2013 20.2599 44.2568 20.2906C44.3138 20.3214 44.3573 20.3641 44.3888 20.4211C44.421 20.4774 44.4353 20.5359 44.4353 20.5966C44.4353 20.6574 44.4203 20.7151 44.3888 20.7706Z" fill="#F7F7F7"/>
<path d="M44.2954 24.0877C44.2879 24.0825 44.2812 24.0742 44.2692 24.0697C44.2572 24.0652 44.2384 24.063 44.2092 24.063H44.1387V24.1755H44.2137C44.2489 24.1755 44.2722 24.1725 44.2857 24.1597C44.2984 24.1492 44.3044 24.1365 44.3044 24.1185C44.3044 24.1065 44.3014 24.0982 44.2954 24.0877Z" fill="#F7F7F7"/>
<path d="M44.5383 24.0203C44.5061 23.9618 44.4618 23.9205 44.4056 23.8898C44.3493 23.859 44.2923 23.8433 44.2338 23.8433C44.1738 23.8433 44.1168 23.859 44.0613 23.8898C44.0058 23.9205 43.9601 23.9633 43.9293 24.0203C43.8971 24.0758 43.8828 24.1343 43.8828 24.1943C43.8828 24.2543 43.8986 24.3135 43.9293 24.3683C43.9616 24.4238 44.0051 24.4688 44.0598 24.4995C44.1153 24.5303 44.1738 24.546 44.2353 24.546C44.2953 24.546 44.3538 24.5303 44.4086 24.4995C44.4633 24.4688 44.5076 24.4238 44.5383 24.3683C44.5698 24.3135 44.5848 24.255 44.5848 24.1943C44.5848 24.1335 44.5691 24.075 44.5383 24.0203ZM44.3223 24.3893L44.2893 24.33C44.2631 24.2835 44.2413 24.2528 44.2248 24.2408C44.2143 24.2333 44.1978 24.2273 44.1768 24.2273H44.1416V24.3885H44.0801V24.0098H44.2106C44.2556 24.0098 44.2878 24.0135 44.3058 24.021C44.3261 24.0285 44.3433 24.039 44.3538 24.0578C44.3658 24.075 44.3711 24.0938 44.3711 24.1133C44.3711 24.141 44.3606 24.1643 44.3418 24.186C44.3223 24.2055 44.2953 24.2183 44.2631 24.2205C44.2766 24.225 44.2871 24.2325 44.2953 24.2408C44.3111 24.2558 44.3291 24.2805 44.3516 24.315L44.3981 24.3893H44.3223Z" fill="#F7F7F7"/>
<path d="M17.2661 18.9082C16.4178 18.9082 16.2461 19.2892 16.2461 19.6065C16.2461 19.77 16.3398 20.043 16.6991 20.043C17.3958 20.043 17.5406 19.1295 17.5181 18.9352C17.4851 18.9285 17.4641 18.909 17.2661 18.9082Z" fill="#F7F7F7"/>
<path d="M26.0335 17.3579C25.4028 17.3579 25.2812 18.0757 25.2812 18.1514H26.566C26.566 18.0937 26.6868 17.3579 26.0335 17.3579Z" fill="#F7F7F7"/>
<path d="M41.7814 17.4834C41.2721 17.4834 40.8694 18.0744 40.8701 18.9721C40.8701 19.5196 41.0651 19.8706 41.4821 19.8706C42.1091 19.8706 42.4114 19.0524 42.4114 18.4426C42.4114 17.7699 42.1976 17.4834 41.7814 17.4834Z" fill="#F7F7F7"/>
<path d="M44.3363 20.451C44.31 20.4045 44.2733 20.3685 44.2268 20.3422C44.1803 20.316 44.133 20.3032 44.0835 20.3032C44.0355 20.3032 43.9868 20.3167 43.9403 20.3422C43.8938 20.3662 43.857 20.4037 43.8308 20.451C43.8045 20.4982 43.791 20.5485 43.791 20.5972C43.791 20.6475 43.8045 20.697 43.8293 20.7427C43.857 20.7892 43.8923 20.8245 43.9388 20.8522C43.9853 20.8777 44.0333 20.8927 44.0835 20.8927C44.1338 20.8927 44.1833 20.8777 44.2283 20.8522C44.2748 20.826 44.3108 20.79 44.3378 20.7427C44.364 20.6962 44.376 20.6475 44.376 20.5972C44.376 20.5477 44.3625 20.4982 44.3363 20.451ZM44.1735 20.79L44.1398 20.7315C44.1135 20.6842 44.0925 20.6542 44.0768 20.643C44.064 20.6332 44.049 20.6287 44.0273 20.6287H43.9928V20.7892H43.9298V20.4112H44.061C44.1053 20.4112 44.1383 20.415 44.157 20.4232C44.1758 20.43 44.1923 20.4427 44.205 20.4592C44.2178 20.4757 44.2223 20.4945 44.2223 20.5147C44.2223 20.5425 44.2118 20.5657 44.1923 20.5867C44.1728 20.6085 44.1458 20.6175 44.1143 20.6212C44.1293 20.6272 44.139 20.634 44.1465 20.6407C44.1623 20.6565 44.1803 20.679 44.202 20.715L44.2485 20.79H44.1735Z" fill="#F7F7F7"/>
<path d="M36.0298 18.9082C35.1815 18.9082 35.0098 19.2892 35.0098 19.6065C35.0098 19.77 35.1028 20.043 35.4628 20.043C36.1595 20.043 36.3035 19.1295 36.2818 18.9352C36.248 18.9285 36.227 18.909 36.0298 18.9082Z" fill="#F7F7F7"/>
<path d="M44.1484 20.4887C44.1424 20.4812 44.1342 20.4752 44.1229 20.4699C44.1102 20.4662 44.0914 20.4624 44.0614 20.4624V20.4632H43.9932V20.5772H44.0674C44.1027 20.5772 44.1259 20.5727 44.1402 20.5614C44.1514 20.5502 44.1582 20.5359 44.1582 20.5194C44.1582 20.5067 44.1552 20.4992 44.1484 20.4887Z" fill="#F7F7F7"/>
</g>
<defs>
<clipPath id="clip0">
<rect width="36.321" height="36.321" fill="white" transform="translate(9)"/>
</clipPath>
</defs>
</svg>
