<svg width="54" height="36" viewBox="0 0 54 36" fill="none" xmlns="http://www.w3.org/2000/svg">
<rect width="54" height="36" rx="8" fill="#474F5A"/>
<g clip-path="url(#clip0)">
<path d="M23.3652 12.5991L21.542 23.2986H24.458L26.2827 12.5991H23.3652Z" fill="#F7F7F7"/>
<path d="M19.0965 12.6111L16.2405 19.9079L15.936 18.8061C15.3727 17.4786 13.7737 15.5721 11.8965 14.3706L14.508 23.2934L17.5935 23.2881L22.1857 12.6089L19.0965 12.6111Z" fill="#F7F7F7"/>
<path d="M14.829 13.3771C14.6595 12.7253 14.1683 12.5311 13.5585 12.5078H9.0375L9 12.7208C12.5182 13.5743 14.8463 15.6308 15.8123 18.1036L14.829 13.3771Z" fill="#F7F7F7"/>
<path d="M32.1922 14.6505C33.1462 14.6355 33.8377 14.844 34.3747 15.06L34.638 15.1838L35.0325 12.8648C34.455 12.648 33.5497 12.4155 32.4202 12.4155C29.5387 12.4155 27.5077 13.8668 27.492 15.9465C27.4732 17.4833 28.9387 18.3413 30.0457 18.8535C31.182 19.3785 31.563 19.7123 31.5577 20.181C31.5487 20.8973 30.6517 21.2258 29.814 21.2258C28.6462 21.2258 28.026 21.0645 27.0682 20.6655L26.6925 20.4945L26.2822 22.8893C26.9647 23.1885 28.224 23.4458 29.5312 23.4593C32.5965 23.4593 34.5885 22.0253 34.6095 19.803C34.6222 18.5873 33.8445 17.6595 32.1592 16.8983C31.1392 16.4018 30.5152 16.0718 30.5212 15.5708C30.5212 15.126 31.0507 14.6505 32.1922 14.6505Z" fill="#F7F7F7"/>
<path d="M42.5158 12.6113H40.2628C39.563 12.6113 39.0425 12.8018 38.735 13.4993L34.4053 23.3048H37.4675C37.4675 23.3048 37.967 21.9863 38.0803 21.6976C38.4155 21.6976 41.3908 21.7021 41.8145 21.7021C41.9015 22.0756 42.17 23.3048 42.17 23.3048H44.8753L42.5158 12.6113ZM38.9195 19.5076C39.1595 18.8933 40.0813 16.5173 40.0813 16.5173C40.0655 16.5466 40.319 15.8986 40.4698 15.4958L40.6663 16.4183C40.6663 16.4183 41.225 18.9728 41.342 19.5076H38.9195Z" fill="#F7F7F7"/>
</g>
<defs>
<clipPath id="clip0">
<rect width="35.8755" height="35.8755" fill="white" transform="translate(9)"/>
</clipPath>
</defs>
</svg>
