<svg width="64" height="64" viewBox="0 0 64 64" fill="none" xmlns="http://www.w3.org/2000/svg">
<circle cx="32" cy="32" r="32" fill="#F9F9F9"/>
<g clip-path="url(#clip0)">
<g clip-path="url(#clip1)">
<path d="M49.8213 23.8285C49.7573 23.6724 49.6626 23.5316 49.5449 23.4138L39.3074 13.1764C39.1896 13.0586 39.0489 12.9639 38.8927 12.8999C38.7391 12.8359 38.5727 12.8 38.4012 12.8H21.7612C20.3506 12.8 19.2012 13.9495 19.2012 15.36V26.88C19.2012 27.5866 19.7746 28.16 20.4812 28.16C21.1877 28.16 21.7612 27.5866 21.7612 26.88V15.36H37.1212V23.04C37.1212 24.4506 38.2706 25.6 39.6812 25.6H47.3612V46.08H32.0012C31.2946 46.08 30.7212 46.6535 30.7212 47.36C30.7212 48.0666 31.2946 48.64 32.0012 48.64H47.3612C48.7717 48.64 49.9212 47.4906 49.9212 46.08V24.32C49.9212 24.1485 49.8853 23.9821 49.8213 23.8285ZM39.6812 23.04V17.17L45.5512 23.04H39.6812Z" fill="#63B5C0"/>
<path d="M26.845 49.6102L24.884 41.7433C26.1077 40.576 26.8809 38.9401 26.8809 37.12C26.8809 33.5923 24.0085 30.72 20.4808 30.72C16.9532 30.72 14.0808 33.5923 14.0808 37.12C14.0808 38.9401 14.854 40.576 16.0776 41.7433L14.1167 49.6102C13.9964 50.094 14.1704 50.6061 14.5596 50.9184C14.9487 51.2333 15.4863 51.287 15.9317 51.0643L20.4808 48.791L25.0274 51.0643C25.2092 51.1539 25.4063 51.2 25.6009 51.2C25.885 51.2 26.1692 51.1053 26.4021 50.9184C26.7913 50.6061 26.9653 50.094 26.845 49.6102ZM21.0517 46.2157C20.6908 46.0365 20.2658 46.0365 19.9074 46.2157L17.2732 47.5315L18.3688 43.1334C19.0344 43.3689 19.7384 43.52 20.4808 43.52C21.2232 43.52 21.9272 43.3689 22.5903 43.1334L23.686 47.5315L21.0517 46.2157ZM20.4808 40.96C18.3637 40.96 16.6408 39.2371 16.6408 37.12C16.6408 35.0029 18.3637 33.28 20.4808 33.28C22.598 33.28 24.3209 35.0029 24.3209 37.12C24.3209 39.2371 22.598 40.96 20.4808 40.96Z" fill="#63B5C0"/>
<path d="M33.2803 20.48H25.6003C24.8938 20.48 24.3203 21.0534 24.3203 21.76C24.3203 22.4665 24.8938 23.04 25.6003 23.04H33.2803C33.9869 23.04 34.5603 22.4665 34.5603 21.76C34.5603 21.0534 33.9869 20.48 33.2803 20.48Z" fill="#63B5C0"/>
<path d="M43.5208 28.1602H28.1609C27.4543 28.1602 26.8809 28.7336 26.8809 29.4402C26.8809 30.1467 27.4543 30.7202 28.1609 30.7202H43.5208C44.2274 30.7202 44.8008 30.1467 44.8008 29.4402C44.8008 28.7336 44.2274 28.1602 43.5208 28.1602Z" fill="#63B5C0"/>
<path d="M43.5204 35.8401H30.7204C30.0139 35.8401 29.4404 36.4135 29.4404 37.1201C29.4404 37.8266 30.0139 38.4001 30.7204 38.4001H43.5204C44.227 38.4001 44.8004 37.8266 44.8004 37.1201C44.8004 36.4135 44.227 35.8401 43.5204 35.8401Z" fill="#63B5C0"/>
</g>
</g>
<defs>
<clipPath id="clip0">
<rect width="38.4" height="38.4" fill="white" transform="translate(12.7998 12.8)"/>
</clipPath>
<clipPath id="clip1">
<rect width="38.4" height="38.4" fill="white" transform="translate(12.7998 12.8)"/>
</clipPath>
</defs>
</svg>
