<svg width="64" height="64" viewBox="0 0 64 64" fill="none" xmlns="http://www.w3.org/2000/svg">
<circle cx="32" cy="32" r="32" fill="#F9F9F9"/>
<g clip-path="url(#clip0)">
<path d="M46.356 20.2666H17.6449C15.5627 20.2666 13.8672 21.9621 13.8672 24.0444V40.6666C13.8672 42.7489 15.5627 44.4444 17.6449 44.4444H46.356C48.4383 44.4444 50.1337 42.7489 50.1337 40.6666V24.0444C50.1338 21.9621 48.4383 20.2666 46.356 20.2666ZM48.6227 40.6666C48.6227 41.9163 47.6058 42.9332 46.356 42.9332H17.6449C16.3952 42.9332 15.3783 41.9163 15.3783 40.6666V24.0444C15.3783 22.7947 16.3952 21.7778 17.6449 21.7778H46.356C47.6057 21.7778 48.6226 22.7947 48.6226 24.0444V40.6666H48.6227Z" fill="#63B5C0"/>
<path fill-rule="evenodd" clip-rule="evenodd" d="M13.4668 24.0445C13.4668 21.7413 15.3413 19.8667 17.6445 19.8667H46.3556C48.6588 19.8667 50.5334 21.7413 50.5333 24.0445V40.6667C50.5333 42.9699 48.6588 44.8445 46.3556 44.8445H17.6445C15.3413 44.8445 13.4668 42.9699 13.4668 40.6667V24.0445ZM17.6445 20.6667C15.7832 20.6667 14.2668 22.1831 14.2668 24.0445V40.6667C14.2668 42.5281 15.7832 44.0445 17.6445 44.0445H46.3556C48.2169 44.0445 49.7333 42.5281 49.7333 40.6667V24.0445C49.7334 22.1831 48.217 20.6667 46.3556 20.6667H17.6445ZM17.6445 22.1779C16.6157 22.1779 15.7779 23.0157 15.7779 24.0445V40.6667C15.7779 41.6955 16.6157 42.5333 17.6445 42.5333H46.3556C47.3789 42.5333 48.2133 41.7045 48.2222 40.6833V24.0445C48.2222 23.0157 47.3844 22.1779 46.3556 22.1779H17.6445ZM49.0222 40.2667V24.0445C49.0222 22.5739 47.8262 21.3779 46.3556 21.3779H17.6445C16.1739 21.3779 14.9779 22.5739 14.9779 24.0445V40.6667C14.9779 42.1373 16.1739 43.3333 17.6445 43.3333H46.3556C47.8263 43.3333 49.0223 42.1373 49.0223 40.6667L49.0222 40.2667Z" fill="#63B5C0"/>
<path d="M49.3782 24.8H14.6228C14.2057 24.8 13.8672 25.1386 13.8672 25.5556V30.089C13.8672 30.506 14.2057 30.8445 14.6228 30.8445H49.3783C49.7953 30.8445 50.1339 30.506 50.1339 30.089V25.5556C50.1338 25.1386 49.7953 24.8 49.3782 24.8ZM48.6227 29.3334H15.3783V26.3111H48.6226V29.3334H48.6227Z" fill="#63B5C0"/>
<path d="M25.2004 35.3777H19.156C18.7389 35.3777 18.4004 35.7162 18.4004 36.1333C18.4004 36.5503 18.7389 36.8888 19.156 36.8888H25.2004C25.6174 36.8888 25.956 36.5503 25.956 36.1332C25.956 35.7161 25.6174 35.3777 25.2004 35.3777Z" fill="#63B5C0"/>
<path d="M29.7337 38.3999H19.156C18.7389 38.3999 18.4004 38.7384 18.4004 39.1555C18.4004 39.5725 18.7389 39.9111 19.156 39.9111H29.7337C30.1508 39.9111 30.4893 39.5725 30.4893 39.1555C30.4893 38.7384 30.1508 38.3999 29.7337 38.3999Z" fill="#63B5C0"/>
</g>
<defs>
<clipPath id="clip0">
<rect width="38.4" height="38.4" fill="white" transform="translate(12.7998 12.8)"/>
</clipPath>
</defs>
</svg>
