<svg width="64" height="64" viewBox="0 0 64 64" fill="none" xmlns="http://www.w3.org/2000/svg">
<circle cx="32" cy="32" r="32" fill="#F9F9F9"/>
<g clip-path="url(#clip0)">
<path d="M25.5866 19.3162L24.0098 16.5852C23.7906 16.2068 23.3081 16.0791 22.9328 16.2967C22.5559 16.5143 22.4266 16.9952 22.6427 17.3737L24.2195 20.1047C24.3661 20.3586 24.631 20.4989 24.9038 20.4989C25.0378 20.4989 25.1735 20.4642 25.298 20.3932C25.6748 20.174 25.8042 19.6931 25.5866 19.3162Z" fill="#63B5C0"/>
<path fill-rule="evenodd" clip-rule="evenodd" d="M22.6657 15.8353C23.2964 15.4696 24.1052 15.6851 24.4717 16.318L26.0488 19.0496C26.4143 19.6826 26.1957 20.4882 25.5666 20.8542L25.5624 20.8567C25.3574 20.9735 25.1307 21.0322 24.9042 21.0322C24.4498 21.0322 24.0043 20.7978 23.758 20.3714L22.1799 17.6381C21.8189 17.0058 22.0335 16.2003 22.6657 15.8353ZM23.5485 16.8523C23.4766 16.7285 23.3205 16.6886 23.2007 16.7581C23.0794 16.8281 23.0353 16.9839 23.1058 17.1084L24.6817 19.8379C24.6817 19.838 24.6817 19.8379 24.6817 19.8379C24.7287 19.9193 24.8131 19.9655 24.9042 19.9655C24.945 19.9655 24.9889 19.9553 25.0322 19.931C25.1551 19.8581 25.1944 19.7029 25.1251 19.5829L23.5485 16.8523C23.5485 16.8522 23.5485 16.8524 23.5485 16.8523Z" fill="#63B5C0"/>
<path d="M41.3527 46.6266L39.7759 43.8955C39.5567 43.5171 39.0742 43.3894 38.6989 43.607C38.322 43.8246 38.1928 44.3071 38.4104 44.684L39.9871 47.415C40.1338 47.6689 40.3987 47.8092 40.6715 47.8092C40.8055 47.8092 40.9411 47.7761 41.0641 47.7036C41.4409 47.486 41.5703 47.0034 41.3527 46.6266Z" fill="#63B5C0"/>
<path fill-rule="evenodd" clip-rule="evenodd" d="M38.4316 43.1456C39.0624 42.7799 39.8711 42.9954 40.2376 43.6283L40.238 43.6289L41.8148 46.3599M37.9487 44.9506C37.5838 44.3187 37.8005 43.51 38.4325 43.1451L38.6991 43.607L38.4316 43.1456M39.3145 44.1626C39.2426 44.0388 39.0864 43.9989 38.9666 44.0684L38.9658 44.0689L38.9658 44.0689C38.844 44.1392 38.8021 44.2955 38.8725 44.4173L38.8725 44.4173L40.4492 47.1482C40.4962 47.2296 40.5805 47.2758 40.6717 47.2758C40.7176 47.2758 40.7585 47.2647 40.7935 47.2441L40.7976 47.2417L40.7976 47.2417C40.9195 47.1713 40.9613 47.015 40.891 46.8932L41.3267 46.6417L40.891 46.8932L39.3146 44.1628C39.3145 44.1627 39.3145 44.1627 39.3145 44.1626Z" fill="#63B5C0"/>
<path d="M20.1041 24.2218L17.3731 22.645C16.9963 22.4259 16.5138 22.5551 16.2962 22.9336C16.077 23.3105 16.2063 23.793 16.5847 24.0106L19.3157 25.5874C19.4387 25.6599 19.5743 25.693 19.7083 25.693C19.9812 25.693 20.2461 25.5526 20.3927 25.2988C20.6103 24.9219 20.481 24.4394 20.1041 24.2218Z" fill="#63B5C0"/>
<path fill-rule="evenodd" clip-rule="evenodd" d="M17.6414 22.1839C17.6416 22.184 17.6411 22.1837 17.6414 22.1839L20.3709 23.7598C21.0027 24.1247 21.2196 24.9333 20.8547 25.5654C20.6085 25.9916 20.163 26.2262 19.7085 26.2262C19.4872 26.2262 19.2577 26.1715 19.0474 26.0481L16.319 24.4728C16.3188 24.4727 16.3191 24.4729 16.319 24.4728C15.6852 24.1081 15.4673 23.2982 15.8352 22.6654L16.2963 22.9335L15.8339 22.6676C16.1984 22.0338 17.0085 21.8165 17.6414 22.1839ZM17.1052 23.106C16.9844 23.0357 16.8292 23.0766 16.7586 23.1993L16.7573 23.2016C16.6871 23.3224 16.7279 23.4775 16.8507 23.5481L19.5867 25.1278C19.6217 25.1484 19.6626 25.1595 19.7085 25.1595C19.7995 25.1595 19.8839 25.1133 19.931 25.032M19.8376 24.6836L17.1066 23.1068L17.1052 23.106M19.8376 24.6836C19.9593 24.7539 20.0011 24.9103 19.931 25.032ZM19.8376 24.6836C19.8375 24.6835 19.8376 24.6836 19.8376 24.6836Z" fill="#63B5C0"/>
<path d="M47.4146 39.9899L44.6836 38.4131C44.3067 38.1939 43.8242 38.3232 43.6066 38.7016C43.389 39.0785 43.5183 39.561 43.8952 39.7786L46.6262 41.3554C46.7507 41.4279 46.8864 41.461 47.0204 41.461C47.2932 41.461 47.5581 41.3207 47.7031 41.0668C47.9208 40.69 47.7915 40.2075 47.4146 39.9899Z" fill="#63B5C0"/>
<path fill-rule="evenodd" clip-rule="evenodd" d="M44.9511 37.9516C44.9514 37.9517 44.9517 37.9519 44.9519 37.952L47.6815 39.528L47.6815 39.528C48.3135 39.8929 48.5302 40.7016 48.1652 41.3336L47.7033 41.0668L48.1664 41.3314C47.9215 41.7601 47.4746 41.9944 47.0206 41.9944C46.7982 41.9944 46.5695 41.9392 46.359 41.8169C46.3587 41.8167 46.3584 41.8165 46.3581 41.8163L43.6287 40.2405L43.6287 40.2405C42.9969 39.8757 42.7802 39.0673 43.1448 38.4354C43.5093 37.8019 44.3184 37.5843 44.9511 37.9516ZM47.7033 41.0668L47.7033 41.0668L47.7033 41.0668C44.1398 38.8447 44.2949 38.8039 44.4157 38.8741L44.0692 38.9675C44.0403 39.2464 43.9984 39.0901 44.0687 38.9683C44.1621 39.3167 44.1621 39.3167 44.1621 39.3167L44.1621 39.3167L46.8931 40.8935C46.9753 40.9277 46.9331 40.9168 46.8948 40.8945C47.1951 40.8812 47.1122 40.9277 47.0206 40.9277L47.2402 40.8023C47.27 40.5221 47.3118 40.6783 47.2415 40.8001L47.1482 40.4517L44.4172 38.875" fill="#63B5C0"/>
<path d="M20.3923 38.7014C20.1731 38.323 19.689 38.1937 19.3137 38.4128L16.5827 39.9896C16.2058 40.2072 16.0765 40.6897 16.2941 41.0666C16.4408 41.3205 16.7057 41.4608 16.9785 41.4608C17.1125 41.4608 17.2481 41.4277 17.3727 41.3552L20.1037 39.7784C20.4805 39.5608 20.6099 39.0783 20.3923 38.7014Z" fill="#63B5C0"/>
<path fill-rule="evenodd" clip-rule="evenodd" d="M19.0463 37.9516C19.6786 37.5833 20.4884 37.8029 20.854 38.4342L20.8543 38.4348C21.2193 39.0668 21.0024 39.8755 20.3706 40.2403L20.3706 40.2403L17.6412 41.8161C17.6409 41.8163 17.6406 41.8165 17.6403 41.8167C17.4298 41.939 17.2011 41.9942 16.9787 41.9942C16.5243 41.9942 16.0788 41.7598 15.8325 41.3334L15.8325 41.3333C15.4676 40.7014 15.6843 39.8927 16.3162 39.5278L16.3163 39.5278L19.0463 37.9516ZM19.9308 38.9685C19.8582 38.8435 19.7008 38.8046 19.5829 38.8735L19.5806 38.8748L19.5806 38.8748L16.8496 40.4516L16.5838 39.9912M19.9308 38.9685C20.0008 39.0901 19.9589 39.2463 19.8372 39.3166C19.8372 39.3166 19.8372 39.3166 19.8372 39.3166L17.1062 40.8933L17.1062 40.8933L17.1046 40.8943C17.0662 40.9166 17.0241 40.9275 16.9787 40.9275C16.8876 40.9275 16.8032 40.8813 16.7562 40.8" fill="#63B5C0"/>
<path d="M47.7032 22.9333C47.4841 22.5549 47.0016 22.4256 46.6262 22.6448L43.8952 24.2216C43.5183 24.4392 43.389 24.9217 43.6066 25.2986C43.7533 25.5524 44.0182 25.6927 44.291 25.6927C44.425 25.6927 44.5606 25.6596 44.6836 25.5871L47.4147 24.0103C47.7915 23.7927 47.9208 23.3101 47.7032 22.9333Z" fill="#63B5C0"/>
<path fill-rule="evenodd" clip-rule="evenodd" d="M46.3588 22.1836C46.9916 21.815 47.7996 22.0353 48.165 22.6661L48.1653 22.6667C48.5302 23.2987 48.3135 24.1073 47.6816 24.4722L47.6815 24.4723L44.9523 26.048C44.742 26.1714 44.5125 26.2261 44.2912 26.2261C43.8368 26.2261 43.3913 25.9918 43.145 25.5654L43.145 25.5653C42.7801 24.9333 42.9968 24.1246 43.6287 23.7598L43.6288 23.7598L46.3588 22.1836ZM47.2417 23.2004C47.1689 23.075 47.0129 23.0368 46.8954 23.1054L46.8931 23.1067L46.8931 23.1067L44.1621 24.6835C44.0403 24.7538 43.9984 24.9101 44.0687 25.0319M47.2417 23.2004C47.3118 23.322 47.27 23.4781 47.1482 23.5485C47.1482 23.5485 47.1482 23.5486 47.1481 23.5486L44.4172 25.1253L44.4172 25.1253L44.413 25.1277C44.378 25.1484 44.3371 25.1595 44.2912 25.1595C44.2001 25.1595 44.1157 25.1133 44.0687 25.032" fill="#63B5C0"/>
<path d="M25.2975 43.607C24.9206 43.3894 24.4381 43.5171 24.2205 43.8955L22.6438 46.6266C22.4262 47.0034 22.5554 47.486 22.9323 47.7036C23.0569 47.7761 23.1925 47.8092 23.3265 47.8092C23.5977 47.8092 23.8626 47.6688 24.0092 47.415L25.586 44.684C25.8037 44.3071 25.6743 43.8246 25.2975 43.607Z" fill="#63B5C0"/>
<path fill-rule="evenodd" clip-rule="evenodd" d="M23.7587 43.6292C24.1243 42.9938 24.9339 42.781 25.5644 43.145C26.1962 43.5099 26.4131 44.3185 26.0481 44.9506C26.0481 44.9506 26.0481 44.9505 26.0481 44.9506L24.4713 47.6816C24.2254 48.1073 23.7802 48.3424 23.3267 48.3424C23.1043 48.3424 22.8755 48.2872 22.665 48.1649C22.0337 47.7998 21.8174 46.9915 22.1821 46.3598L23.7587 43.6292C23.7588 43.629 23.7586 43.6293 23.7587 43.6292ZM25.031 44.0688C24.908 43.9977 24.7528 44.0401 24.6831 44.1613L23.1059 46.8932C23.0355 47.015 23.0774 47.1713 23.1992 47.2416L23.2009 47.2426C23.2392 47.2649 23.2814 47.2758 23.3267 47.2758C23.4155 47.2758 23.5002 47.2301 23.5476 47.1482L25.1243 44.4172C25.1946 44.2955 25.1528 44.1391 25.031 44.0688Z" fill="#63B5C0"/>
<path d="M41.0661 16.2967C40.6892 16.0791 40.2067 16.2068 39.9891 16.5852L38.4123 19.3162C38.1947 19.6931 38.324 20.1756 38.7009 20.3932C38.8254 20.4657 38.961 20.4989 39.095 20.4989C39.3662 20.4989 39.6311 20.3569 39.7778 20.1047L41.3546 17.3737C41.5722 16.9968 41.443 16.5143 41.0661 16.2967Z" fill="#63B5C0"/>
<path fill-rule="evenodd" clip-rule="evenodd" d="M39.5272 16.3189C39.8929 15.6835 40.7024 15.4707 41.333 15.8347C41.9649 16.1996 42.1816 17.0083 41.8167 17.6403C41.8166 17.6403 41.8167 17.6402 41.8167 17.6403L40.2391 20.3726C39.994 20.7943 39.5504 21.0321 39.0953 21.0321C38.8729 21.0321 38.6441 20.9769 38.4336 20.8545C37.8022 20.4894 37.5859 19.6812 37.9507 19.0495C37.9507 19.0495 37.9507 19.0495 37.9507 19.0495L39.5272 16.3189C39.5273 16.3187 39.5271 16.319 39.5272 16.3189ZM40.7996 16.7585C40.6766 16.6874 40.5213 16.7298 40.4517 16.851L38.8744 19.5828C38.8041 19.7046 38.846 19.861 38.9678 19.9313L38.9694 19.9322C39.0078 19.9546 39.0499 19.9654 39.0953 19.9654C39.1823 19.9654 39.2684 19.9196 39.3166 19.8371C39.3167 19.8369 39.3165 19.8372 39.3166 19.8371L40.8929 17.1069C40.9632 16.9851 40.9214 16.8288 40.7996 16.7585Z" fill="#63B5C0"/>
<path d="M31.9994 13.8669C31.5642 13.8669 31.2109 14.2202 31.2109 14.6554V17.809C31.2109 18.2442 31.5642 18.5975 31.9994 18.5975C32.4346 18.5975 32.7878 18.2441 32.7878 17.8089V14.6554C32.7878 14.2202 32.4346 13.8669 31.9994 13.8669Z" fill="#63B5C0"/>
<path fill-rule="evenodd" clip-rule="evenodd" d="M30.6777 14.6553C30.6777 13.9255 31.2697 13.3335 31.9995 13.3335C32.7292 13.3335 33.3212 13.9255 33.3212 14.6553V17.8088C33.3212 18.5385 32.7293 19.1307 31.9995 19.1307C31.2697 19.1307 30.6777 18.5387 30.6777 17.8089V14.6553ZM31.9995 14.4002C31.8589 14.4002 31.7444 14.5146 31.7444 14.6553V17.8089C31.7444 17.9496 31.8589 18.064 31.9995 18.064C32.1401 18.064 32.2546 17.9496 32.2546 17.8088V14.6553C32.2546 14.5146 32.1401 14.4002 31.9995 14.4002Z" fill="#63B5C0"/>
<path d="M17.8082 31.2119H14.6546C14.2194 31.2119 13.8662 31.5651 13.8662 32.0003C13.8662 32.4355 14.2194 32.7887 14.6546 32.7887H17.8083C18.2434 32.7887 18.5967 32.4355 18.5967 32.0003C18.5967 31.5651 18.2434 31.2119 17.8082 31.2119Z" fill="#63B5C0"/>
<path fill-rule="evenodd" clip-rule="evenodd" d="M13.333 32.0002C13.333 31.2703 13.9251 30.6785 14.6548 30.6785H17.8083C18.538 30.6785 19.1301 31.2703 19.1301 32.0002C19.1301 32.7299 18.5381 33.3219 17.8084 33.3219H14.6548C13.925 33.3219 13.333 32.7299 13.333 32.0002ZM14.6548 31.7451C14.5141 31.7451 14.3997 31.8596 14.3997 32.0002C14.3997 32.1408 14.5141 32.2553 14.6548 32.2553H17.8084C17.949 32.2553 18.0634 32.1408 18.0634 32.0002C18.0634 31.8596 17.9491 31.7451 17.8083 31.7451H14.6548Z" fill="#63B5C0"/>
<path d="M49.3444 31.2119H46.1908C45.7556 31.2119 45.4023 31.5651 45.4023 32.0003C45.4023 32.4355 45.7556 32.7887 46.1908 32.7887H49.3444C49.7796 32.7887 50.1328 32.4355 50.1328 32.0003C50.1328 31.5651 49.7796 31.2119 49.3444 31.2119Z" fill="#63B5C0"/>
<path fill-rule="evenodd" clip-rule="evenodd" d="M44.8691 32.0002C44.8691 31.2705 45.4612 30.6785 46.1909 30.6785H49.3445C50.0742 30.6785 50.6663 31.2703 50.6663 32.0002C50.6663 32.7299 50.0743 33.3219 49.3445 33.3219H46.1909C45.4612 33.3219 44.8691 32.73 44.8691 32.0002ZM46.1909 31.7451C46.0503 31.7451 45.9358 31.8596 45.9358 32.0002C45.9358 32.1408 46.0502 32.2553 46.1909 32.2553H49.3445C49.4852 32.2553 49.5996 32.1408 49.5996 32.0002C49.5996 31.8596 49.4852 31.7451 49.3445 31.7451H46.1909Z" fill="#63B5C0"/>
<path d="M31.9994 45.4031C31.5642 45.4031 31.2109 45.7563 31.2109 46.1915V49.3451C31.2109 49.7803 31.5642 50.1335 31.9994 50.1335C32.4346 50.1335 32.7878 49.7803 32.7878 49.3451V46.1914C32.7878 45.7562 32.4346 45.4031 31.9994 45.4031Z" fill="#63B5C0"/>
<path fill-rule="evenodd" clip-rule="evenodd" d="M30.6777 46.1914C30.6777 45.4616 31.2697 44.8696 31.9995 44.8696C32.7292 44.8696 33.3212 45.4615 33.3212 46.1913V49.345C33.3212 50.0747 32.7292 50.6667 31.9995 50.6667C31.2697 50.6667 30.6777 50.0747 30.6777 49.345V46.1914ZM31.9995 45.9363C31.8589 45.9363 31.7444 46.0507 31.7444 46.1914V49.345C31.7444 49.4856 31.8589 49.6001 31.9995 49.6001C32.1401 49.6001 32.2546 49.4856 32.2546 49.345V46.1913C32.2546 46.0507 32.1402 45.9363 31.9995 45.9363Z" fill="#63B5C0"/>
<path d="M31.9995 13.8669C31.5643 13.8669 31.2111 14.2202 31.2111 14.6554V31.2119H14.6546C14.2194 31.2119 13.8662 31.5651 13.8662 32.0003C13.8662 41.9988 22.001 50.1336 31.9995 50.1336C41.998 50.1336 50.1328 41.9988 50.1328 32.0003C50.1328 22.0017 41.9981 13.8669 31.9995 13.8669ZM31.9995 48.5568C23.1347 48.5568 15.875 41.5542 15.4619 32.7887H31.9995C32.4347 32.7887 32.788 32.4355 32.788 32.0003V15.4627C41.5535 15.8742 48.5561 23.1354 48.5561 32.0003C48.5561 41.13 41.1293 48.5568 31.9995 48.5568Z" fill="#63B5C0"/>
<path fill-rule="evenodd" clip-rule="evenodd" d="M30.6779 14.6553C30.6779 13.9255 31.2699 13.3335 31.9997 13.3335C42.2928 13.3335 50.6663 21.7071 50.6663 32.0001C50.6663 42.2932 42.2927 50.6668 31.9997 50.6668C21.7066 50.6668 13.333 42.2933 13.333 32.0001C13.333 31.2704 13.9251 30.6785 14.6547 30.6785H30.6779V14.6553ZM31.9997 14.4002C31.859 14.4002 31.7446 14.5146 31.7446 14.6553V31.7451H14.6547C14.5141 31.7451 14.3997 31.8595 14.3997 32.0001C14.3997 41.7042 22.2957 49.6001 31.9997 49.6001C41.7036 49.6001 49.5996 41.7041 49.5996 32.0001C49.5996 22.2962 41.7037 14.4002 31.9997 14.4002ZM32.2548 14.9036L32.8131 14.9298C41.8618 15.3546 49.0895 22.8491 49.0895 32.0001C49.0895 41.4244 41.4239 49.09 31.9997 49.09C22.8485 49.09 15.3557 41.8622 14.9293 32.8137L14.903 32.2552H31.9997C32.1403 32.2552 32.2548 32.1408 32.2548 32.0001V14.9036ZM33.3214 16.0312V32.0001C33.3214 32.7299 32.7294 33.3219 31.9997 33.3219H16.0308C16.7051 41.5415 23.6102 48.0233 31.9997 48.0233C40.8348 48.0233 48.0228 40.8353 48.0228 32.0001C48.0228 23.6106 41.5409 16.7041 33.3214 16.0312Z" fill="#63B5C0"/>
</g>
<defs>
<clipPath id="clip0">
<rect width="38.4" height="38.4" fill="white" transform="translate(12.7998 12.8)"/>
</clipPath>
</defs>
</svg>
