<svg width="64" height="64" viewBox="0 0 64 64" fill="none" xmlns="http://www.w3.org/2000/svg">
<circle cx="32" cy="32" r="32" fill="#F9F9F9"/>
<g clip-path="url(#clip0)">
<path d="M39.5556 28.9778C35.3894 28.9778 32 25.5884 32 21.4223C32 17.2561 35.3894 13.8667 39.5556 13.8667C43.7217 13.8667 47.1111 17.2561 47.1111 21.4223C47.1111 25.5884 43.7217 28.9778 39.5556 28.9778ZM39.5556 15.3778C36.222 15.3778 33.5111 18.0887 33.5111 21.4223C33.5111 24.7558 36.222 27.4667 39.5556 27.4667C42.8891 27.4667 45.6 24.7558 45.6 21.4223C45.6 18.0887 42.8891 15.3778 39.5556 15.3778Z" fill="#63B5C0" stroke="#63B5C0"/>
<path d="M49.3774 32.0001C49.1839 32.0001 48.9905 31.926 48.8424 31.7794L44.2064 27.1434C43.9117 26.8487 43.9117 26.3697 44.2064 26.075C44.501 25.7803 44.98 25.7803 45.2747 26.075L49.9108 30.7111C50.2055 31.0057 50.2055 31.4848 49.9108 31.7794C49.7642 31.926 49.5708 32.0001 49.3774 32.0001Z" fill="#63B5C0" stroke="#63B5C0"/>
<path d="M22.1773 50.1334H16.1329C14.8832 50.1334 13.8662 49.1164 13.8662 47.8667V25.2C13.8662 23.9503 14.8832 22.9333 16.1329 22.9333H22.1773C23.427 22.9333 24.444 23.9503 24.444 25.2V47.8667C24.444 49.1164 23.427 50.1334 22.1773 50.1334ZM16.1329 24.4445C15.7158 24.4445 15.3773 24.7845 15.3773 25.2V47.8667C15.3773 48.2822 15.7158 48.6222 16.1329 48.6222H22.1773C22.5944 48.6222 22.9329 48.2822 22.9329 47.8667V25.2C22.9329 24.7845 22.5944 24.4445 22.1773 24.4445H16.1329Z" fill="#63B5C0" stroke="#63B5C0"/>
<path d="M31.2447 50.1334H25.2003C23.9506 50.1334 22.9336 49.1164 22.9336 47.8667V16.1334C22.9336 14.8837 23.9506 13.8667 25.2003 13.8667H29.7336C30.1507 13.8667 30.4892 14.2052 30.4892 14.6223C30.4892 15.0393 30.1507 15.3778 29.7336 15.3778H25.2003C24.7832 15.3778 24.4447 15.7178 24.4447 16.1334V47.8667C24.4447 48.2823 24.7832 48.6223 25.2003 48.6223H31.2447C31.6618 48.6223 32.0003 48.2823 32.0003 47.8667V29.7334C32.0003 29.3163 32.3388 28.9778 32.7558 28.9778C33.1729 28.9778 33.5114 29.3163 33.5114 29.7334V47.8667C33.5114 49.1164 32.4944 50.1334 31.2447 50.1334Z" fill="#63B5C0" stroke="#63B5C0"/>
<path d="M40.3111 50.1333H34.2667C33.017 50.1333 32 49.1164 32 47.8667V37.2889C32 36.8718 32.3385 36.5333 32.7556 36.5333C33.1726 36.5333 33.5111 36.8718 33.5111 37.2889V47.8667C33.5111 48.2822 33.8496 48.6222 34.2667 48.6222H40.3111C40.7282 48.6222 41.0667 48.2822 41.0667 47.8667V32.7556C41.0667 32.3385 41.4052 32 41.8222 32C42.2393 32 42.5778 32.3385 42.5778 32.7556V47.8667C42.5778 49.1164 41.5608 50.1333 40.3111 50.1333Z" fill="#63B5C0" stroke="#63B5C0"/>
<path d="M23.6884 44.089H14.6218C14.2047 44.089 13.8662 43.7505 13.8662 43.3334C13.8662 42.9164 14.2047 42.5779 14.6218 42.5779H23.6884C24.1055 42.5779 24.444 42.9164 24.444 43.3334C24.444 43.7505 24.1055 44.089 23.6884 44.089Z" fill="#63B5C0" stroke="#63B5C0"/>
<path d="M23.6884 39.5555H14.6218C14.2047 39.5555 13.8662 39.217 13.8662 38.8C13.8662 38.3829 14.2047 38.0444 14.6218 38.0444H23.6884C24.1055 38.0444 24.444 38.3829 24.444 38.8C24.444 39.217 24.1055 39.5555 23.6884 39.5555Z" fill="#63B5C0" stroke="#63B5C0"/>
<path d="M41.8222 39.5555H32.7556C32.3385 39.5555 32 39.217 32 38.8C32 38.3829 32.3385 38.0444 32.7556 38.0444H41.8222C42.2393 38.0444 42.5778 38.3829 42.5778 38.8C42.5778 39.217 42.2393 39.5555 41.8222 39.5555Z" fill="#63B5C0" stroke="#63B5C0"/>
<path d="M28.2224 44.0889C27.8053 44.0889 27.4668 43.7504 27.4668 43.3333V26.7111C27.4668 26.2941 27.8053 25.9556 28.2224 25.9556C28.6394 25.9556 28.9779 26.2941 28.9779 26.7111V43.3333C28.9779 43.7504 28.6394 44.0889 28.2224 44.0889Z" fill="#63B5C0" stroke="#63B5C0"/>
<path d="M41.8222 44.089H32.7556C32.3385 44.089 32 43.7505 32 43.3334C32 42.9164 32.3385 42.5779 32.7556 42.5779H41.8222C42.2393 42.5779 42.5778 42.9164 42.5778 43.3334C42.5778 43.7505 42.2393 44.089 41.8222 44.089Z" fill="#63B5C0" stroke="#63B5C0"/>
</g>
<defs>
<clipPath id="clip0">
<rect width="38.4" height="38.4" fill="white" transform="translate(12.7998 12.8)"/>
</clipPath>
</defs>
</svg>
