<svg width="64" height="64" viewBox="0 0 64 64" fill="none" xmlns="http://www.w3.org/2000/svg">
<circle cx="32" cy="32" r="32" fill="#F9F9F9"/>
<g clip-path="url(#clip0)">
<g clip-path="url(#clip1)">
<path d="M51.0389 43.4048L44.0741 31.3137C44.7941 29.684 45.1997 27.8888 45.1997 26C45.1997 18.7208 39.2789 12.8 31.9997 12.8C24.7205 12.8 18.7997 18.7208 18.7997 26C18.7997 27.8888 19.2053 29.684 19.9253 31.3112L12.9605 43.4001C12.7181 43.8225 12.7517 44.3481 13.0493 44.7321C13.3469 45.1161 13.8437 45.2888 14.3117 45.1592L21.3581 43.2632L23.2325 50.3073C23.3573 50.7777 23.7533 51.1257 24.2333 51.1881C24.2885 51.1977 24.3413 51.2001 24.3917 51.2001C24.8165 51.2001 25.2149 50.9745 25.4309 50.6001L31.9997 39.2289L38.5685 50.6001C38.7845 50.9745 39.1829 51.2001 39.6077 51.2001C39.6581 51.2001 39.7133 51.1977 39.7661 51.1905C40.2461 51.1281 40.6421 50.78 40.7669 50.3096L42.6413 43.2657L49.6877 45.1617C50.1557 45.2913 50.6549 45.1184 50.9501 44.7344C51.2453 44.3504 51.2813 43.8248 51.0389 43.4048ZM24.8045 46.8873L23.3669 41.4848C23.2853 41.1776 23.0837 40.9137 22.8077 40.7529C22.5317 40.5945 22.2005 40.5537 21.8957 40.6329L16.4861 42.0873L21.3101 33.7136C23.2229 36.3584 26.0813 38.2737 29.3957 38.9409L24.8045 46.8873ZM21.1997 26C21.1997 20.0456 26.0453 15.2 31.9997 15.2C37.9541 15.2 42.7997 20.0456 42.7997 26C42.7997 31.9544 37.9541 36.8 31.9997 36.8C26.0453 36.8 21.1997 31.9544 21.1997 26ZM42.1037 40.6352C41.7965 40.5536 41.4677 40.5968 41.1917 40.7552C40.9157 40.9136 40.7141 41.1777 40.6325 41.4873L39.1949 46.8897L34.6037 38.9432C37.9157 38.2784 40.7765 36.3609 42.6893 33.7161L47.5133 42.0897L42.1037 40.6352Z" fill="#63B5C0"/>
<path d="M39.1374 23.0049C39.0102 22.6185 38.6958 22.3257 38.3022 22.2225L34.899 21.3321L33.0318 18.1881C32.5998 17.4585 31.3998 17.4585 30.9702 18.1881L29.103 21.3321L25.6974 22.2225C25.3014 22.3257 24.9894 22.6185 24.8598 23.0049C24.7302 23.3913 24.807 23.8137 25.0614 24.1329L27.3438 26.9889L27.0942 30.7209C27.0678 31.1361 27.2574 31.5369 27.5982 31.7793C27.939 32.0217 28.3806 32.0673 28.7622 31.9041L31.9998 30.5289L35.2374 31.9041C35.3886 31.9689 35.5494 32.0001 35.7078 32.0001C35.9526 32.0001 36.1974 31.9257 36.4038 31.7793C36.7446 31.5369 36.9342 31.1361 36.9054 30.7209L36.6558 26.9889L38.9358 24.1329C39.1902 23.8161 39.2646 23.3913 39.1374 23.0049ZM34.491 25.8561C34.3038 26.0913 34.2102 26.3865 34.2318 26.6841L34.383 28.9329L32.4702 28.1193C32.319 28.0545 32.1582 28.0233 31.9998 28.0233C31.8414 28.0233 31.6806 28.0545 31.5294 28.1193L29.619 28.9329L29.7678 26.6841C29.7894 26.3865 29.6958 26.0913 29.5086 25.8561L28.0902 24.0777L30.1854 23.5281C30.4902 23.4489 30.7518 23.2497 30.9126 22.9809L31.9998 21.1497L33.087 22.9809C33.2478 23.2497 33.5094 23.4489 33.8142 23.5281L35.9094 24.0777L34.491 25.8561Z" fill="#63B5C0"/>
</g>
</g>
<defs>
<clipPath id="clip0">
<rect width="38.4" height="38.4" fill="white" transform="translate(12.7998 12.8)"/>
</clipPath>
<clipPath id="clip1">
<rect width="38.4" height="38.4" fill="white" transform="translate(12.7998 12.8)"/>
</clipPath>
</defs>
</svg>
