<svg width="64" height="64" viewBox="0 0 64 64" fill="none" xmlns="http://www.w3.org/2000/svg">
<circle cx="32" cy="32" r="32" fill="#F9F9F9"/>
<g clip-path="url(#clip0)">
<g clip-path="url(#clip1)">
<path d="M45.7254 19.3014C38.637 19.3014 33.2083 13.3977 33.1169 13.2973C32.5233 12.6357 31.4827 12.6331 30.8848 13.2967C30.8306 13.3564 25.3884 19.3014 18.2754 19.3014C17.4469 19.3014 16.7754 19.9728 16.7754 20.8014C16.7754 33.985 19.4344 45.3911 31.3567 51.0551C31.764 51.2484 32.2368 51.2484 32.644 51.0551C44.5934 45.3782 47.2254 33.9328 47.2254 20.8014C47.2254 19.9728 46.5539 19.3014 45.7254 19.3014V19.3014ZM32.0004 48.0278C22.2299 43.0289 19.9342 33.2935 19.7845 22.2308C25.5337 21.6937 30.0105 18.2294 32.0004 16.4071C33.9902 18.2294 38.4674 21.6937 44.2163 22.2308C44.0666 33.2959 41.7697 43.0295 32.0004 48.0278V48.0278ZM30.46 33.4611L36.5648 27.3562C37.1505 26.7706 38.1003 26.7703 38.6859 27.3562C39.2719 27.9422 39.2719 28.8917 38.6862 29.4776L31.5208 36.6431C30.9352 37.2287 29.9851 37.2284 29.3994 36.6431L25.3148 32.5585C24.7289 31.9725 24.7289 31.0227 25.3148 30.4371C25.9005 29.8512 26.8503 29.8512 27.4362 30.4371L30.46 33.4611Z" fill="#63B5C0"/>
</g>
</g>
<defs>
<clipPath id="clip0">
<rect width="38.4" height="38.4" fill="white" transform="translate(12.7998 12.8)"/>
</clipPath>
<clipPath id="clip1">
<rect width="38.4" height="38.4" fill="white" transform="translate(12.7998 12.8)"/>
</clipPath>
</defs>
</svg>
