<svg width="16" height="16" viewBox="0 0 16 16" fill="none" xmlns="http://www.w3.org/2000/svg">
<path fill-rule="evenodd" clip-rule="evenodd" d="M1.53999 1.04038C1.79383 0.786538 2.20539 0.786538 2.45923 1.04038L8.49961 7.08076L14.54 1.04038C14.7938 0.786538 15.2054 0.786538 15.4592 1.04038C15.7131 1.29422 15.7131 1.70578 15.4592 1.95962L9.41885 8L15.4592 14.0404C15.7131 14.2942 15.7131 14.7058 15.4592 14.9596C15.2054 15.2135 14.7938 15.2135 14.54 14.9596L8.49961 8.91924L2.45923 14.9596C2.20539 15.2135 1.79383 15.2135 1.53999 14.9596C1.28615 14.7058 1.28615 14.2942 1.53999 14.0404L7.58037 8L1.53999 1.95962C1.28615 1.70578 1.28615 1.29422 1.53999 1.04038Z" fill="#D4DCE4"/>
</svg>
