<svg width="258" height="36" viewBox="0 0 258 36" fill="none" xmlns="http://www.w3.org/2000/svg">
<path d="M16.1563 28.1571V32.9288C16.1563 33.6601 16.2294 34.1994 16.3757 34.5468C16.5402 34.8758 16.8145 35.0952 17.1984 35.2049C17.6006 35.3146 18.2314 35.3786 19.0906 35.3969V36.0002C16.8419 35.9453 15.1691 35.9179 14.0721 35.9179C13.158 35.9179 12.0063 35.9362 10.6168 35.9728L9.73926 36.0002V35.4517C10.3426 35.4152 10.7813 35.342 11.0556 35.2323C11.3481 35.1226 11.5401 34.9124 11.6315 34.6016C11.7412 34.2908 11.796 33.788 11.796 33.0933V24.704L16.1563 20.3437V27.6086H17.3355C18.8164 27.6086 19.8402 27.1333 20.4069 26.1826C20.9737 25.232 21.2571 23.9431 21.2571 22.3159C21.2571 20.5426 20.992 19.2354 20.4618 18.3944C20.156 17.892 19.7229 17.5396 19.1626 17.3374L19.811 16.689C21.51 16.8628 22.8604 17.3307 23.8623 18.0927C25.1603 19.0617 25.8093 20.3689 25.8093 22.0143C25.8093 23.0198 25.5534 23.9888 25.0415 24.9212C24.5296 25.8353 23.6612 26.6031 22.4363 27.2247C21.2296 27.8463 19.6208 28.1571 17.6098 28.1571H16.1563Z" fill="#1A2535"/>
<path d="M8.46444 1.26416C7.91851 1.08805 7.18766 1 6.27191 1C5.19766 1 4.21147 1.17611 3.31332 1.52832C2.41518 1.88053 1.69314 2.42646 1.14721 3.16611C0.618895 3.88814 0.354736 4.77748 0.354736 5.83412C0.354736 6.74987 0.557258 7.55996 0.962303 8.26439C1.36735 8.9512 1.88686 9.54997 2.52084 10.0607C3.15483 10.5714 4.00014 11.1701 5.05678 11.857C6.43041 12.7375 7.43421 13.53 8.0682 14.2344C8.20845 14.3902 8.33318 14.553 8.4424 14.7226L11.5763 11.5887C11.4205 11.424 11.255 11.2669 11.0796 11.1173C10.4809 10.6066 9.66196 10.0078 8.62293 9.32103L7.77762 8.73988C6.79142 8.08828 6.06058 7.57757 5.5851 7.20775C5.10961 6.82032 4.73978 6.39766 4.47563 5.93978C4.21147 5.48191 4.07939 4.94478 4.07939 4.32841C4.07939 3.50071 4.34355 2.84912 4.87186 2.37363C5.4178 1.88053 6.12222 1.63398 6.98514 1.63398C7.86567 1.63398 8.63174 1.90695 9.28333 2.45288C9.95253 2.9812 10.4632 3.67682 10.8155 4.53974C11.1853 5.40266 11.4054 6.30961 11.4759 7.26058H12.0834C12.0834 4.42527 12.1274 2.41766 12.2155 1.23774H11.6079C11.5551 1.64279 11.4847 1.94217 11.3966 2.13589C11.3086 2.31199 11.1853 2.40005 11.0268 2.40005C10.9211 2.40005 10.789 2.36482 10.6305 2.29438C10.4897 2.22394 10.3224 2.13589 10.1286 2.03022C9.5651 1.69562 9.01037 1.44027 8.46444 1.26416Z" fill="#00C189"/>
<path d="M1.41137 19.0685C1.6227 19.0685 1.92208 19.1918 2.30952 19.4383C2.61639 19.6066 2.93995 19.7554 3.28021 19.8848L3.82687 19.3381C3.18669 19.036 2.6633 18.5587 2.25668 17.9062C1.49943 16.6735 1.05916 15.0709 0.935887 13.0985H0.32832C0.32832 16.7439 0.293099 19.1213 0.222656 20.2308H0.830223C0.883055 19.8258 0.953497 19.5352 1.04155 19.3591C1.1296 19.1654 1.25288 19.0685 1.41137 19.0685Z" fill="#00C189"/>
<rect width="1" height="35.3147" transform="matrix(-0.707107 -0.707107 -0.707107 0.707107 25.6787 5.04639)" fill="#1A2535"/>
<path d="M49.2848 27.7918C49.5408 28.0478 49.8715 28.2718 50.2768 28.4638C50.6822 28.6345 51.2902 28.7198 52.1008 28.7198C52.7835 28.7198 53.4235 28.6345 54.0208 28.4638C54.6182 28.2718 55.1302 28.0052 55.5568 27.6638C56.0048 27.3012 56.3568 26.8745 56.6128 26.3838C56.8688 25.8718 56.9968 25.2958 56.9968 24.6558C56.9968 23.8025 56.7302 23.0878 56.1968 22.5118C55.6848 21.9358 55.0342 21.4238 54.2448 20.9758C53.4768 20.5278 52.6342 20.0905 51.7168 19.6638C50.7995 19.2372 49.9462 18.7358 49.1568 18.1598C48.3888 17.5625 47.7382 16.8585 47.2048 16.0478C46.6928 15.2158 46.4368 14.1812 46.4368 12.9438C46.4368 12.0478 46.5968 11.2478 46.9168 10.5438C47.2368 9.83982 47.6848 9.24249 48.2608 8.75182C48.8582 8.26115 49.5622 7.88782 50.3728 7.63182C51.1835 7.35449 52.0902 7.21582 53.0928 7.21582C54.3942 7.21582 55.5782 7.32249 56.6448 7.53582C57.7328 7.72782 58.5862 7.97315 59.2048 8.27182C59.2048 8.63449 59.1728 9.06115 59.1088 9.55182C59.0662 10.0212 59.0022 10.5118 58.9168 11.0238C58.8528 11.5358 58.7782 12.0372 58.6928 12.5278C58.6075 12.9972 58.5222 13.4132 58.4368 13.7758H57.6048L56.3248 9.39182C55.9408 9.22115 55.4502 9.09315 54.8528 9.00782C54.2768 8.92249 53.6582 8.87982 52.9968 8.87982C51.9088 8.87982 51.0342 9.18915 50.3728 9.80782C49.7115 10.4052 49.3808 11.2478 49.3808 12.3358C49.3808 13.2105 49.6368 13.9465 50.1488 14.5438C50.6822 15.1412 51.3435 15.6745 52.1328 16.1438C52.9222 16.6132 53.7648 17.0718 54.6608 17.5198C55.5782 17.9465 56.4315 18.4478 57.2208 19.0238C58.0102 19.5998 58.6608 20.2825 59.1728 21.0718C59.7062 21.8612 59.9728 22.8425 59.9728 24.0158C59.9728 24.9758 59.7915 25.8505 59.4288 26.6398C59.0875 27.4292 58.5862 28.1012 57.9248 28.6558C57.2635 29.2105 56.4528 29.6372 55.4928 29.9358C54.5328 30.2345 53.4448 30.3838 52.2288 30.3838C50.8848 30.3838 49.6795 30.2238 48.6128 29.9038C47.5462 29.5838 46.7888 29.2425 46.3408 28.8798C46.3622 28.5172 46.3942 28.0798 46.4368 27.5678C46.5008 27.0558 46.5648 26.5332 46.6288 25.9998C46.7142 25.4452 46.7995 24.9118 46.8848 24.3998C46.9702 23.8878 47.0555 23.4505 47.1408 23.0878H47.9728L49.2848 27.7918Z" fill="#1A2535"/>
<path d="M61.9611 7.59982H70.0891V8.52782C69.6837 8.69849 69.2784 8.84782 68.8731 8.97582C68.4677 9.10382 68.0624 9.22115 67.6571 9.32782V22.4158C67.6571 23.5465 67.7744 24.4958 68.0091 25.2638C68.2651 26.0105 68.6277 26.6185 69.0971 27.0878C69.5664 27.5358 70.1424 27.8665 70.8251 28.0798C71.5291 28.2718 72.3184 28.3678 73.1931 28.3678C74.8784 28.3678 76.1904 27.9092 77.1291 26.9918C78.0677 26.0532 78.5371 24.5172 78.5371 22.3838V9.61582C78.0464 9.44515 77.5877 9.27449 77.1611 9.10382C76.7344 8.91182 76.3504 8.71982 76.0091 8.52782V7.59982H82.8251V8.52782C82.4197 8.76249 82.0037 8.97582 81.5771 9.16782C81.1717 9.35982 80.7557 9.50915 80.3291 9.61582V22.4478C80.3291 23.8132 80.1477 24.9865 79.7851 25.9678C79.4224 26.9492 78.9104 27.7598 78.2491 28.3998C77.6091 29.0398 76.8197 29.5198 75.8811 29.8398C74.9637 30.1385 73.9397 30.2878 72.8091 30.2878C70.1424 30.2878 68.1051 29.6905 66.6971 28.4958C65.2891 27.2798 64.5851 25.4238 64.5851 22.9278V9.32782C63.7104 9.19982 62.8357 8.93315 61.9611 8.52782V7.59982Z" fill="#1A2535"/>
<path d="M89.7651 28.3038C90.3411 28.3678 90.8851 28.4745 91.3971 28.6238C91.9091 28.7518 92.3891 28.9012 92.8371 29.0718V29.9998H84.0691V29.0718C84.4957 28.8585 84.9331 28.6985 85.3811 28.5918C85.8291 28.4852 86.2664 28.3892 86.6931 28.3038V9.32782C86.2024 9.24249 85.7437 9.13582 85.3171 9.00782C84.8904 8.85849 84.4744 8.69849 84.0691 8.52782V7.59982H86.9491C87.8024 7.59982 88.7304 7.55715 89.7331 7.47182C90.7357 7.38649 91.6957 7.34382 92.6131 7.34382C93.6584 7.34382 94.6824 7.46115 95.6851 7.69582C96.6877 7.90915 97.5731 8.28249 98.3411 8.81582C99.1304 9.34915 99.7597 10.0638 100.229 10.9598C100.72 11.8345 100.965 12.9332 100.965 14.2558C100.965 15.5145 100.72 16.5918 100.229 17.4878C99.7384 18.3838 99.0771 19.1198 98.2451 19.6958C97.4344 20.2718 96.5064 20.6985 95.4611 20.9758C94.4157 21.2318 93.3384 21.3598 92.2291 21.3598C92.1224 21.3598 91.9517 21.3598 91.7171 21.3598C91.5037 21.3598 91.2691 21.3598 91.0131 21.3598C90.7571 21.3385 90.5117 21.3172 90.2771 21.2958C90.0424 21.2745 89.8717 21.2532 89.7651 21.2318V28.3038ZM91.9411 9.00782C91.4291 9.00782 91.0131 9.01849 90.6931 9.03982C90.3731 9.06115 90.0637 9.10382 89.7651 9.16782V19.5358C89.8717 19.5785 90.0211 19.6105 90.2131 19.6318C90.4264 19.6318 90.6397 19.6425 90.8531 19.6638C91.0877 19.6852 91.3117 19.6958 91.5251 19.6958C91.7384 19.6958 91.9091 19.6958 92.0371 19.6958C92.7837 19.6958 93.4877 19.5998 94.1491 19.4078C94.8104 19.1945 95.3864 18.8638 95.8771 18.4158C96.3891 17.9678 96.7944 17.4025 97.0931 16.7198C97.3917 16.0372 97.5411 15.2158 97.5411 14.2558C97.5411 12.5065 97.0397 11.1945 96.0371 10.3198C95.0557 9.44515 93.6904 9.00782 91.9411 9.00782Z" fill="#1A2535"/>
<path d="M118.3 7.59982C118.278 8.45315 118.236 9.31715 118.172 10.1918C118.129 11.0452 118.054 11.9092 117.948 12.7838H117.116L115.804 9.26382H108.828V17.7438H114.044L115.292 15.3758H116.092C116.22 17.4878 116.22 19.6425 116.092 21.8398H115.292L114.044 19.4078H108.828V28.3358H116.188L117.756 24.4958H118.556C118.705 25.3918 118.812 26.2985 118.876 27.2158C118.94 28.1332 118.95 29.0612 118.908 29.9998H103.132V29.0718C103.878 28.7305 104.753 28.4745 105.756 28.3038V9.32782C105.329 9.24249 104.892 9.13582 104.444 9.00782C103.996 8.85849 103.558 8.69849 103.132 8.52782V7.59982H118.3Z" fill="#1A2535"/>
<path d="M127.453 28.3038C127.943 28.4105 128.413 28.5278 128.861 28.6558C129.309 28.7625 129.746 28.9012 130.173 29.0718V29.9998H121.757V29.0718C122.226 28.8585 122.674 28.6985 123.101 28.5918C123.527 28.4852 123.954 28.3892 124.381 28.3038V9.32782C123.826 9.22115 123.335 9.10382 122.909 8.97582C122.482 8.82649 122.098 8.67715 121.757 8.52782V7.59982H124.573C125.426 7.59982 126.354 7.55715 127.357 7.47182C128.381 7.38649 129.373 7.34382 130.333 7.34382C131.378 7.34382 132.349 7.46115 133.245 7.69582C134.162 7.93049 134.951 8.30382 135.613 8.81582C136.274 9.32782 136.786 9.97849 137.149 10.7678C137.533 11.5572 137.725 12.5065 137.725 13.6158C137.725 15.1732 137.309 16.4638 136.477 17.4878C135.666 18.5118 134.557 19.2478 133.149 19.6958C134.066 21.1465 135.026 22.5865 136.029 24.0158C137.031 25.4452 138.077 26.8638 139.165 28.2718L140.893 29.1998V29.9998H137.021L135.805 29.1038C135.207 28.3572 134.663 27.6318 134.173 26.9278C133.682 26.2025 133.223 25.4772 132.797 24.7518C132.37 24.0052 131.965 23.2585 131.581 22.5118C131.218 21.7438 130.845 20.9332 130.461 20.0798H127.453V28.3038ZM129.629 9.00782C129.117 9.00782 128.69 9.01849 128.349 9.03982C128.029 9.06115 127.73 9.10382 127.453 9.16782V18.7358H129.757C131.229 18.7358 132.391 18.2665 133.245 17.3278C134.119 16.3892 134.557 15.1518 134.557 13.6158C134.557 12.0372 134.098 10.8745 133.181 10.1278C132.263 9.38115 131.079 9.00782 129.629 9.00782Z" fill="#1A2535"/>
<path d="M142.132 29.9998V29.0718C142.985 28.6665 143.86 28.4105 144.756 28.3038V9.32782C144.329 9.24249 143.892 9.13582 143.444 9.00782C142.996 8.85849 142.558 8.69849 142.132 8.52782V7.59982H145.524C145.929 7.59982 146.313 7.58915 146.676 7.56782C147.06 7.54649 147.454 7.52515 147.86 7.50382C148.265 7.48249 148.702 7.46115 149.172 7.43982C149.641 7.41849 150.174 7.40782 150.772 7.40782C151.625 7.40782 152.489 7.48249 153.364 7.63182C154.26 7.75982 155.06 8.01582 155.764 8.39982C156.489 8.78382 157.076 9.32782 157.524 10.0318C157.972 10.7145 158.196 11.6105 158.196 12.7198C158.196 13.2745 158.11 13.8292 157.94 14.3838C157.769 14.9385 157.502 15.4612 157.14 15.9518C156.798 16.4212 156.361 16.8372 155.828 17.1998C155.294 17.5625 154.665 17.8292 153.94 17.9998V18.1278C154.58 18.2345 155.209 18.4158 155.828 18.6718C156.468 18.9278 157.033 19.2798 157.524 19.7278C158.014 20.1545 158.409 20.6878 158.708 21.3278C159.028 21.9678 159.188 22.7358 159.188 23.6318C159.188 24.7838 158.932 25.7758 158.42 26.6078C157.908 27.4398 157.236 28.1225 156.404 28.6558C155.593 29.1892 154.665 29.5838 153.62 29.8398C152.574 30.0745 151.518 30.1918 150.452 30.1918C149.705 30.1918 148.862 30.1598 147.924 30.0958C146.985 30.0318 146.078 29.9998 145.204 29.9998H142.132ZM150.676 28.5278C151.444 28.5278 152.158 28.4105 152.82 28.1758C153.502 27.9412 154.078 27.6212 154.548 27.2158C155.038 26.7892 155.422 26.2878 155.7 25.7118C155.977 25.1145 156.116 24.4745 156.116 23.7918C156.116 22.9385 155.945 22.2345 155.604 21.6798C155.284 21.1038 154.836 20.6558 154.26 20.3358C153.705 19.9945 153.054 19.7598 152.308 19.6318C151.582 19.5038 150.825 19.4398 150.036 19.4398H147.636V28.2718C147.934 28.3572 148.286 28.4212 148.692 28.4638C149.118 28.5065 149.78 28.5278 150.676 28.5278ZM149.236 17.7758C149.598 17.7758 150.025 17.7652 150.516 17.7438C151.028 17.7012 151.444 17.6585 151.764 17.6158C152.745 17.2745 153.545 16.7305 154.164 15.9838C154.804 15.2158 155.124 14.3198 155.124 13.2958C155.124 11.8878 154.697 10.8318 153.844 10.1278C153.012 9.42382 151.892 9.07182 150.484 9.07182C149.822 9.07182 149.257 9.08249 148.788 9.10382C148.318 9.12515 147.934 9.15715 147.636 9.19982V17.7758H149.236Z" fill="#1A2535"/>
<path d="M167.515 28.3038C168.091 28.3678 168.635 28.4745 169.147 28.6238C169.659 28.7518 170.139 28.9012 170.587 29.0718V29.9998H161.819V29.0718C162.246 28.8585 162.683 28.6985 163.131 28.5918C163.579 28.4852 164.016 28.3892 164.443 28.3038V9.32782C163.952 9.24249 163.494 9.13582 163.067 9.00782C162.64 8.85849 162.224 8.69849 161.819 8.52782V7.59982H164.699C165.552 7.59982 166.48 7.55715 167.483 7.47182C168.486 7.38649 169.446 7.34382 170.363 7.34382C171.408 7.34382 172.432 7.46115 173.435 7.69582C174.438 7.90915 175.323 8.28249 176.091 8.81582C176.88 9.34915 177.51 10.0638 177.979 10.9598C178.47 11.8345 178.715 12.9332 178.715 14.2558C178.715 15.5145 178.47 16.5918 177.979 17.4878C177.488 18.3838 176.827 19.1198 175.995 19.6958C175.184 20.2718 174.256 20.6985 173.211 20.9758C172.166 21.2318 171.088 21.3598 169.979 21.3598C169.872 21.3598 169.702 21.3598 169.467 21.3598C169.254 21.3598 169.019 21.3598 168.763 21.3598C168.507 21.3385 168.262 21.3172 168.027 21.2958C167.792 21.2745 167.622 21.2532 167.515 21.2318V28.3038ZM169.691 9.00782C169.179 9.00782 168.763 9.01849 168.443 9.03982C168.123 9.06115 167.814 9.10382 167.515 9.16782V19.5358C167.622 19.5785 167.771 19.6105 167.963 19.6318C168.176 19.6318 168.39 19.6425 168.603 19.6638C168.838 19.6852 169.062 19.6958 169.275 19.6958C169.488 19.6958 169.659 19.6958 169.787 19.6958C170.534 19.6958 171.238 19.5998 171.899 19.4078C172.56 19.1945 173.136 18.8638 173.627 18.4158C174.139 17.9678 174.544 17.4025 174.843 16.7198C175.142 16.0372 175.291 15.2158 175.291 14.2558C175.291 12.5065 174.79 11.1945 173.787 10.3198C172.806 9.44515 171.44 9.00782 169.691 9.00782Z" fill="#1A2535"/>
<path d="M184.714 29.9998H177.61V29.0718C178.378 28.7305 179.146 28.4745 179.914 28.3038L188.01 7.21582H188.938L197.034 28.3038C197.46 28.3892 197.876 28.4852 198.282 28.5918C198.708 28.6985 199.103 28.8585 199.466 29.0718V29.9998H191.274V29.0718C191.7 28.9012 192.138 28.7518 192.586 28.6238C193.034 28.4958 193.471 28.3892 193.898 28.3038L191.722 22.4478H184.074L181.962 28.3038C182.858 28.4318 183.775 28.6878 184.714 29.0718V29.9998ZM184.714 20.7838H191.178L188.65 13.9998L188.042 11.2478H187.978L187.178 14.0638L184.714 20.7838Z" fill="#1A2535"/>
<path d="M206.078 28.3038C206.654 28.3678 207.198 28.4745 207.71 28.6238C208.222 28.7518 208.702 28.9012 209.15 29.0718V29.9998H200.382V29.0718C200.808 28.8585 201.246 28.6985 201.694 28.5918C202.142 28.4852 202.579 28.3892 203.006 28.3038V9.32782C202.515 9.24249 202.056 9.13582 201.63 9.00782C201.203 8.85849 200.787 8.69849 200.382 8.52782V7.59982H203.262C204.115 7.59982 205.043 7.55715 206.046 7.47182C207.048 7.38649 208.008 7.34382 208.926 7.34382C209.971 7.34382 210.995 7.46115 211.998 7.69582C213 7.90915 213.886 8.28249 214.654 8.81582C215.443 9.34915 216.072 10.0638 216.542 10.9598C217.032 11.8345 217.278 12.9332 217.278 14.2558C217.278 15.5145 217.032 16.5918 216.542 17.4878C216.051 18.3838 215.39 19.1198 214.558 19.6958C213.747 20.2718 212.819 20.6985 211.774 20.9758C210.728 21.2318 209.651 21.3598 208.542 21.3598C208.435 21.3598 208.264 21.3598 208.03 21.3598C207.816 21.3598 207.582 21.3598 207.326 21.3598C207.07 21.3385 206.824 21.3172 206.59 21.2958C206.355 21.2745 206.184 21.2532 206.078 21.2318V28.3038ZM208.254 9.00782C207.742 9.00782 207.326 9.01849 207.006 9.03982C206.686 9.06115 206.376 9.10382 206.078 9.16782V19.5358C206.184 19.5785 206.334 19.6105 206.526 19.6318C206.739 19.6318 206.952 19.6425 207.166 19.6638C207.4 19.6852 207.624 19.6958 207.838 19.6958C208.051 19.6958 208.222 19.6958 208.35 19.6958C209.096 19.6958 209.8 19.5998 210.462 19.4078C211.123 19.1945 211.699 18.8638 212.19 18.4158C212.702 17.9678 213.107 17.4025 213.406 16.7198C213.704 16.0372 213.854 15.2158 213.854 14.2558C213.854 12.5065 213.352 11.1945 212.35 10.3198C211.368 9.44515 210.003 9.00782 208.254 9.00782Z" fill="#1A2535"/>
<path d="M234.612 7.59982C234.591 8.45315 234.548 9.31715 234.484 10.1918C234.441 11.0452 234.367 11.9092 234.26 12.7838H233.428L232.116 9.26382H225.14V17.7438H230.356L231.604 15.3758H232.404C232.532 17.4878 232.532 19.6425 232.404 21.8398H231.604L230.356 19.4078H225.14V28.3358H232.5L234.068 24.4958H234.868C235.017 25.3918 235.124 26.2985 235.188 27.2158C235.252 28.1332 235.263 29.0612 235.22 29.9998H219.444V29.0718C220.191 28.7305 221.065 28.4745 222.068 28.3038V9.32782C221.641 9.24249 221.204 9.13582 220.756 9.00782C220.308 8.85849 219.871 8.69849 219.444 8.52782V7.59982H234.612Z" fill="#1A2535"/>
<path d="M243.765 28.3038C244.256 28.4105 244.725 28.5278 245.173 28.6558C245.621 28.7625 246.058 28.9012 246.485 29.0718V29.9998H238.069V29.0718C238.538 28.8585 238.986 28.6985 239.413 28.5918C239.84 28.4852 240.266 28.3892 240.693 28.3038V9.32782C240.138 9.22115 239.648 9.10382 239.221 8.97582C238.794 8.82649 238.41 8.67715 238.069 8.52782V7.59982H240.885C241.738 7.59982 242.666 7.55715 243.669 7.47182C244.693 7.38649 245.685 7.34382 246.645 7.34382C247.69 7.34382 248.661 7.46115 249.557 7.69582C250.474 7.93049 251.264 8.30382 251.925 8.81582C252.586 9.32782 253.098 9.97849 253.461 10.7678C253.845 11.5572 254.037 12.5065 254.037 13.6158C254.037 15.1732 253.621 16.4638 252.789 17.4878C251.978 18.5118 250.869 19.2478 249.461 19.6958C250.378 21.1465 251.338 22.5865 252.341 24.0158C253.344 25.4452 254.389 26.8638 255.477 28.2718L257.205 29.1998V29.9998H253.333L252.117 29.1038C251.52 28.3572 250.976 27.6318 250.485 26.9278C249.994 26.2025 249.536 25.4772 249.109 24.7518C248.682 24.0052 248.277 23.2585 247.893 22.5118C247.53 21.7438 247.157 20.9332 246.773 20.0798H243.765V28.3038ZM245.941 9.00782C245.429 9.00782 245.002 9.01849 244.661 9.03982C244.341 9.06115 244.042 9.10382 243.765 9.16782V18.7358H246.069C247.541 18.7358 248.704 18.2665 249.557 17.3278C250.432 16.3892 250.869 15.1518 250.869 13.6158C250.869 12.0372 250.41 10.8745 249.493 10.1278C248.576 9.38115 247.392 9.00782 245.941 9.00782Z" fill="#1A2535"/>
</svg>
