<svg width="36" height="36" viewBox="0 0 36 36" fill="none" xmlns="http://www.w3.org/2000/svg">
<g clip-path="url(#clip0)">
<path d="M30.8672 6.09497C24.2218 6.09497 19.1324 0.560338 19.0467 0.46613C18.4903 -0.154048 17.5147 -0.15652 16.9541 0.465581C16.9033 0.521611 11.8012 6.09497 5.13281 6.09497C4.35608 6.09497 3.72656 6.72449 3.72656 7.50122C3.72656 19.8608 6.21936 30.5541 17.3966 35.8641C17.7783 36.0454 18.2216 36.0454 18.6034 35.8641C29.8059 30.542 32.2734 19.812 32.2734 7.50122C32.2734 6.72449 31.6439 6.09497 30.8672 6.09497ZM18 33.026C8.84015 28.3395 6.68793 19.2127 6.54758 8.84128C11.9375 8.33783 16.1345 5.09 18 3.38163C19.8655 5.09 24.0628 8.33783 29.4524 8.84128C29.3121 19.2148 27.1588 28.3401 18 33.026ZM16.5558 19.3698L22.2792 13.6464C22.8282 13.0974 23.7187 13.0971 24.2677 13.6464C24.817 14.1957 24.817 15.0859 24.268 15.6352L17.5504 22.3528C17.0013 22.9019 16.1106 22.9016 15.5616 22.3528L11.7323 18.5235C11.183 17.9742 11.183 17.0838 11.7323 16.5347C12.2813 15.9854 13.1718 15.9854 13.7211 16.5347L16.5558 19.3698Z" fill="#00C189"/>
</g>
<defs>
<clipPath id="clip0">
<rect width="36" height="36" fill="white"/>
</clipPath>
</defs>
</svg>
