<svg width="36" height="36" viewBox="0 0 36 36" fill="none" xmlns="http://www.w3.org/2000/svg">
<g clip-path="url(#clip0)">
<path d="M1.1249 36C0.8309 36 0.5429 35.8845 0.3299 35.67C0.0343999 35.3745 -0.0736001 34.938 0.0508999 34.5375L3.3704 23.955C3.4244 23.7825 3.5204 23.625 3.6494 23.496L24.1859 2.96102C24.6074 2.53952 25.3544 2.53952 25.7774 2.96102L33.0404 10.224C33.4799 10.6635 33.4799 11.376 33.0404 11.8155L12.5024 32.352C12.3734 32.4795 12.2174 32.5755 12.0434 32.631L1.4609 35.949C1.3499 35.9835 1.2374 36 1.1249 36ZM5.4344 24.8925L2.8424 33.1575L11.1059 30.5655L30.6539 11.019L24.9824 5.34602L5.4344 24.8925ZM11.7074 31.557H11.7224H11.7074Z" fill="#00C189"/>
<path d="M31.208 11.106C30.9095 11.106 30.623 10.9875 30.413 10.776L25.2245 5.58899C25.013 5.37749 24.8945 5.09099 24.8945 4.79399C24.8945 4.49699 25.013 4.20899 25.2245 3.99899L27.818 1.40549C29.6885 -0.465014 32.7275 -0.463514 34.5965 1.40549C35.5025 2.30999 36.0005 3.51299 36.0005 4.79399C36.0005 6.07499 35.5025 7.27799 34.595 8.18399L32.0015 10.7775C31.7915 10.9875 31.5065 11.106 31.208 11.106ZM27.6095 4.79399L31.2065 8.39099L33.0035 6.59249C33.4835 6.11099 33.749 5.47349 33.749 4.79399C33.749 4.11449 33.4835 3.47549 33.0035 2.99549C32.015 2.00549 30.3995 2.00099 29.408 2.99549L27.6095 4.79399Z" fill="#00C189"/>
<path d="M11.7079 32.682C11.4199 32.682 11.1319 32.5725 10.9129 32.352L3.64994 25.089C3.21044 24.6495 3.21044 23.937 3.64994 23.4975C4.08944 23.058 4.80194 23.058 5.24144 23.4975L12.5044 30.7605C12.9439 31.2 12.9439 31.9125 12.5044 32.352C12.2824 32.571 11.9959 32.682 11.7079 32.682Z" fill="#00C189"/>
<path d="M10.4547 13.1819C10.1667 13.1819 9.8787 13.0724 9.6597 12.8519C9.2202 12.4124 9.2202 11.6999 9.6597 11.2604L16.9227 3.99742C18.5052 2.41492 21.0822 2.41492 22.6647 3.99742L23.7012 5.03392C24.1407 5.47342 24.1407 6.18592 23.7012 6.62542C23.2617 7.06492 22.5492 7.06492 22.1097 6.62542L21.0732 5.58892C20.3667 4.88392 19.2192 4.88392 18.5127 5.58892L11.2497 12.8519C11.0307 13.0709 10.7427 13.1819 10.4547 13.1819Z" fill="#00C189"/>
</g>
<defs>
<clipPath id="clip0">
<rect width="36" height="36" fill="white"/>
</clipPath>
</defs>
</svg>
