<svg width="36" height="36" viewBox="0 0 36 36" fill="none" xmlns="http://www.w3.org/2000/svg">
<g clip-path="url(#clip0)">
<path d="M35.8492 28.692L29.3197 17.3565C29.9947 15.8288 30.3749 14.1458 30.3749 12.375C30.3749 5.55075 24.8242 0 17.9999 0C11.1757 0 5.62491 5.55075 5.62491 12.375C5.62491 14.1458 6.00516 15.8287 6.68016 17.3542L0.150655 28.6875C-0.0765949 29.0835 -0.0450949 29.5763 0.233905 29.9363C0.512905 30.2963 0.978655 30.4583 1.41741 30.3368L8.02341 28.5592L9.78065 35.163C9.89765 35.604 10.2689 35.9302 10.7189 35.9888C10.7707 35.9977 10.8202 36 10.8674 36C11.2657 36 11.6392 35.7885 11.8417 35.4375L17.9999 24.777L24.1582 35.4375C24.3607 35.7885 24.7342 36 25.1324 36C25.1797 36 25.2314 35.9977 25.2809 35.991C25.7309 35.9325 26.1022 35.6063 26.2192 35.1652L27.9764 28.5615L34.5824 30.339C35.0212 30.4605 35.4892 30.2985 35.7659 29.9385C36.0427 29.5785 36.0764 29.0858 35.8492 28.692ZM11.2544 31.9568L9.90666 26.892C9.83016 26.604 9.64116 26.3565 9.38241 26.2058C9.12366 26.0573 8.81316 26.019 8.52741 26.0933L3.45591 27.4568L7.9784 19.6065C9.77166 22.086 12.4514 23.8815 15.5587 24.507L11.2544 31.9568ZM7.87491 12.375C7.87491 6.79275 12.4177 2.25 17.9999 2.25C23.5822 2.25 28.1249 6.79275 28.1249 12.375C28.1249 17.9573 23.5822 22.5 17.9999 22.5C12.4177 22.5 7.87491 17.9573 7.87491 12.375ZM27.4724 26.0955C27.1844 26.019 26.8762 26.0595 26.6174 26.208C26.3587 26.3565 26.1697 26.604 26.0932 26.8943L24.7454 31.959L20.4412 24.5092C23.5462 23.886 26.2282 22.0883 28.0214 19.6087L32.5439 27.459L27.4724 26.0955Z" fill="#00C189"/>
<path d="M24.6914 9.56708C24.5721 9.20483 24.2774 8.93033 23.9084 8.83358L20.7179 7.99883L18.9674 5.05133C18.5624 4.36733 17.4374 4.36733 17.0346 5.05133L15.2841 7.99883L12.0914 8.83358C11.7201 8.93033 11.4276 9.20483 11.3061 9.56708C11.1846 9.92933 11.2566 10.3253 11.4951 10.6246L13.6349 13.3021L13.4009 16.8008C13.3761 17.1901 13.5539 17.5658 13.8734 17.7931C14.1929 18.0203 14.6069 18.0631 14.9646 17.9101L17.9999 16.6208L21.0351 17.9101C21.1769 17.9708 21.3276 18.0001 21.4761 18.0001C21.7056 18.0001 21.9351 17.9303 22.1286 17.7931C22.4481 17.5658 22.6259 17.1901 22.5989 16.8008L22.3649 13.3021L24.5024 10.6246C24.7409 10.3276 24.8106 9.92933 24.6914 9.56708ZM20.3354 12.2401C20.1599 12.4606 20.0721 12.7373 20.0924 13.0163L20.2341 15.1246L18.4409 14.3618C18.2991 14.3011 18.1484 14.2718 17.9999 14.2718C17.8514 14.2718 17.7006 14.3011 17.5589 14.3618L15.7679 15.1246L15.9074 13.0163C15.9276 12.7373 15.8399 12.4606 15.6644 12.2401L14.3346 10.5728L16.2989 10.0576C16.5846 9.98333 16.8299 9.79658 16.9806 9.54458L17.9999 7.82783L19.0191 9.54458C19.1699 9.79658 19.4151 9.98333 19.7009 10.0576L21.6651 10.5728L20.3354 12.2401Z" fill="#00C189"/>
</g>
<defs>
<clipPath id="clip0">
<rect width="36" height="36" fill="white"/>
</clipPath>
</defs>
</svg>
