<svg width="36" height="36" viewBox="0 0 36 36" fill="none" xmlns="http://www.w3.org/2000/svg">
<path d="M25.0833 15.1667C21.1776 15.1667 18 11.9891 18 8.08333C18 4.17758 21.1776 1 25.0833 1C28.9891 1 32.1667 4.17758 32.1667 8.08333C32.1667 11.9891 28.9891 15.1667 25.0833 15.1667ZM25.0833 2.41667C21.9582 2.41667 19.4167 4.95817 19.4167 8.08333C19.4167 11.2085 21.9582 13.75 25.0833 13.75C28.2085 13.75 30.75 11.2085 30.75 8.08333C30.75 4.95817 28.2085 2.41667 25.0833 2.41667Z" fill="#00C189" stroke="#00C189"/>
<path d="M34.2913 18C34.11 18 33.9287 17.9305 33.7898 17.7931L29.4435 13.4468C29.1673 13.1706 29.1673 12.7215 29.4435 12.4452C29.7198 12.169 30.1688 12.169 30.4451 12.4452L34.7914 16.7915C35.0677 17.0678 35.0677 17.5169 34.7914 17.7931C34.654 17.9305 34.4727 18 34.2913 18Z" fill="#00C189" stroke="#00C189"/>
<path d="M8.79167 35H3.125C1.95342 35 1 34.0466 1 32.875V11.625C1 10.4534 1.95342 9.5 3.125 9.5H8.79167C9.96325 9.5 10.9167 10.4534 10.9167 11.625V32.875C10.9167 34.0466 9.96325 35 8.79167 35ZM3.125 10.9167C2.734 10.9167 2.41667 11.2354 2.41667 11.625V32.875C2.41667 33.2646 2.734 33.5833 3.125 33.5833H8.79167C9.18267 33.5833 9.5 33.2646 9.5 32.875V11.625C9.5 11.2354 9.18267 10.9167 8.79167 10.9167H3.125Z" fill="#00C189" stroke="#00C189"/>
<path d="M17.2917 35H11.625C10.4534 35 9.5 34.0466 9.5 32.875V3.125C9.5 1.95342 10.4534 1 11.625 1H15.875C16.266 1 16.5833 1.31733 16.5833 1.70833C16.5833 2.09933 16.266 2.41667 15.875 2.41667H11.625C11.234 2.41667 10.9167 2.73542 10.9167 3.125V32.875C10.9167 33.2646 11.234 33.5833 11.625 33.5833H17.2917C17.6827 33.5833 18 33.2646 18 32.875V15.875C18 15.484 18.3173 15.1667 18.7083 15.1667C19.0993 15.1667 19.4167 15.484 19.4167 15.875V32.875C19.4167 34.0466 18.4633 35 17.2917 35Z" fill="#00C189" stroke="#00C189"/>
<path d="M25.7917 35H20.125C18.9534 35 18 34.0466 18 32.875V22.9583C18 22.5673 18.3173 22.25 18.7083 22.25C19.0993 22.25 19.4167 22.5673 19.4167 22.9583V32.875C19.4167 33.2646 19.734 33.5833 20.125 33.5833H25.7917C26.1827 33.5833 26.5 33.2646 26.5 32.875V18.7083C26.5 18.3173 26.8173 18 27.2083 18C27.5993 18 27.9167 18.3173 27.9167 18.7083V32.875C27.9167 34.0466 26.9633 35 25.7917 35Z" fill="#00C189" stroke="#00C189"/>
<path d="M10.2083 29.3333H1.70833C1.31733 29.3333 1 29.016 1 28.625C1 28.234 1.31733 27.9166 1.70833 27.9166H10.2083C10.5993 27.9166 10.9167 28.234 10.9167 28.625C10.9167 29.016 10.5993 29.3333 10.2083 29.3333Z" fill="#00C189" stroke="#00C189"/>
<path d="M10.2083 25.0833H1.70833C1.31733 25.0833 1 24.766 1 24.375C1 23.984 1.31733 23.6666 1.70833 23.6666H10.2083C10.5993 23.6666 10.9167 23.984 10.9167 24.375C10.9167 24.766 10.5993 25.0833 10.2083 25.0833Z" fill="#00C189" stroke="#00C189"/>
<path d="M27.2083 25.0833H18.7083C18.3173 25.0833 18 24.766 18 24.375C18 23.984 18.3173 23.6666 18.7083 23.6666H27.2083C27.5993 23.6666 27.9167 23.984 27.9167 24.375C27.9167 24.766 27.5993 25.0833 27.2083 25.0833Z" fill="#00C189" stroke="#00C189"/>
<path d="M14.4583 29.3334C14.0673 29.3334 13.75 29.016 13.75 28.625V13.0417C13.75 12.6507 14.0673 12.3334 14.4583 12.3334C14.8493 12.3334 15.1667 12.6507 15.1667 13.0417V28.625C15.1667 29.016 14.8493 29.3334 14.4583 29.3334Z" fill="#00C189" stroke="#00C189"/>
<path d="M27.2083 29.3333H18.7083C18.3173 29.3333 18 29.016 18 28.625C18 28.234 18.3173 27.9166 18.7083 27.9166H27.2083C27.5993 27.9166 27.9167 28.234 27.9167 28.625C27.9167 29.016 27.5993 29.3333 27.2083 29.3333Z" fill="#00C189" stroke="#00C189"/>
</svg>
