<svg width="36" height="36" viewBox="0 0 36 36" fill="none" xmlns="http://www.w3.org/2000/svg">
<path d="M20.7308 28.1569V32.9285C20.7308 33.6598 20.8043 34.1991 20.9512 34.5465C21.1165 34.8756 21.392 35.095 21.7777 35.2047C22.1818 35.3144 22.8154 35.3784 23.6786 35.3966V35.9999C21.4196 35.9451 19.7391 35.9177 18.6371 35.9177C17.7188 35.9177 16.5617 35.936 15.1659 35.9725L14.2843 35.9999V35.4515C14.8904 35.4149 15.3312 35.3418 15.6067 35.2321C15.9005 35.1224 16.0934 34.9122 16.1852 34.6014C16.2954 34.2906 16.3505 33.7878 16.3505 33.0931V24.7037L20.7308 20.3434V27.6084H21.9154C23.4031 27.6084 24.4316 27.1331 25.0009 26.1824C25.5703 25.2317 25.855 23.9428 25.855 22.3157C25.855 20.5423 25.5887 19.2351 25.056 18.3942C24.7488 17.8917 24.3138 17.5394 23.7509 17.3371L24.4023 16.6887C26.109 16.8626 27.4657 17.3305 28.4721 18.0925C29.7761 19.0615 30.4281 20.3686 30.4281 22.014C30.4281 23.0196 30.171 23.9885 29.6568 24.9209C29.1425 25.835 28.2701 26.6029 27.0396 27.2245C25.8274 27.8461 24.2112 28.1569 22.1909 28.1569H20.7308Z" fill="#1A2535"/>
<path d="M13.0025 1.26416C12.4541 1.08805 11.7199 1 10.7999 1C9.72073 1 8.73001 1.17611 7.82774 1.52832C6.92548 1.88053 6.20013 2.42646 5.6517 3.16611C5.12096 3.88814 4.85559 4.77748 4.85559 5.83412C4.85559 6.74987 5.05904 7.55996 5.46594 8.26439C5.87284 8.9512 6.39474 9.54997 7.03163 10.0607C7.66852 10.5714 8.51771 11.1701 9.5792 11.857C10.9591 12.7375 11.9675 13.53 12.6044 14.2344C12.7453 14.3902 12.8706 14.553 12.9804 14.7226L16.1286 11.5887C15.9721 11.424 15.8058 11.2669 15.6297 11.1173C15.0282 10.6066 14.2055 10.0078 13.1617 9.32103L12.3125 8.73988C11.3218 8.08828 10.5876 7.57757 10.1099 7.20775C9.63227 6.82032 9.26075 6.39766 8.99538 5.93978C8.73001 5.48191 8.59732 4.94478 8.59732 4.32841C8.59732 3.50071 8.86269 2.84912 9.39344 2.37363C9.94187 1.88053 10.6495 1.63398 11.5164 1.63398C12.401 1.63398 13.1706 1.90695 13.8251 2.45288C14.4974 2.9812 15.0105 3.67682 15.3643 4.53974C15.7358 5.40266 15.957 6.30961 16.0277 7.26058H16.6381C16.6381 4.42527 16.6823 2.41766 16.7708 1.23774H16.1604C16.1073 1.64279 16.0366 1.94217 15.9481 2.13589C15.8597 2.31199 15.7358 2.40005 15.5766 2.40005C15.4704 2.40005 15.3378 2.36482 15.1785 2.29438C15.037 2.22394 14.8689 2.13589 14.6743 2.03022C14.1082 1.69562 13.5509 1.44027 13.0025 1.26416Z" fill="#00C189"/>
<path d="M5.91707 19.0685C6.12937 19.0685 6.43012 19.1918 6.81933 19.4383C7.12761 19.6066 7.45266 19.7554 7.79448 19.8848L8.34365 19.3381C7.70053 19.036 7.17474 18.5587 6.76626 17.9062C6.00553 16.6735 5.56324 15.0709 5.4394 13.0985H4.82905C4.82905 16.7439 4.79367 19.1213 4.7229 20.2308H5.33325C5.38633 19.8258 5.45709 19.5352 5.54555 19.3591C5.63401 19.1654 5.75785 19.0685 5.91707 19.0685Z" fill="#00C189"/>
<rect width="1.0023" height="35.3957" transform="matrix(-0.708723 -0.705487 -0.708723 0.705487 30.2961 5.04639)" fill="#1A2535"/>
</svg>
