<svg width="218" height="36" viewBox="0 0 218 36" fill="none" xmlns="http://www.w3.org/2000/svg">
<path d="M16.1563 28.1569V32.9286C16.1563 33.6599 16.2294 34.1992 16.3757 34.5466C16.5402 34.8756 16.8145 35.095 17.1984 35.2047C17.6006 35.3144 18.2314 35.3784 19.0906 35.3967V36C16.8419 35.9452 15.1691 35.9177 14.0721 35.9177C13.158 35.9177 12.0063 35.936 10.6168 35.9726L9.73926 36V35.4515C10.3426 35.415 10.7813 35.3418 11.0556 35.2322C11.3481 35.1225 11.5401 34.9122 11.6315 34.6014C11.7412 34.2906 11.796 33.7879 11.796 33.0931V24.7038L16.1563 20.3435V27.6085H17.3355C18.8164 27.6085 19.8402 27.1331 20.4069 26.1824C20.9737 25.2318 21.2571 23.9429 21.2571 22.3158C21.2571 20.5424 20.992 19.2352 20.4618 18.3942C20.156 17.8918 19.7229 17.5395 19.1626 17.3372L19.811 16.6888C21.51 16.8626 22.8604 17.3306 23.8623 18.0926C25.1603 19.0615 25.8093 20.3687 25.8093 22.0141C25.8093 23.0196 25.5534 23.9886 25.0415 24.921C24.5296 25.8351 23.6612 26.6029 22.4363 27.2245C21.2296 27.8461 19.6208 28.1569 17.6098 28.1569H16.1563Z" fill="#1A2535"/>
<path d="M8.46444 1.26416C7.91851 1.08805 7.18766 1 6.27191 1C5.19766 1 4.21147 1.17611 3.31332 1.52832C2.41518 1.88053 1.69314 2.42646 1.14721 3.16611C0.618895 3.88814 0.354736 4.77748 0.354736 5.83412C0.354736 6.74987 0.557258 7.55996 0.962303 8.26439C1.36735 8.9512 1.88686 9.54997 2.52084 10.0607C3.15483 10.5714 4.00014 11.1701 5.05678 11.857C6.43041 12.7375 7.43421 13.53 8.0682 14.2344C8.20845 14.3902 8.33318 14.553 8.4424 14.7226L11.5763 11.5887C11.4205 11.424 11.255 11.2669 11.0796 11.1173C10.4809 10.6066 9.66196 10.0078 8.62293 9.32103L7.77762 8.73988C6.79142 8.08828 6.06058 7.57757 5.5851 7.20775C5.10961 6.82032 4.73978 6.39766 4.47563 5.93978C4.21147 5.48191 4.07939 4.94478 4.07939 4.32841C4.07939 3.50071 4.34355 2.84912 4.87186 2.37363C5.4178 1.88053 6.12222 1.63398 6.98514 1.63398C7.86567 1.63398 8.63174 1.90695 9.28333 2.45288C9.95253 2.9812 10.4632 3.67682 10.8155 4.53974C11.1853 5.40266 11.4054 6.30961 11.4759 7.26058H12.0834C12.0834 4.42527 12.1274 2.41766 12.2155 1.23774H11.6079C11.5551 1.64279 11.4847 1.94217 11.3966 2.13589C11.3086 2.31199 11.1853 2.40005 11.0268 2.40005C10.9211 2.40005 10.789 2.36482 10.6305 2.29438C10.4897 2.22394 10.3224 2.13589 10.1286 2.03022C9.5651 1.69562 9.01037 1.44027 8.46444 1.26416Z" fill="#00C189"/>
<path d="M1.41137 19.0685C1.6227 19.0685 1.92208 19.1918 2.30952 19.4383C2.61639 19.6066 2.93995 19.7554 3.28021 19.8848L3.82687 19.3381C3.18669 19.036 2.6633 18.5587 2.25668 17.9062C1.49943 16.6735 1.05916 15.0709 0.935887 13.0985H0.32832C0.32832 16.7439 0.293099 19.1213 0.222656 20.2308H0.830223C0.883055 19.8258 0.953497 19.5352 1.04155 19.3591C1.1296 19.1654 1.25288 19.0685 1.41137 19.0685Z" fill="#00C189"/>
<rect width="1" height="35.3147" transform="matrix(-0.707107 -0.707107 -0.707107 0.707107 25.6787 5.04633)" fill="#1A2535"/>
<path d="M36.351 25.7624C36.572 25.9834 36.8575 26.1768 37.2074 26.3425C37.5573 26.4899 38.0821 26.5635 38.7819 26.5635C39.3713 26.5635 39.9238 26.4899 40.4394 26.3425C40.9551 26.1768 41.397 25.9466 41.7654 25.6519C42.1521 25.3389 42.456 24.9705 42.677 24.547C42.898 24.105 43.0085 23.6077 43.0085 23.0552C43.0085 22.3186 42.7783 21.7017 42.3179 21.2044C41.8759 20.7072 41.3142 20.2652 40.6328 19.8785C39.9698 19.4917 39.2424 19.1142 38.4505 18.7459C37.6586 18.3775 36.9219 17.9448 36.2405 17.4475C35.5775 16.9319 35.0158 16.3241 34.5554 15.6243C34.1134 14.9061 33.8924 14.0129 33.8924 12.9447C33.8924 12.1713 34.0306 11.4807 34.3068 10.8729C34.5831 10.2652 34.9698 9.74954 35.467 9.32597C35.9827 8.90239 36.5904 8.58011 37.2902 8.35911C37.99 8.1197 38.7727 8 39.6383 8C40.7617 8 41.7838 8.09208 42.7046 8.27624C43.6438 8.44199 44.3805 8.65378 44.9145 8.9116C44.9145 9.22468 44.8869 9.593 44.8317 10.0166C44.7948 10.4217 44.7396 10.8453 44.6659 11.2873C44.6107 11.7293 44.5462 12.1621 44.4726 12.5856C44.3989 12.9908 44.3252 13.3499 44.2516 13.663H43.5333L42.4284 9.87845C42.0969 9.73112 41.6733 9.62063 41.1576 9.54696C40.6604 9.4733 40.1263 9.43646 39.5554 9.43646C38.6162 9.43646 37.8611 9.7035 37.2902 10.2376C36.7193 10.7532 36.4339 11.4807 36.4339 12.4199C36.4339 13.175 36.6549 13.8103 37.0969 14.326C37.5573 14.8416 38.1282 15.302 38.8096 15.7072C39.491 16.1123 40.2184 16.5083 40.9919 16.895C41.7838 17.2634 42.5204 17.6961 43.2018 18.1934C43.8832 18.6906 44.4449 19.2799 44.8869 19.9613C45.3473 20.6427 45.5775 21.4899 45.5775 22.5028C45.5775 23.3315 45.421 24.0866 45.1079 24.768C44.8133 25.4494 44.3805 26.0295 43.8096 26.5083C43.2387 26.9871 42.5389 27.3554 41.7101 27.6133C40.8814 27.8711 39.9422 28 38.8924 28C37.7322 28 36.6917 27.8619 35.7709 27.5856C34.8501 27.3094 34.1963 27.0147 33.8096 26.7017C33.828 26.3886 33.8556 26.011 33.8924 25.5691C33.9477 25.1271 34.0029 24.6759 34.0582 24.2155C34.1319 23.7366 34.2055 23.2762 34.2792 22.8343C34.3528 22.3923 34.4265 22.0147 34.5002 21.7017H35.2184L36.351 25.7624Z" fill="#1A2535"/>
<path d="M47.2939 8.33149H54.3105V9.1326C53.9606 9.27993 53.6107 9.40884 53.2608 9.51934C52.9108 9.62983 52.5609 9.73112 52.211 9.8232V21.1215C52.211 22.0976 52.3123 22.9171 52.5149 23.5801C52.7359 24.2247 53.049 24.7495 53.4541 25.1547C53.8593 25.5414 54.3565 25.8269 54.9458 26.011C55.5536 26.1768 56.235 26.2597 56.99 26.2597C58.4449 26.2597 59.5775 25.8637 60.3878 25.0718C61.1981 24.2615 61.6033 22.9355 61.6033 21.0939V10.0718C61.1797 9.92449 60.7838 9.77716 60.4154 9.62983C60.0471 9.46409 59.7156 9.29834 59.421 9.1326V8.33149H65.305V9.1326C64.955 9.33517 64.5959 9.51934 64.2276 9.68508C63.8777 9.85083 63.5186 9.97974 63.1503 10.0718V21.1492C63.1503 22.3278 62.9937 23.3407 62.6806 24.1878C62.3676 25.035 61.9256 25.7348 61.3547 26.2873C60.8022 26.8398 60.1208 27.2541 59.3105 27.5304C58.5186 27.7882 57.6346 27.9171 56.6585 27.9171C54.3565 27.9171 52.5978 27.4015 51.3823 26.3702C50.1668 25.3204 49.5591 23.7182 49.5591 21.5635V9.8232C48.804 9.71271 48.049 9.4825 47.2939 9.1326V8.33149Z" fill="#1A2535"/>
<path d="M71.296 26.2044C71.7932 26.2597 72.2628 26.3517 72.7048 26.4807C73.1468 26.5912 73.5612 26.7201 73.9479 26.8674V27.6685H66.3788V26.8674C66.7472 26.6832 67.1247 26.5451 67.5114 26.453C67.8982 26.361 68.2757 26.2781 68.644 26.2044V9.8232C68.2205 9.74954 67.8245 9.65746 67.4562 9.54696C67.0879 9.41805 66.7288 9.27993 66.3788 9.1326V8.33149H68.865C69.6017 8.33149 70.4028 8.29466 71.2683 8.22099C72.1339 8.14733 72.9626 8.1105 73.7545 8.1105C74.6569 8.1105 75.5409 8.21179 76.4065 8.41436C77.272 8.59853 78.0363 8.92081 78.6993 9.38121C79.3807 9.84162 79.924 10.4586 80.3291 11.232C80.7527 11.9871 80.9645 12.9355 80.9645 14.0773C80.9645 15.1639 80.7527 16.0939 80.3291 16.8674C79.9055 17.6409 79.3346 18.2762 78.6164 18.7735C77.9166 19.2707 77.1155 19.639 76.2131 19.8785C75.3107 20.0994 74.3807 20.2099 73.423 20.2099C73.331 20.2099 73.1836 20.2099 72.9811 20.2099C72.7969 20.2099 72.5943 20.2099 72.3733 20.2099C72.1523 20.1915 71.9405 20.1731 71.738 20.1547C71.5354 20.1363 71.3881 20.1179 71.296 20.0994V26.2044ZM73.1744 9.54696C72.7324 9.54696 72.3733 9.55617 72.0971 9.57459C71.8208 9.593 71.5538 9.62983 71.296 9.68508V18.6354C71.3881 18.6722 71.517 18.6998 71.6827 18.7182C71.8669 18.7182 72.051 18.7274 72.2352 18.7459C72.4378 18.7643 72.6311 18.7735 72.8153 18.7735C72.9995 18.7735 73.1468 18.7735 73.2573 18.7735C73.9019 18.7735 74.5096 18.6906 75.0805 18.5249C75.6514 18.3407 76.1486 18.0552 76.5722 17.6685C77.0142 17.2818 77.3641 16.7937 77.6219 16.2044C77.8798 15.6151 78.0087 14.9061 78.0087 14.0773C78.0087 12.5672 77.5759 11.4346 76.7103 10.6796C75.8632 9.92449 74.6846 9.54696 73.1744 9.54696Z" fill="#1A2535"/>
<path d="M95.9286 8.33149C95.9102 9.06814 95.8734 9.814 95.8182 10.5691C95.7813 11.3057 95.7169 12.0516 95.6248 12.8066H94.9066L93.774 9.76796H87.7519V17.0884H92.2546L93.332 15.0442H94.0226C94.1331 16.8674 94.1331 18.7274 94.0226 20.6243H93.332L92.2546 18.5249H87.7519V26.232H94.1054L95.459 22.9171H96.1497C96.2786 23.6906 96.3706 24.4733 96.4259 25.2652C96.4811 26.0571 96.4903 26.8582 96.4535 27.6685H82.8347V26.8674C83.4793 26.5727 84.2344 26.3517 85.0999 26.2044V9.8232C84.7316 9.74954 84.3541 9.65746 83.9673 9.54696C83.5806 9.41805 83.2031 9.27993 82.8347 9.1326V8.33149H95.9286Z" fill="#1A2535"/>
<path d="M103.83 26.2044C104.254 26.2965 104.659 26.3978 105.046 26.5083C105.432 26.6004 105.81 26.7201 106.178 26.8674V27.6685H98.9129V26.8674C99.3181 26.6832 99.7048 26.5451 100.073 26.453C100.441 26.361 100.81 26.2781 101.178 26.2044V9.8232C100.699 9.73112 100.276 9.62983 99.9074 9.51934C99.5391 9.39042 99.2076 9.26151 98.9129 9.1326V8.33149H101.344C102.081 8.33149 102.882 8.29466 103.747 8.22099C104.631 8.14733 105.488 8.1105 106.316 8.1105C107.219 8.1105 108.057 8.21179 108.83 8.41436C109.622 8.61694 110.303 8.93923 110.874 9.38121C111.445 9.8232 111.887 10.3849 112.2 11.0663C112.532 11.7477 112.697 12.5672 112.697 13.5249C112.697 14.8692 112.338 15.9834 111.62 16.8674C110.92 17.7514 109.963 18.3867 108.747 18.7735C109.539 20.0258 110.368 21.2689 111.233 22.5028C112.099 23.7366 113.001 24.9613 113.941 26.1768L115.432 26.9779V27.6685H112.09L111.04 26.895C110.524 26.2505 110.055 25.6243 109.631 25.0166C109.208 24.3904 108.812 23.7643 108.443 23.1381C108.075 22.4936 107.725 21.849 107.394 21.2044C107.081 20.5414 106.758 19.8416 106.427 19.105H103.83V26.2044ZM105.709 9.54696C105.267 9.54696 104.898 9.55617 104.604 9.57459C104.327 9.593 104.069 9.62983 103.83 9.68508V17.9448H105.819C107.09 17.9448 108.093 17.5396 108.83 16.7293C109.585 15.919 109.963 14.8508 109.963 13.5249C109.963 12.1621 109.567 11.1584 108.775 10.5138C107.983 9.86924 106.961 9.54696 105.709 9.54696Z" fill="#1A2535"/>
<path d="M116.502 27.6685V26.8674C117.239 26.5175 117.994 26.2965 118.767 26.2044V9.8232C118.399 9.74954 118.021 9.65746 117.634 9.54696C117.248 9.41805 116.87 9.27993 116.502 9.1326V8.33149H119.43C119.78 8.33149 120.111 8.32228 120.425 8.30387C120.756 8.28545 121.097 8.26703 121.447 8.24862C121.797 8.2302 122.174 8.21179 122.579 8.19337C122.984 8.17495 123.445 8.16575 123.96 8.16575C124.697 8.16575 125.443 8.2302 126.198 8.35911C126.971 8.46961 127.662 8.69061 128.27 9.0221C128.896 9.35359 129.402 9.8232 129.789 10.4309C130.176 11.0203 130.369 11.7937 130.369 12.7514C130.369 13.2302 130.296 13.709 130.148 14.1878C130.001 14.6667 129.771 15.1179 129.458 15.5414C129.163 15.9466 128.785 16.3057 128.325 16.6188C127.865 16.9319 127.321 17.1621 126.695 17.3094V17.4199C127.248 17.512 127.791 17.6685 128.325 17.8895C128.878 18.1105 129.366 18.4144 129.789 18.8011C130.213 19.1694 130.553 19.6298 130.811 20.1823C131.087 20.7348 131.226 21.3978 131.226 22.1713C131.226 23.1657 131.005 24.0221 130.563 24.7403C130.121 25.4586 129.541 26.0479 128.822 26.5083C128.122 26.9687 127.321 27.3094 126.419 27.5304C125.517 27.733 124.605 27.8343 123.684 27.8343C123.04 27.8343 122.312 27.8066 121.502 27.7514C120.692 27.6961 119.909 27.6685 119.154 27.6685H116.502ZM123.878 26.3978C124.541 26.3978 125.157 26.2965 125.728 26.0939C126.318 25.8913 126.815 25.6151 127.22 25.2652C127.644 24.8969 127.975 24.4641 128.215 23.9669C128.454 23.4512 128.574 22.8987 128.574 22.3094C128.574 21.5727 128.426 20.965 128.132 20.4862C127.855 19.9889 127.469 19.6022 126.971 19.326C126.493 19.0313 125.931 18.8287 125.286 18.7182C124.66 18.6077 124.006 18.5525 123.325 18.5525H121.253V26.1768C121.511 26.2505 121.815 26.3057 122.165 26.3425C122.533 26.3794 123.104 26.3978 123.878 26.3978ZM122.634 17.116C122.948 17.116 123.316 17.1068 123.739 17.0884C124.181 17.0516 124.541 17.0147 124.817 16.9779C125.664 16.6832 126.355 16.2136 126.889 15.5691C127.441 14.9061 127.717 14.1326 127.717 13.2486C127.717 12.0331 127.349 11.1215 126.612 10.5138C125.894 9.90608 124.927 9.60221 123.712 9.60221C123.141 9.60221 122.653 9.61142 122.248 9.62983C121.843 9.64825 121.511 9.67587 121.253 9.71271V17.116H122.634Z" fill="#1A2535"/>
<path d="M138.414 26.2044C138.912 26.2597 139.381 26.3517 139.823 26.4807C140.265 26.5912 140.68 26.7201 141.066 26.8674V27.6685H133.497V26.8674C133.866 26.6832 134.243 26.5451 134.63 26.453C135.017 26.361 135.394 26.2781 135.762 26.2044V9.8232C135.339 9.74954 134.943 9.65746 134.575 9.54696C134.206 9.41805 133.847 9.27993 133.497 9.1326V8.33149H135.983C136.72 8.33149 137.521 8.29466 138.387 8.22099C139.252 8.14733 140.081 8.1105 140.873 8.1105C141.775 8.1105 142.659 8.21179 143.525 8.41436C144.39 8.59853 145.155 8.92081 145.818 9.38121C146.499 9.84162 147.042 10.4586 147.448 11.232C147.871 11.9871 148.083 12.9355 148.083 14.0773C148.083 15.1639 147.871 16.0939 147.448 16.8674C147.024 17.6409 146.453 18.2762 145.735 18.7735C145.035 19.2707 144.234 19.639 143.332 19.8785C142.429 20.0994 141.499 20.2099 140.541 20.2099C140.449 20.2099 140.302 20.2099 140.099 20.2099C139.915 20.2099 139.713 20.2099 139.492 20.2099C139.271 20.1915 139.059 20.1731 138.856 20.1547C138.654 20.1363 138.506 20.1179 138.414 20.0994V26.2044ZM140.293 9.54696C139.851 9.54696 139.492 9.55617 139.216 9.57459C138.939 9.593 138.672 9.62983 138.414 9.68508V18.6354C138.506 18.6722 138.635 18.6998 138.801 18.7182C138.985 18.7182 139.169 18.7274 139.354 18.7459C139.556 18.7643 139.75 18.7735 139.934 18.7735C140.118 18.7735 140.265 18.7735 140.376 18.7735C141.02 18.7735 141.628 18.6906 142.199 18.5249C142.77 18.3407 143.267 18.0552 143.691 17.6685C144.133 17.2818 144.483 16.7937 144.74 16.2044C144.998 15.6151 145.127 14.9061 145.127 14.0773C145.127 12.5672 144.694 11.4346 143.829 10.6796C142.982 9.92449 141.803 9.54696 140.293 9.54696Z" fill="#1A2535"/>
<path d="M153.261 27.6685H147.129V26.8674C147.792 26.5727 148.455 26.3517 149.118 26.2044L156.107 8H156.908L163.897 26.2044C164.265 26.2781 164.624 26.361 164.974 26.453C165.342 26.5451 165.683 26.6832 165.996 26.8674V27.6685H158.924V26.8674C159.293 26.7201 159.67 26.5912 160.057 26.4807C160.444 26.3702 160.821 26.2781 161.19 26.2044L159.311 21.1492H152.709L150.886 26.2044C151.659 26.3149 152.451 26.5359 153.261 26.8674V27.6685ZM153.261 19.7127H158.842L156.659 13.8564L156.134 11.4807H156.079L155.388 13.9116L153.261 19.7127Z" fill="#1A2535"/>
<path d="M171.704 26.2044C172.201 26.2597 172.671 26.3517 173.113 26.4807C173.555 26.5912 173.969 26.7201 174.356 26.8674V27.6685H166.787V26.8674C167.155 26.6832 167.533 26.5451 167.919 26.453C168.306 26.361 168.684 26.2781 169.052 26.2044V9.8232C168.628 9.74954 168.232 9.65746 167.864 9.54696C167.496 9.41805 167.137 9.27993 166.787 9.1326V8.33149H169.273C170.01 8.33149 170.811 8.29466 171.676 8.22099C172.542 8.14733 173.371 8.1105 174.162 8.1105C175.065 8.1105 175.949 8.21179 176.814 8.41436C177.68 8.59853 178.444 8.92081 179.107 9.38121C179.789 9.84162 180.332 10.4586 180.737 11.232C181.161 11.9871 181.372 12.9355 181.372 14.0773C181.372 15.1639 181.161 16.0939 180.737 16.8674C180.313 17.6409 179.743 18.2762 179.024 18.7735C178.324 19.2707 177.523 19.639 176.621 19.8785C175.719 20.0994 174.789 20.2099 173.831 20.2099C173.739 20.2099 173.592 20.2099 173.389 20.2099C173.205 20.2099 173.002 20.2099 172.781 20.2099C172.56 20.1915 172.348 20.1731 172.146 20.1547C171.943 20.1363 171.796 20.1179 171.704 20.0994V26.2044ZM173.582 9.54696C173.14 9.54696 172.781 9.55617 172.505 9.57459C172.229 9.593 171.962 9.62983 171.704 9.68508V18.6354C171.796 18.6722 171.925 18.6998 172.091 18.7182C172.275 18.7182 172.459 18.7274 172.643 18.7459C172.846 18.7643 173.039 18.7735 173.223 18.7735C173.407 18.7735 173.555 18.7735 173.665 18.7735C174.31 18.7735 174.917 18.6906 175.488 18.5249C176.059 18.3407 176.557 18.0552 176.98 17.6685C177.422 17.2818 177.772 16.7937 178.03 16.2044C178.288 15.6151 178.417 14.9061 178.417 14.0773C178.417 12.5672 177.984 11.4346 177.118 10.6796C176.271 9.92449 175.092 9.54696 173.582 9.54696Z" fill="#1A2535"/>
<path d="M196.337 8.33149C196.318 9.06814 196.281 9.814 196.226 10.5691C196.189 11.3057 196.125 12.0516 196.033 12.8066H195.314L194.182 9.76796H188.16V17.0884H192.662L193.74 15.0442H194.43C194.541 16.8674 194.541 18.7274 194.43 20.6243H193.74L192.662 18.5249H188.16V26.232H194.513L195.867 22.9171H196.558C196.686 23.6906 196.779 24.4733 196.834 25.2652C196.889 26.0571 196.898 26.8582 196.861 27.6685H183.243V26.8674C183.887 26.5727 184.642 26.3517 185.508 26.2044V9.8232C185.139 9.74954 184.762 9.65746 184.375 9.54696C183.988 9.41805 183.611 9.27993 183.243 9.1326V8.33149H196.337Z" fill="#1A2535"/>
<path d="M204.238 26.2044C204.662 26.2965 205.067 26.3978 205.453 26.5083C205.84 26.6004 206.218 26.7201 206.586 26.8674V27.6685H199.321V26.8674C199.726 26.6832 200.113 26.5451 200.481 26.453C200.849 26.361 201.218 26.2781 201.586 26.2044V9.8232C201.107 9.73112 200.684 9.62983 200.315 9.51934C199.947 9.39042 199.615 9.26151 199.321 9.1326V8.33149H201.752C202.488 8.33149 203.29 8.29466 204.155 8.22099C205.039 8.14733 205.895 8.1105 206.724 8.1105C207.627 8.1105 208.464 8.21179 209.238 8.41436C210.03 8.61694 210.711 8.93923 211.282 9.38121C211.853 9.8232 212.295 10.3849 212.608 11.0663C212.94 11.7477 213.105 12.5672 213.105 13.5249C213.105 14.8692 212.746 15.9834 212.028 16.8674C211.328 17.7514 210.371 18.3867 209.155 18.7735C209.947 20.0258 210.776 21.2689 211.641 22.5028C212.507 23.7366 213.409 24.9613 214.348 26.1768L215.84 26.9779V27.6685H212.498L211.448 26.895C210.932 26.2505 210.463 25.6243 210.039 25.0166C209.615 24.3904 209.22 23.7643 208.851 23.1381C208.483 22.4936 208.133 21.849 207.801 21.2044C207.488 20.5414 207.166 19.8416 206.835 19.105H204.238V26.2044ZM206.116 9.54696C205.674 9.54696 205.306 9.55617 205.011 9.57459C204.735 9.593 204.477 9.62983 204.238 9.68508V17.9448H206.227C207.498 17.9448 208.501 17.5396 209.238 16.7293C209.993 15.919 210.371 14.8508 210.371 13.5249C210.371 12.1621 209.975 11.1584 209.183 10.5138C208.391 9.86924 207.369 9.54696 206.116 9.54696Z" fill="#1A2535"/>
</svg>
