<svg width="24" height="16" viewBox="0 0 24 16" fill="none" xmlns="http://www.w3.org/2000/svg">
<path fill-rule="evenodd" clip-rule="evenodd" d="M15.1961 0.55129C15.444 0.291616 15.8554 0.282047 16.1151 0.529918L23.4484 7.52992C23.5769 7.65257 23.6496 7.82246 23.6496 8.0001C23.6496 8.17773 23.5769 8.34763 23.4484 8.47028L16.1151 15.4703C15.8554 15.7182 15.444 15.7086 15.1961 15.4489C14.9482 15.1892 14.9578 14.7778 15.2175 14.5299L21.3773 8.6501H0.999609C0.640624 8.6501 0.349609 8.35908 0.349609 8.0001C0.349609 7.64111 0.640624 7.3501 0.999609 7.3501H21.3773L15.2175 1.47028C14.9578 1.22241 14.9482 0.810963 15.1961 0.55129Z" fill="#D4DCE4"/>
</svg>
