<svg width="48" height="48" viewBox="0 0 48 48" fill="none" xmlns="http://www.w3.org/2000/svg">
<circle cx="24" cy="24" r="24" fill="#63B5C0"/>
<g clip-path="url(#clip0)">
<path d="M37.3862 21.8224C37.2762 21.6649 37.138 21.5436 36.9702 21.4575C36.9521 21.4484 36.8501 21.4099 36.8308 21.4031L24.7631 16.9332C24.7314 16.9219 24.6996 16.9128 24.6668 16.9071C24.2134 16.7643 23.7884 16.7643 23.3363 16.9071C23.3045 16.9117 23.2716 16.9207 23.2388 16.9332L11.1802 21.3986C11.1507 21.4088 11.0521 21.4473 11.0249 21.461C10.8617 21.5448 10.7223 21.6672 10.6226 21.8112C10.609 21.8293 10.5682 21.8916 10.5568 21.912C10.4526 22.0922 10.4004 22.2792 10.4004 22.4673C10.4004 22.6554 10.4526 22.8425 10.61 23.1077C10.72 23.2664 10.8594 23.3899 11.0293 23.4771C11.0475 23.4862 11.1495 23.5247 11.1687 23.5315L16.067 25.346V28.7006C16.067 30.5604 20.0575 31.5339 24.0004 31.5339C27.9432 31.5339 31.9337 30.5604 31.9337 28.7006V25.3448L34.2003 24.505V28.5635L33.1248 30.7145C32.9854 30.9945 33.0987 31.3344 33.3787 31.475C33.6586 31.6132 33.9986 31.501 34.1391 31.2211L34.7659 29.9688L35.3926 31.2211C35.4924 31.4195 35.6918 31.5339 35.9003 31.5339C35.9865 31.5339 36.0726 31.5147 36.1519 31.475C36.4319 31.3344 36.5463 30.9944 36.4058 30.7145L35.3337 28.5703V24.1673C35.3337 24.1401 35.3223 24.1175 35.3178 24.0913L36.8195 23.5349C36.8489 23.5247 36.9475 23.4862 36.9747 23.4725C37.1391 23.3887 37.2785 23.2651 37.3793 23.1189L36.9249 22.7812L37.4439 23.0226C37.5482 22.8424 37.6003 22.6554 37.6003 22.4673H37.6004C37.6003 22.2791 37.5482 22.0921 37.3862 21.8224ZM24.0004 30.4006C19.7821 30.4006 17.2004 29.3002 17.2004 28.7006C17.2004 28.101 19.7821 27.0006 24.0004 27.0006C28.2187 27.0006 30.8004 28.101 30.8004 28.7006C30.8004 29.3002 28.2186 30.4006 24.0004 30.4006ZM30.8004 27.1797C27.882 25.4911 20.1187 25.4911 17.2004 27.1797V24.1673C17.2004 23.5677 19.7821 22.4673 24.0004 22.4673C28.2187 22.4673 30.8004 23.5677 30.8004 24.1673V27.1797ZM31.9292 24.1378C31.8419 20.459 16.1577 20.459 16.0705 24.1378L11.5621 22.465L23.5527 18.0246C23.5765 18.019 23.6003 18.0122 23.6241 18.0042C23.8927 17.909 24.1046 17.909 24.3732 18.0042C24.3959 18.0121 24.4197 18.019 24.4435 18.0235L36.4353 22.4684L31.9292 24.1378Z" fill="white"/>
<path fill-rule="evenodd" clip-rule="evenodd" d="M23.9996 22.1673C21.8661 22.1673 20.1367 22.4454 18.932 22.805C18.3313 22.9843 17.8505 23.187 17.5129 23.3925C17.3449 23.4948 17.2012 23.6045 17.096 23.7213C16.9949 23.8335 16.8997 23.9855 16.8997 24.1673V27.6999L17.3499 27.4394C18.0362 27.0423 19.0297 26.7335 20.1981 26.5252C21.3618 26.3177 22.6791 26.2132 23.9996 26.2132C25.3201 26.2132 26.6374 26.3177 27.8012 26.5252C28.9696 26.7335 29.9631 27.0423 30.6494 27.4394L31.0996 27.6999V24.1673C31.0996 23.9855 31.0044 23.8335 30.9033 23.7213C30.7981 23.6045 30.6544 23.4948 30.4863 23.3925C30.1488 23.187 29.668 22.9843 29.0673 22.805C27.8626 22.4454 26.1332 22.1673 23.9996 22.1673ZM17.4997 24.1802V26.6882C18.2161 26.3585 19.1116 26.1095 20.0928 25.9345C21.2966 25.7199 22.6497 25.6132 23.9996 25.6132C25.3495 25.6132 26.7026 25.7199 27.9065 25.9345C28.8876 26.1095 29.7831 26.3585 30.4996 26.6882V24.1802C30.496 24.1727 30.4854 24.1538 30.4576 24.123C30.4052 24.0648 30.3142 23.9902 30.1743 23.905C29.8959 23.7355 29.4677 23.5507 28.8957 23.3799C27.755 23.0394 26.0844 22.7673 23.9996 22.7673C21.9149 22.7673 20.2443 23.0394 19.1036 23.3799C18.5316 23.5507 18.1033 23.7355 17.825 23.905C17.6851 23.9902 17.5941 24.0648 17.5417 24.123C17.5139 24.1538 17.5033 24.1727 17.4997 24.1802Z" fill="white"/>
<path fill-rule="evenodd" clip-rule="evenodd" d="M24.8636 16.6508C24.8255 16.6372 24.7839 16.6247 24.7388 16.6156C24.24 16.4619 23.7635 16.4615 23.2657 16.6147C23.2187 16.6234 23.1741 16.6367 23.1328 16.6523L23.1314 16.6528L11.0776 21.1164C11.0407 21.1294 10.9332 21.1709 10.8893 21.193L10.8871 21.1941C10.6822 21.2994 10.5058 21.4532 10.3776 21.6369C10.3554 21.6675 10.3137 21.7313 10.2957 21.763C10.1679 21.9842 10.0996 22.2222 10.0996 22.4673C10.0996 22.7242 10.175 22.964 10.3513 23.2608L10.3567 23.2699L10.3627 23.2786C10.4999 23.4766 10.6765 23.6336 10.8916 23.744L10.8944 23.7454C10.9194 23.7579 10.9657 23.7758 10.9887 23.7846L10.9901 23.7852C11.0187 23.7962 11.0503 23.808 11.0654 23.8134L15.7662 25.5548V28.7006C15.7662 29.2862 16.0838 29.7734 16.5626 30.1611C17.0388 30.5467 17.7 30.8569 18.4631 31.1005C19.9921 31.5887 22.0084 31.8339 23.9996 31.8339C25.9908 31.8339 28.007 31.5886 29.5361 31.1005C30.2992 30.8568 30.9603 30.5467 31.4366 30.1611C31.9153 29.7734 32.2329 29.2862 32.2329 28.7006V25.5536L33.8996 24.9361V28.4927L32.8554 30.5808C32.6423 31.0089 32.8158 31.5285 33.2433 31.7431L33.2451 31.744C33.6718 31.9547 34.1915 31.7838 34.4066 31.3554L34.7651 30.6391L35.1238 31.3559C35.2764 31.6593 35.5819 31.8339 35.8996 31.8339C36.0304 31.8339 36.1631 31.8044 36.2858 31.7431C36.7124 31.5289 36.8887 31.0094 36.6732 30.5799L35.6329 28.4995V24.2942L36.9205 23.8171C36.9575 23.804 37.0648 23.7626 37.1085 23.7407L37.1103 23.7398C37.2769 23.6548 37.4234 23.5378 37.5413 23.3991L37.5654 23.4103L37.6872 23.1999L37.79 23.0509L37.7725 23.038C37.8128 22.9498 37.8438 22.8594 37.8651 22.7673H37.8997L37.8996 22.4672C37.8995 22.2096 37.8237 21.9694 37.6426 21.6679L37.6373 21.6592L37.6314 21.6507C37.494 21.4538 37.3186 21.2995 37.1065 21.1906L37.1039 21.1893C37.0788 21.1767 37.0323 21.1588 37.0094 21.15L37.0079 21.1494C36.9794 21.1384 36.9477 21.1265 36.9324 21.1211L36.9298 21.1201L24.8666 16.6519L24.8636 16.6508ZM37.2996 22.4673C37.2996 22.5168 37.2944 22.5669 37.2837 22.6176L37.022 22.5707L37.0117 22.5745L36.7451 23.022L36.9235 23.1545C36.8969 23.1726 36.8691 23.1891 36.8403 23.2039C36.8403 23.2039 36.8352 23.2063 36.8261 23.2101C36.8149 23.2148 36.8011 23.2204 36.7864 23.2262C36.7553 23.2386 36.7285 23.2486 36.7206 23.2513L34.979 23.8967L35.0214 24.1424C35.0249 24.1623 35.0291 24.1788 35.0321 24.1895L35.0329 24.1926V28.6411L36.1369 30.8491C36.2023 30.9794 36.15 31.1396 36.017 31.2067C35.9809 31.2247 35.9409 31.2339 35.8996 31.2339C35.8002 31.2339 35.7068 31.1797 35.6599 31.0863L34.7651 29.2985L33.8703 31.0865C33.8044 31.2176 33.6447 31.2716 33.5116 31.2065C33.38 31.1398 33.3273 30.9797 33.3926 30.8483L34.4996 28.6343V24.074L31.6329 25.1361V28.7006C31.6329 29.0449 31.4517 29.3768 31.059 29.6948C30.6638 30.0147 30.0809 30.2967 29.3536 30.5289C27.9017 30.9924 25.9513 31.2339 23.9996 31.2339C22.0479 31.2339 20.0975 30.9925 18.6456 30.5289C17.9182 30.2967 17.3353 30.0148 16.9401 29.6948C16.5475 29.3768 16.3662 29.045 16.3662 28.7006V25.1372L11.2722 23.2502L11.2675 23.2485L11.266 23.248L11.2611 23.2462L11.246 23.2405L11.2056 23.2252C11.1912 23.2197 11.1777 23.2144 11.1672 23.2102L11.1586 23.2066C11.0398 23.1443 10.9417 23.0581 10.8616 22.9451C10.7277 22.7173 10.6996 22.5851 10.6996 22.4673L10.6996 22.4653L16.3596 24.5654L16.3696 24.1449C16.3777 23.8043 16.5638 23.4774 16.9583 23.1663C17.3553 22.8533 17.9366 22.5795 18.661 22.3551C20.1069 21.907 22.046 21.6787 23.9991 21.6787C25.9521 21.6787 27.8912 21.907 29.3372 22.3551C30.0615 22.5795 30.6428 22.8533 31.0398 23.1663C31.4344 23.4774 31.6204 23.8043 31.6285 24.1449L31.6385 24.5652L37.0117 22.5745L37.0506 22.5092L37.1115 22.5375L37.2979 22.4684L24.5231 17.7333L24.498 17.7286C24.4928 17.7276 24.484 17.7254 24.4719 17.7212L24.4727 17.7215L24.3725 18.0042L24.4719 17.7212C24.1397 17.6036 23.8579 17.6034 23.5259 17.7205C23.5113 17.7253 23.4969 17.7294 23.4828 17.7327L23.4649 17.7369L10.6996 22.4642C10.7002 22.3346 10.7361 22.2 10.8157 22.0623L10.8176 22.059L10.8234 22.0496C10.8279 22.0425 10.8334 22.0338 10.8393 22.0248C10.8452 22.0158 10.8509 22.0072 10.8556 22.0002L10.8621 21.9908L10.8652 21.9867L10.8684 21.982C10.9389 21.8803 11.0392 21.7911 11.1581 21.7295C11.1581 21.7295 11.1634 21.727 11.1721 21.7234C11.1832 21.7187 11.197 21.7131 11.2117 21.7073C11.2427 21.6949 11.2695 21.6849 11.2775 21.6822L23.3422 17.2146L23.3447 17.2137C23.3608 17.2075 23.3722 17.205 23.3782 17.2041L23.4025 17.2006L23.4258 17.1932C23.8191 17.069 24.1811 17.069 24.5759 17.1933L24.5951 17.1993L24.6149 17.2028C24.6267 17.2048 24.6411 17.2085 24.6598 17.2152L24.6611 17.2156L36.7258 21.6844L36.7303 21.686L36.7322 21.6867L36.7371 21.6885L36.7521 21.6941L36.7924 21.7094C36.8068 21.7149 36.8203 21.7202 36.8307 21.7244L36.8393 21.7279C36.9568 21.7896 37.0539 21.8741 37.1337 21.9861C37.2686 22.2128 37.2982 22.3438 37.2996 22.4589V22.4673ZM24.2722 18.287C24.0685 18.2148 23.9273 18.2148 23.7235 18.287L23.7186 18.2888C23.6927 18.2974 23.6666 18.3051 23.6402 18.3118L12.4244 22.4653L15.8315 23.7295C15.9485 23.327 16.2224 22.9825 16.5868 22.6952C17.0647 22.3184 17.7237 22.0174 18.4834 21.782C20.0055 21.3103 22.0092 21.0787 23.9991 21.0787C25.9889 21.0787 27.9926 21.3103 29.5147 21.782C30.2745 22.0174 30.9334 22.3184 31.4113 22.6952C31.7757 22.9825 32.0497 23.3271 32.1666 23.7297L35.5712 22.4683L24.359 18.3124C24.3278 18.3052 24.299 18.2963 24.2736 18.2875L24.2722 18.287Z" fill="white"/>
<path fill-rule="evenodd" clip-rule="evenodd" d="M23.9996 26.7006C21.8661 26.7006 20.1367 26.9787 18.932 27.3383C18.3313 27.5176 17.8505 27.7203 17.5129 27.9258C17.3449 28.0281 17.2012 28.1378 17.096 28.2546C16.9949 28.3668 16.8997 28.5188 16.8997 28.7006C16.8997 28.8824 16.9949 29.0345 17.096 29.1467C17.2012 29.2634 17.3449 29.3731 17.5129 29.4754C17.8505 29.6809 18.3313 29.8836 18.932 30.0629C20.1367 30.4225 21.8661 30.7006 23.9996 30.7006C26.1331 30.7006 27.8626 30.4225 29.0673 30.0629C29.668 29.8836 30.1488 29.6809 30.4863 29.4754C30.6544 29.3731 30.798 29.2634 30.9033 29.1467C31.0044 29.0345 31.0996 28.8824 31.0996 28.7006C31.0996 28.5188 31.0044 28.3668 30.9033 28.2546C30.7981 28.1378 30.6544 28.0281 30.4863 27.9258C30.1488 27.7203 29.668 27.5176 29.0673 27.3383C27.8626 26.9787 26.1332 26.7006 23.9996 26.7006ZM17.507 28.7006C17.5134 28.7107 17.5241 28.7255 17.5417 28.745C17.5941 28.8031 17.6851 28.8778 17.825 28.9629C18.1033 29.1324 18.5316 29.3173 19.1036 29.488C20.2443 29.8285 21.9149 30.1006 23.9996 30.1006C26.0844 30.1006 27.7549 29.8285 28.8957 29.488C29.4677 29.3173 29.8959 29.1324 30.1743 28.9629C30.3142 28.8778 30.4052 28.8031 30.4576 28.745C30.4752 28.7255 30.4859 28.7107 30.4923 28.7006C30.4859 28.6905 30.4752 28.6758 30.4576 28.6563C30.4052 28.5981 30.3142 28.5235 30.1743 28.4383C29.8959 28.2688 29.4677 28.084 28.8957 27.9133C27.755 27.5727 26.0844 27.3006 23.9996 27.3006C21.9149 27.3006 20.2443 27.5727 19.1036 27.9133C18.5316 28.084 18.1033 28.2688 17.825 28.4383C17.6851 28.5235 17.5941 28.5981 17.5417 28.6563C17.5241 28.6758 17.5134 28.6905 17.507 28.7006Z" fill="white"/>
</g>
<defs>
<clipPath id="clip0">
<rect width="28.8" height="28.8" fill="white" transform="translate(9.59961 9.60001)"/>
</clipPath>
</defs>
</svg>
