<svg width="48" height="48" viewBox="0 0 48 48" fill="none" xmlns="http://www.w3.org/2000/svg">
<circle cx="24" cy="24" r="24" fill="#63B5C0"/>
<g clip-path="url(#clip0)">
<g clip-path="url(#clip1)">
<path d="M33.3759 36.4224H32.1724V33.8967C32.1668 31.7269 31.2458 29.6363 29.6467 28.1728L25.4315 24.3193L29.7315 20.1719C31.2288 18.7197 32.099 16.6856 32.1046 14.6006V11.5776H33.3759C33.924 11.5776 34.3648 11.1369 34.3648 10.5888C34.3648 10.0464 33.924 9.60001 33.3759 9.60001H14.5884C14.0403 9.60001 13.5996 10.0464 13.5996 10.5888C13.5996 11.1313 14.0403 11.5776 14.5884 11.5776H15.8654V14.6006C15.8767 16.6856 16.7412 18.7197 18.2386 20.1719L22.5385 24.3306L18.4363 28.1898C16.8938 29.6476 16.0067 31.71 16.0067 33.8401V36.4224H14.5884C14.046 36.4224 13.5996 36.8631 13.5996 37.4112C13.5996 37.9536 14.0403 38.4 14.5884 38.4H33.3759C33.924 38.4 34.3648 37.9593 34.3648 37.4112C34.3648 36.8631 33.924 36.4224 33.3759 36.4224ZM19.7981 29.625L23.9963 25.681L28.3132 29.625C29.5054 30.7155 30.1948 32.275 30.1948 33.891V36.4167H17.9843V33.8401C17.9843 32.2524 18.6454 30.7155 19.7981 29.625ZM19.6173 18.748C18.4985 17.6631 17.8543 16.1488 17.843 14.5949V11.5776H30.1213V14.5949C30.11 16.1488 29.4659 17.6631 28.3471 18.748L23.9794 22.9632L19.6173 18.748Z" fill="white"/>
</g>
</g>
<defs>
<clipPath id="clip0">
<rect width="28.8" height="28.8" fill="white" transform="translate(9.59961 9.60001)"/>
</clipPath>
<clipPath id="clip1">
<rect width="20.7652" height="28.8" fill="white" transform="translate(13.5996 9.60001)"/>
</clipPath>
</defs>
</svg>
