<svg width="48" height="48" viewBox="0 0 48 48" fill="none" xmlns="http://www.w3.org/2000/svg">
<circle cx="24" cy="24" r="24" fill="#63B5C0"/>
<g clip-path="url(#clip0)">
<g clip-path="url(#clip1)">
<path d="M33.8812 32.3999H20.0811C18.2607 32.3999 16.7812 30.9205 16.7812 29.1001V12.9001C16.7812 11.0796 18.2607 9.60001 20.0811 9.60001H30.2907C31.4752 9.60001 32.6356 10.0801 33.4719 10.9188L35.8623 13.3092C36.7131 14.16 37.1811 15.2905 37.1811 16.4915V29.1001C37.1811 30.9205 35.7017 32.3999 33.8812 32.3999V32.3999ZM20.0811 11.4C19.2543 11.4 18.5812 12.0732 18.5812 12.9001V29.1001C18.5812 29.9269 19.2543 30.5999 20.0811 30.5999H33.8812C34.7081 30.5999 35.3811 29.9269 35.3811 29.1001V16.4915C35.3811 15.7704 35.1003 15.0925 34.5903 14.5823L32.1999 12.1919C31.6972 11.6881 31.0024 11.4 30.2907 11.4H20.0811Z" fill="white"/>
<path d="M28.4813 38.4H14.0813C12.2609 38.4 10.7812 36.9204 10.7812 35.0999V15.9C10.7812 14.0796 12.2609 12.5999 14.0813 12.5999H14.6812C15.178 12.5999 15.5812 13.0031 15.5812 13.4999C15.5812 13.9967 15.178 14.3999 14.6812 14.3999H14.0813C13.2545 14.3999 12.5813 15.0732 12.5813 15.9V35.0999C12.5813 35.9268 13.2545 36.6 14.0813 36.6H28.4813C29.3082 36.6 29.9812 35.9268 29.9812 35.0999V34.5001C29.9812 34.0033 30.3844 33.6001 30.8812 33.6001C31.378 33.6001 31.7812 34.0033 31.7812 34.5001V35.0999C31.7812 36.9204 30.3018 38.4 28.4813 38.4Z" fill="white"/>
<path d="M31.4801 19.7999H22.4801C21.9833 19.7999 21.5801 19.3967 21.5801 18.8999C21.5801 18.4031 21.9833 17.9999 22.4801 17.9999H31.4801C31.9769 17.9999 32.3801 18.4031 32.3801 18.8999C32.3801 19.3967 31.9769 19.7999 31.4801 19.7999Z" fill="white"/>
<path d="M31.4801 23.3999H22.4801C21.9833 23.3999 21.5801 22.9967 21.5801 22.4999C21.5801 22.0031 21.9833 21.5999 22.4801 21.5999H31.4801C31.9769 21.5999 32.3801 22.0031 32.3801 22.4999C32.3801 22.9967 31.9769 23.3999 31.4801 23.3999Z" fill="white"/>
<path d="M31.4801 27H22.4801C21.9833 27 21.5801 26.5968 21.5801 26.1C21.5801 25.6031 21.9833 25.2 22.4801 25.2H31.4801C31.9769 25.2 32.3801 25.6031 32.3801 26.1C32.3801 26.5968 31.9769 27 31.4801 27Z" fill="white"/>
</g>
</g>
<defs>
<clipPath id="clip0">
<rect width="28.8" height="28.8" fill="white" transform="translate(9.59961 9.60001)"/>
</clipPath>
<clipPath id="clip1">
<rect width="28.8" height="28.8" fill="white" transform="translate(9.59961 9.60001)"/>
</clipPath>
</defs>
</svg>
