<svg width="112" height="114" viewBox="0 0 112 114" fill="none" xmlns="http://www.w3.org/2000/svg">
<path d="M65.7583 54.8553H74.5062V104.757C74.5062 105.904 74.047 107.027 73.2204 107.83C72.3938 108.656 71.2917 109.114 70.1207 109.114C68.9727 109.114 67.8477 108.656 67.0211 107.83C66.1945 107.005 65.7354 105.904 65.7354 104.757V54.8553H65.7583Z" fill="#D4DCE4"/>
<path d="M47.459 12.1085C49.9846 12.1085 52.4643 12.613 54.8063 13.5762C57.1253 14.5394 59.2606 15.9383 61.0286 17.727C62.8195 19.5158 64.22 21.6256 65.1844 23.9418C66.1487 26.2581 66.6539 28.7577 66.6539 31.2574V51.1631C66.6539 52.1492 66.2635 53.0895 65.5747 53.7775C64.8859 54.4654 63.9445 54.8553 62.9572 54.8553H31.9837C30.9965 54.8553 30.055 54.4654 29.3662 53.7775C28.6774 53.0895 28.2871 52.1492 28.2871 51.1631V31.2574C28.2871 26.1892 30.3076 21.3046 33.9124 17.727C37.4942 14.1266 42.3618 12.1085 47.459 12.1085Z" fill="#FFCE8A"/>
<path d="M92.8047 12.1085H47.458C49.9836 12.1085 52.4634 12.613 54.8053 13.5762C57.1243 14.5394 59.2596 15.9383 61.0276 17.727C62.8185 19.5158 64.219 21.6256 65.1834 23.9418C66.1477 26.2581 66.6529 28.7577 66.6529 31.2574V48.5029V51.1631C66.6529 52.1492 66.2626 53.0895 65.5737 53.7775C64.8849 54.4654 63.9435 54.8553 62.9562 54.8553H108.303C108.785 54.8553 109.267 54.7636 109.726 54.5801C110.186 54.3966 110.576 54.1215 110.92 53.7775C111.265 53.4335 111.54 53.0206 111.724 52.5849C111.908 52.1263 112 51.6447 112 51.1631V31.2574C112 26.1892 109.979 21.3046 106.374 17.727C102.792 14.1266 97.9019 12.1085 92.8047 12.1085Z" fill="#FFAD3D"/>
<path d="M47.4585 15.4567C51.7521 15.4567 55.862 17.1537 58.8928 20.1808C61.9235 23.208 63.6226 27.3129 63.6226 31.6013V48.3653C63.6226 48.778 63.5308 49.1908 63.393 49.5578C63.2323 49.9476 63.0027 50.2916 62.7042 50.5668C62.4057 50.865 62.0613 51.0943 61.6939 51.2319C61.3036 51.3924 60.9133 51.4612 60.5 51.4612H34.3941C33.9808 51.4612 33.5676 51.3695 33.2002 51.2319C32.8099 51.0713 32.4654 50.842 32.1899 50.5668C31.8914 50.2687 31.6618 49.9247 31.5011 49.5578C31.3404 49.1679 31.2715 48.778 31.2715 48.3653V31.6013C31.2715 27.3129 32.9706 23.2079 36.0013 20.2037C39.0321 17.1995 43.1649 15.4567 47.4585 15.4567Z" fill="#806745"/>
<path d="M79.0531 33.4819C81.6935 33.4819 83.8289 31.3491 83.8289 28.7119C83.8289 26.0746 81.6935 23.9418 79.0531 23.9418C76.4127 23.9418 74.2773 26.0746 74.2773 28.7119C74.2773 31.3491 76.4127 33.4819 79.0531 33.4819Z" fill="#D4DCE4"/>
<path d="M85.9402 0H79.0521C78.5929 0 78.1566 0.183451 77.8352 0.504511C77.5137 0.82557 77.3301 1.2613 77.3301 1.71996V28.7348C77.3301 29.1934 77.5137 29.6292 77.8352 29.9502C78.1566 30.2713 78.5929 30.4547 79.0521 30.4547C79.5113 30.4547 79.9476 30.2713 80.269 29.9502C80.5905 29.6292 80.7741 29.1934 80.7741 28.7348V6.00839C80.7741 5.89372 80.82 5.75609 80.9119 5.68729C81.0037 5.59556 81.1185 5.54973 81.2333 5.54973H85.9402C86.3994 5.54973 86.8357 5.36625 87.1571 5.06812C87.4786 4.74706 87.6622 4.33428 87.6622 3.87562V1.74286C87.6622 1.2842 87.4786 0.848469 87.1571 0.52741C86.8357 0.183418 86.3994 0 85.9402 0Z" fill="#00C189"/>
<path d="M62.8424 51.4842H1.63021C0.734753 51.4842 0 52.218 0 53.1124V53.2041C0 54.0985 0.734753 54.8323 1.63021 54.8323H62.8424C63.7379 54.8323 64.4726 54.0985 64.4726 53.2041V53.1124C64.4726 52.218 63.7608 51.4842 62.8424 51.4842Z" fill="#FFCE8A"/>
<path d="M31.8447 31.6473C31.6151 31.4409 31.3167 31.3262 30.9952 31.3262C30.6738 31.3262 30.3753 31.4409 30.1457 31.6473L11.6396 47.0123C11.8004 47.1957 12.007 47.3562 12.2137 47.4709C12.4433 47.5856 12.6958 47.6314 12.9254 47.6314H48.9732C49.2257 47.6314 49.4783 47.5626 49.6849 47.4709C49.9145 47.3562 50.0982 47.2186 50.2589 47.0123L31.8447 31.6473Z" fill="#D4DCE4"/>
<path d="M50.1933 22.4512L50.1016 22.3595L50.1933 22.4512Z" fill="white"/>
<path d="M30.147 36.7842C30.3996 36.9676 30.6981 37.0594 30.9966 37.0594C31.295 37.0594 31.5935 36.9676 31.8461 36.7842L50.1914 22.4282C50.1684 22.4053 50.1225 22.3594 50.0995 22.3365C50.0077 22.2677 49.9159 22.2219 49.824 22.176C49.8699 22.176 49.9159 22.2219 49.9618 22.2448C49.7092 22.0843 49.4107 22.0155 49.1122 22.0155H13.0186C12.5824 22.0155 12.1691 22.153 11.8477 22.4512L30.147 36.7842Z" fill="white"/>
<path d="M27.024 34.3533L11.8012 22.4512C11.7553 22.4971 11.7094 22.543 11.6635 22.5888C11.388 22.9328 11.2273 23.3685 11.2502 23.8042V45.7968C11.2502 46.2555 11.4109 46.6912 11.7094 47.0352L27.024 34.3533Z" fill="#F9F9F9"/>
<path d="M50.0771 47.2645L50.0303 47.3113L50.0771 47.2645Z" fill="#F9F9F9"/>
<path d="M50.0525 47.2874C49.9608 47.3562 49.8691 47.425 49.7773 47.4709C49.8691 47.425 49.9608 47.3562 50.0525 47.2874Z" fill="#F9F9F9"/>
<path d="M50.192 22.4512L34.9922 34.3304L50.3527 47.0123C50.2838 47.104 50.1919 47.1728 50.1001 47.2416C50.3067 47.0581 50.4904 46.8288 50.6052 46.5765C50.72 46.3243 50.7889 46.0491 50.7889 45.751V23.7813C50.7889 23.5291 50.743 23.2768 50.6282 23.0475C50.5364 22.8181 50.3757 22.6117 50.192 22.4512Z" fill="#F9F9F9"/>
<path d="M50.329 22.5888C50.2831 22.543 50.2373 22.4971 50.1914 22.4512C50.2373 22.4971 50.2831 22.543 50.329 22.5888Z" fill="#F9F9F9"/>
<path d="M68.7033 96.3407C68.0145 94.2539 67.0961 92.2358 65.994 90.3324C64.9838 88.6583 64.0424 87.3511 63.3076 86.2503C62.5729 85.1725 61.953 84.2551 61.4938 83.5442C61.0116 82.8333 60.6443 82.3288 60.2539 82.26C59.8636 82.2142 59.3355 82.604 58.8533 83.5213C58.2564 84.8056 57.9579 86.2274 58.0038 87.6492C58.0497 89.5527 58.3023 91.4331 58.8074 93.2678C59.2437 95.1253 59.7947 97.0517 60.4606 99.0698C61.1035 100.973 61.8152 102.854 62.6418 104.688C63.3995 106.362 64.2031 107.991 64.8919 109.183L66.568 112.164C67.0043 112.921 67.3257 113.426 67.6242 113.472C67.9227 113.517 68.4967 113.128 69.0018 112.233C69.6447 111.018 70.0121 109.665 70.1269 108.312C70.3106 106.477 70.3106 104.62 70.1269 102.785C69.8743 100.606 69.3921 98.4276 68.7033 96.3407Z" fill="#3DCCA4"/>
<path d="M78.6213 94.1162C79.7004 91.6395 80.9862 89.071 81.9964 86.4337C82.9608 84.0029 83.5348 81.4344 83.6725 78.8201C83.7874 76.9854 83.4659 75.1508 82.7541 73.4537C82.2031 72.2612 81.5831 71.7797 81.2157 71.8255C80.8484 71.8714 80.527 72.5823 80.1137 73.6143C79.5856 74.9674 78.9886 76.2974 78.2998 77.5816C77.4732 79.164 76.3711 80.9528 75.0165 83.0168C73.3633 85.4247 71.9168 87.9702 70.677 90.6075C69.4142 93.4512 68.5876 96.4783 68.2202 99.5971C67.9217 102.12 67.9447 104.665 68.2891 107.165C68.932 111.43 70.3096 113.838 70.8377 113.793C71.5724 113.747 72.399 111.224 73.5929 107.578C75.0394 102.991 76.7156 98.4964 78.6213 94.1162Z" fill="#02C189"/>
<path d="M81.7893 103.175C82.0878 102.922 82.3404 102.647 82.6618 102.418C82.9603 102.166 83.2129 101.913 83.5343 101.707C83.6721 101.592 83.8328 101.478 83.9705 101.363C84.1083 101.248 84.269 101.157 84.4068 101.065L84.843 100.744L85.3481 100.423C86.0599 99.987 86.9554 99.5054 87.8279 98.8633C88.7463 98.2441 89.5269 97.4644 90.1698 96.57C90.652 95.9279 90.9964 95.194 91.1801 94.3914C91.3638 93.6117 91.3638 92.7861 91.226 92.0064C90.9505 90.9515 90.4224 90.4928 90.055 90.4928C89.6877 90.4928 89.2285 90.9285 88.6315 91.4101C87.9886 91.9605 87.2309 92.3504 86.4043 92.5339C85.6007 92.6944 84.5216 92.7173 82.4552 93.1759C82.2026 93.2218 81.9271 93.3136 81.6516 93.3824C81.376 93.4741 81.1005 93.5888 80.7791 93.6805C80.4806 93.7952 80.228 93.9098 79.9066 94.0245L79.057 94.4602C78.4601 94.7583 77.909 95.1023 77.358 95.4922C76.8069 95.882 76.3018 96.3178 75.7967 96.7764C73.9599 98.4964 72.5593 100.652 71.7327 103.06C71.0669 104.963 70.8373 106.981 71.0439 109C71.1128 109.756 71.2735 110.513 71.5031 111.247C71.6868 111.797 71.9393 112.325 72.2148 112.829C72.7429 113.655 73.2021 114.022 73.4777 113.999C74.2354 113.907 74.9471 112.073 76.3018 109.94C77.8172 107.44 79.654 105.17 81.7893 103.175Z" fill="#018F66"/>
</svg>
