<svg width="48" height="48" viewBox="0 0 48 48" fill="none" xmlns="http://www.w3.org/2000/svg">
<circle cx="24" cy="24" r="24" fill="#F7F7F7"/>
<g clip-path="url(#clip0)">
<g clip-path="url(#clip1)">
<path d="M38.2789 32.5536L33.0553 23.4852C33.5953 22.263 33.8995 20.9166 33.8995 19.5C33.8995 14.0406 29.4589 9.59998 23.9995 9.59998C18.5401 9.59998 14.0995 14.0406 14.0995 19.5C14.0995 20.9166 14.4037 22.263 14.9437 23.4834L9.72013 32.55C9.53833 32.8668 9.56353 33.261 9.78673 33.549C10.0099 33.837 10.3825 33.9666 10.7335 33.8694L16.0183 32.4474L17.4241 37.7304C17.5177 38.0832 17.8147 38.3442 18.1747 38.391C18.2161 38.3982 18.2557 38.4 18.2935 38.4C18.6121 38.4 18.9109 38.2308 19.0729 37.95L23.9995 29.4216L28.9261 37.95C29.0881 38.2308 29.3869 38.4 29.7055 38.4C29.7433 38.4 29.7847 38.3982 29.8243 38.3928C30.1843 38.346 30.4813 38.085 30.5749 37.7322L31.9807 32.4492L37.2655 33.8712C37.6165 33.9684 37.9909 33.8388 38.2123 33.5508C38.4337 33.2628 38.4607 32.8686 38.2789 32.5536ZM18.6031 35.1654L17.5249 31.1136C17.4637 30.8832 17.3125 30.6852 17.1055 30.5646C16.8985 30.4458 16.6501 30.4152 16.4215 30.4746L12.3643 31.5654L15.9823 25.2852C17.4169 27.2688 19.5607 28.7052 22.0465 29.2056L18.6031 35.1654ZM15.8995 19.5C15.8995 15.0342 19.5337 11.4 23.9995 11.4C28.4653 11.4 32.0995 15.0342 32.0995 19.5C32.0995 23.9658 28.4653 27.6 23.9995 27.6C19.5337 27.6 15.8995 23.9658 15.8995 19.5ZM31.5775 30.4764C31.3471 30.4152 31.1005 30.4476 30.8935 30.5664C30.6865 30.6852 30.5353 30.8832 30.4741 31.1154L29.3959 35.1672L25.9525 29.2074C28.4365 28.7088 30.5821 27.2706 32.0167 25.287L35.6347 31.5672L31.5775 30.4764Z" fill="#022741"/>
<path d="M29.3523 17.2536C29.2569 16.9638 29.0211 16.7442 28.7259 16.6668L26.1735 15.999L24.7731 13.641C24.4491 13.0938 23.5491 13.0938 23.2269 13.641L21.8265 15.999L19.2723 16.6668C18.9753 16.7442 18.7413 16.9638 18.6441 17.2536C18.5469 17.5434 18.6045 17.8602 18.7953 18.0996L20.5071 20.2416L20.3199 23.0406C20.3001 23.352 20.4423 23.6526 20.6979 23.8344C20.9535 24.0162 21.2847 24.0504 21.5709 23.928L23.9991 22.8966L26.4273 23.928C26.5407 23.9766 26.6613 24 26.7801 24C26.9637 24 27.1473 23.9442 27.3021 23.8344C27.5577 23.6526 27.6999 23.352 27.6783 23.0406L27.4911 20.2416L29.2011 18.0996C29.3919 17.862 29.4477 17.5434 29.3523 17.2536ZM25.8675 19.392C25.7271 19.5684 25.6569 19.7898 25.6731 20.013L25.7865 21.6996L24.3519 21.0894C24.2385 21.0408 24.1179 21.0174 23.9991 21.0174C23.8803 21.0174 23.7597 21.0408 23.6463 21.0894L22.2135 21.6996L22.3251 20.013C22.3413 19.7898 22.2711 19.5684 22.1307 19.392L21.0669 18.0582L22.6383 17.646C22.8669 17.5866 23.0631 17.4372 23.1837 17.2356L23.9991 15.8622L24.8145 17.2356C24.9351 17.4372 25.1313 17.5866 25.3599 17.646L26.9313 18.0582L25.8675 19.392Z" fill="#022741"/>
</g>
</g>
<defs>
<clipPath id="clip0">
<rect width="28.8" height="28.8" fill="white" transform="translate(9.59961 9.59998)"/>
</clipPath>
<clipPath id="clip1">
<rect width="28.8" height="28.8" fill="white" transform="translate(9.59961 9.59998)"/>
</clipPath>
</defs>
</svg>
