<svg width="48" height="48" viewBox="0 0 48 48" fill="none" xmlns="http://www.w3.org/2000/svg">
<circle cx="24" cy="24" r="24" fill="#F7F7F7"/>
<g clip-path="url(#clip0)">
<path d="M19.1906 14.4871L18.0081 12.4388C17.8437 12.155 17.4818 12.0592 17.2003 12.2224C16.9177 12.3856 16.8207 12.7463 16.9827 13.0301L18.1653 15.0784C18.2753 15.2688 18.474 15.374 18.6786 15.374C18.7791 15.374 18.8808 15.348 18.9742 15.2948C19.2568 15.1304 19.3538 14.7697 19.1906 14.4871Z" fill="#022741"/>
<path fill-rule="evenodd" clip-rule="evenodd" d="M16.9995 11.8763C17.4726 11.6021 18.0791 11.7637 18.354 12.2383L19.5369 14.2871C19.811 14.7619 19.647 15.366 19.1752 15.6405L19.1721 15.6424C19.0183 15.73 18.8483 15.774 18.6784 15.774C18.3376 15.774 18.0035 15.5983 17.8188 15.2784L16.6352 13.2284C16.3644 12.7543 16.5254 12.1501 16.9995 11.8763ZM17.6616 12.6391C17.6077 12.5462 17.4906 12.5163 17.4007 12.5684C17.3098 12.621 17.2767 12.7378 17.3296 12.8312L18.5115 14.8783C18.5115 14.8783 18.5115 14.8783 18.5115 14.8783C18.5468 14.9393 18.61 14.974 18.6784 14.974C18.709 14.974 18.7419 14.9663 18.7744 14.9482C18.8666 14.8934 18.896 14.7771 18.844 14.6871L17.6616 12.6391C17.6616 12.639 17.6617 12.6391 17.6616 12.6391Z" fill="#022741"/>
<path d="M31.0165 34.9698L29.8339 32.9215C29.6695 32.6377 29.3076 32.5419 29.0261 32.7051C28.7435 32.8683 28.6465 33.2302 28.8097 33.5129L29.9923 35.5611C30.1023 35.7515 30.301 35.8568 30.5056 35.8568C30.6061 35.8568 30.7078 35.8319 30.8001 35.7775C31.0827 35.6143 31.1797 35.2525 31.0165 34.9698Z" fill="#022741"/>
<path fill-rule="evenodd" clip-rule="evenodd" d="M28.8252 32.3591C29.2983 32.0848 29.9048 32.2464 30.1797 32.7211L30.18 32.7215L31.3626 34.7698M28.463 33.7129C28.1893 33.2389 28.3518 32.6324 28.8258 32.3587L29.0258 32.7051L28.8252 32.3591M29.4873 33.1218C29.4334 33.029 29.3163 32.9991 29.2264 33.0512L29.2258 33.0515L29.2258 33.0515C29.1345 33.1043 29.1031 33.2215 29.1558 33.3128L29.1558 33.3129L30.3384 35.3611C30.3736 35.4221 30.4369 35.4568 30.5053 35.4568C30.5397 35.4568 30.5703 35.4484 30.5966 35.433L30.5997 35.4311L30.5997 35.4311C30.6911 35.3784 30.7225 35.2611 30.6697 35.1698L30.9965 34.9811L30.6697 35.1698L29.4874 33.122C29.4874 33.1219 29.4873 33.1219 29.4873 33.1218Z" fill="#022741"/>
<path d="M15.0786 18.1662L13.0303 16.9836C12.7477 16.8193 12.3858 16.9162 12.2226 17.2001C12.0582 17.4827 12.1552 17.8446 12.439 18.0078L14.4873 19.1904C14.5795 19.2448 14.6812 19.2696 14.7817 19.2696C14.9864 19.2696 15.185 19.1643 15.295 18.974C15.4582 18.6913 15.3612 18.3294 15.0786 18.1662Z" fill="#022741"/>
<path fill-rule="evenodd" clip-rule="evenodd" d="M13.231 16.6378C13.2312 16.638 13.2308 16.6377 13.231 16.6378L15.2782 17.8198C15.7521 18.0934 15.9147 18.6999 15.641 19.174C15.4563 19.4936 15.1222 19.6696 14.7814 19.6696C14.6154 19.6696 14.4433 19.6286 14.2855 19.536L12.2392 18.3545C12.2391 18.3545 12.2394 18.3546 12.2392 18.3545C11.7639 18.081 11.6004 17.4736 11.8764 16.999L12.2222 17.2L11.8754 17.0007C12.1488 16.5253 12.7564 16.3623 13.231 16.6378ZM12.8289 17.3294C12.7383 17.2767 12.6219 17.3074 12.569 17.3994L12.568 17.4011C12.5153 17.4917 12.5459 17.6081 12.638 17.661L14.69 18.8458C14.7163 18.8612 14.7469 18.8696 14.7814 18.8696C14.8496 18.8696 14.9129 18.8349 14.9482 18.7739M14.8782 18.5126L12.8299 17.33L12.8289 17.3294M14.8782 18.5126C14.9695 18.5654 15.0008 18.6827 14.9482 18.7739ZM14.8782 18.5126C14.8782 18.5126 14.8782 18.5126 14.8782 18.5126Z" fill="#022741"/>
<path d="M35.5622 29.9922L33.5139 28.8096C33.2313 28.6453 32.8694 28.7422 32.7062 29.0261C32.543 29.3087 32.64 29.6706 32.9226 29.8338L34.9709 31.0164C35.0643 31.0707 35.166 31.0956 35.2665 31.0956C35.4711 31.0956 35.6698 30.9903 35.7785 30.8C35.9418 30.5173 35.8449 30.1554 35.5622 29.9922Z" fill="#022741"/>
<path fill-rule="evenodd" clip-rule="evenodd" d="M33.7141 28.4635C33.7143 28.4636 33.7145 28.4637 33.7147 28.4638L35.7619 29.6458L35.7619 29.6458C36.2359 29.9195 36.3984 30.526 36.1246 31L35.7782 30.8L36.1255 30.9984C35.9418 31.3199 35.6067 31.4956 35.2662 31.4956C35.0994 31.4956 34.9278 31.4542 34.77 31.3625C34.7698 31.3623 34.7695 31.3622 34.7693 31.3621L32.7223 30.1802L32.7223 30.1802C32.2484 29.9066 32.0859 29.3003 32.3593 28.8263C32.6327 28.3512 33.2396 28.188 33.7141 28.4635ZM35.7782 30.7999L35.7782 30.8L35.7782 30.7999C33.1056 29.1334 33.2219 29.1027 33.3125 29.1554L33.0526 29.2254C33.031 29.4346 32.9995 29.3174 33.0523 29.2261C33.1223 29.4874 33.1223 29.4874 33.1223 29.4874L33.1223 29.4874L35.1705 30.67C35.2322 30.6956 35.2006 30.6874 35.1718 30.6707C35.3971 30.6607 35.3349 30.6956 35.2662 30.6956L35.4309 30.6015C35.4532 30.3914 35.4846 30.5086 35.4318 30.5999L35.3619 30.3386L33.3136 29.156" fill="#022741"/>
<path d="M15.2954 29.0261C15.131 28.7422 14.7679 28.6453 14.4865 28.8096L12.4382 29.9922C12.1556 30.1554 12.0586 30.5173 12.2218 30.8C12.3318 30.9904 12.5305 31.0956 12.7351 31.0956C12.8356 31.0956 12.9373 31.0707 13.0307 31.0164L15.079 29.8338C15.3616 29.6706 15.4586 29.3087 15.2954 29.0261Z" fill="#022741"/>
<path fill-rule="evenodd" clip-rule="evenodd" d="M14.2854 28.4636C14.7597 28.1874 15.3671 28.3521 15.6412 28.8256L15.6415 28.826C15.9152 29.3001 15.7525 29.9065 15.2787 30.1802L15.2787 30.1802L13.2317 31.362C13.2314 31.3622 13.2312 31.3623 13.2309 31.3625C13.0731 31.4542 12.9015 31.4956 12.7348 31.4956C12.3939 31.4956 12.0598 31.3198 11.8751 31L11.8751 30.9999C11.6014 30.526 11.7639 29.9195 12.2379 29.6458L12.2379 29.6458L14.2854 28.4636ZM14.9488 29.2263C14.8944 29.1326 14.7763 29.1034 14.6879 29.155L14.6862 29.156L14.6862 29.156L12.6379 30.3386L12.4386 29.9933M14.9488 29.2263C15.0013 29.3176 14.9699 29.4346 14.8787 29.4874C14.8787 29.4874 14.8786 29.4874 14.8786 29.4874L12.8304 30.6699L12.8304 30.6699L12.8292 30.6707C12.8004 30.6874 12.7688 30.6956 12.7348 30.6956C12.6664 30.6956 12.6032 30.6609 12.5679 30.5999" fill="#022741"/>
<path d="M35.7786 17.2C35.6143 16.9162 35.2524 16.8192 34.9709 16.9836L32.9226 18.1662C32.64 18.3294 32.543 18.6913 32.7062 18.9739C32.8162 19.1643 33.0149 19.2695 33.2195 19.2695C33.32 19.2695 33.4217 19.2447 33.5139 19.1903L35.5622 18.0077C35.8449 17.8445 35.9418 17.4826 35.7786 17.2Z" fill="#022741"/>
<path fill-rule="evenodd" clip-rule="evenodd" d="M34.7698 16.6376C35.2444 16.3612 35.8504 16.5264 36.1245 16.9995L36.1247 17C36.3984 17.4739 36.2358 18.0804 35.7619 18.3541L35.7619 18.3541L33.715 19.5359C33.5572 19.6285 33.3851 19.6695 33.2192 19.6695C32.8783 19.6695 32.5442 19.4938 32.3595 19.174L32.3595 19.1739C32.0858 18.6999 32.2483 18.0934 32.7223 17.8198L32.7223 17.8198L34.7698 16.6376ZM35.432 17.4002C35.3774 17.3062 35.2604 17.2775 35.1723 17.329L35.1706 17.33L35.1706 17.33L33.1223 18.5126C33.031 18.5653 32.9996 18.6825 33.0523 18.7739M35.432 17.4002C35.4845 17.4914 35.4532 17.6085 35.3619 17.6613C35.3619 17.6613 35.3619 17.6614 35.3618 17.6614L33.3136 18.8439L33.3136 18.8439L33.3105 18.8458C33.2842 18.8612 33.2536 18.8695 33.2192 18.8695C33.1508 18.8695 33.0875 18.8349 33.0523 18.7739" fill="#022741"/>
<path d="M18.9739 32.7052C18.6912 32.542 18.3293 32.6378 18.1661 32.9216L16.9835 34.9699C16.8203 35.2525 16.9173 35.6144 17.2 35.7776C17.2934 35.832 17.3951 35.8568 17.4956 35.8568C17.699 35.8568 17.8977 35.7515 18.0076 35.5612L19.1902 33.5129C19.3535 33.2303 19.2565 32.8684 18.9739 32.7052Z" fill="#022741"/>
<path fill-rule="evenodd" clip-rule="evenodd" d="M17.8192 32.7219C18.0935 32.2454 18.7006 32.0857 19.1736 32.3588C19.6474 32.6324 19.8101 33.2389 19.5363 33.7129C19.5363 33.7129 19.5363 33.7129 19.5363 33.7129L18.3537 35.7612C18.1693 36.0805 17.8354 36.2568 17.4953 36.2568C17.3285 36.2568 17.1569 36.2154 16.999 36.1236C16.5255 35.8498 16.3633 35.2436 16.6368 34.7699L17.8192 32.7219C17.8193 32.7217 17.8192 32.722 17.8192 32.7219ZM18.7735 33.0516C18.6812 32.9983 18.5648 33.0301 18.5126 33.121L17.3296 35.1699C17.2769 35.2612 17.3083 35.3785 17.3996 35.4312L17.4009 35.4319C17.4297 35.4487 17.4613 35.4568 17.4953 35.4568C17.5619 35.4568 17.6254 35.4226 17.6609 35.3612L18.8435 33.3129C18.8962 33.2216 18.8649 33.1043 18.7735 33.0516Z" fill="#022741"/>
<path d="M30.8001 12.2224C30.5174 12.0592 30.1555 12.155 29.9923 12.4388L28.8097 14.4871C28.6465 14.7697 28.7435 15.1316 29.0261 15.2948C29.1195 15.3492 29.2213 15.374 29.3218 15.374C29.5252 15.374 29.7238 15.2676 29.8338 15.0784L31.0164 13.0301C31.1797 12.7475 31.0827 12.3856 30.8001 12.2224Z" fill="#022741"/>
<path fill-rule="evenodd" clip-rule="evenodd" d="M29.6454 12.2391C29.9196 11.7626 30.5268 11.6029 30.9997 11.876C31.4737 12.1496 31.6362 12.7561 31.3625 13.2301C31.3625 13.2301 31.3625 13.2301 31.3625 13.2301L30.1793 15.2794C29.9955 15.5956 29.6628 15.774 29.3214 15.774C29.1547 15.774 28.9831 15.7326 28.8252 15.6408C28.3517 15.367 28.1895 14.7608 28.463 14.2871C28.463 14.2871 28.463 14.2871 28.463 14.2871L29.6454 12.2391C29.6455 12.239 29.6453 12.2392 29.6454 12.2391ZM30.5997 12.5688C30.5074 12.5155 30.391 12.5473 30.3387 12.6382L29.1558 14.6871C29.1031 14.7784 29.1345 14.8957 29.2258 14.9484L29.2271 14.9491C29.2558 14.9659 29.2874 14.974 29.3214 14.974C29.3867 14.974 29.4513 14.9397 29.4875 14.8777C29.4875 14.8776 29.4874 14.8779 29.4875 14.8777L30.6697 12.8301C30.7224 12.7388 30.6911 12.6215 30.5997 12.5688Z" fill="#022741"/>
<path d="M23.9995 10.4C23.6731 10.4 23.4082 10.6649 23.4082 10.9913V13.3566C23.4082 13.683 23.6731 13.9479 23.9995 13.9479C24.3259 13.9479 24.5908 13.6829 24.5908 13.3565V10.9913C24.5908 10.6649 24.3259 10.4 23.9995 10.4Z" fill="#022741"/>
<path fill-rule="evenodd" clip-rule="evenodd" d="M23.0078 10.9913C23.0078 10.444 23.4518 10 23.9991 10C24.5464 10 24.9904 10.444 24.9904 10.9913V13.3565C24.9904 13.9038 24.5465 14.3479 23.9991 14.3479C23.4518 14.3479 23.0078 13.9039 23.0078 13.3566V10.9913ZM23.9991 10.8C23.8937 10.8 23.8078 10.8858 23.8078 10.9913V13.3566C23.8078 13.4621 23.8937 13.5479 23.9991 13.5479C24.1046 13.5479 24.1904 13.462 24.1904 13.3565V10.9913C24.1904 10.8858 24.1046 10.8 23.9991 10.8Z" fill="#022741"/>
<path d="M13.3569 23.4088H10.9917C10.6653 23.4088 10.4004 23.6736 10.4004 24C10.4004 24.3264 10.6653 24.5913 10.9917 24.5913H13.357C13.6833 24.5913 13.9482 24.3264 13.9482 24C13.9482 23.6736 13.6833 23.4088 13.3569 23.4088Z" fill="#022741"/>
<path fill-rule="evenodd" clip-rule="evenodd" d="M10 24C10 23.4526 10.4441 23.0087 10.9913 23.0087H13.3565C13.9038 23.0087 14.3478 23.4526 14.3478 24C14.3478 24.5473 13.9038 24.9913 13.3566 24.9913H10.9913C10.444 24.9913 10 24.5473 10 24ZM10.9913 23.8087C10.8858 23.8087 10.8 23.8946 10.8 24C10.8 24.1055 10.8858 24.1913 10.9913 24.1913H13.3566C13.462 24.1913 13.5478 24.1055 13.5478 24C13.5478 23.8946 13.462 23.8087 13.3565 23.8087H10.9913Z" fill="#022741"/>
<path d="M37.0093 23.4088H34.6441C34.3177 23.4088 34.0527 23.6737 34.0527 24.0001C34.0527 24.3265 34.3177 24.5913 34.6441 24.5913H37.0093C37.3357 24.5913 37.6006 24.3264 37.6006 24C37.6006 23.6736 37.3357 23.4088 37.0093 23.4088Z" fill="#022741"/>
<path fill-rule="evenodd" clip-rule="evenodd" d="M33.6523 24.0001C33.6523 23.4527 34.0964 23.0087 34.6437 23.0087H37.0089C37.5562 23.0087 38.0002 23.4526 38.0002 24C38.0002 24.5473 37.5562 24.9913 37.0089 24.9913H34.6437C34.0964 24.9913 33.6523 24.5474 33.6523 24.0001ZM34.6437 23.8087C34.5382 23.8087 34.4523 23.8946 34.4523 24.0001C34.4523 24.1055 34.5381 24.1913 34.6437 24.1913H37.0089C37.1144 24.1913 37.2002 24.1055 37.2002 24C37.2002 23.8946 37.1144 23.8087 37.0089 23.8087H34.6437Z" fill="#022741"/>
<path d="M23.9995 34.0522C23.6731 34.0522 23.4082 34.3171 23.4082 34.6435V37.0087C23.4082 37.3351 23.6731 37.6 23.9995 37.6C24.3259 37.6 24.5908 37.3351 24.5908 37.0087V34.6435C24.5908 34.3171 24.3259 34.0522 23.9995 34.0522Z" fill="#022741"/>
<path fill-rule="evenodd" clip-rule="evenodd" d="M23.0078 34.6435C23.0078 34.0962 23.4518 33.6522 23.9991 33.6522C24.5464 33.6522 24.9904 34.0961 24.9904 34.6434V37.0087C24.9904 37.556 24.5464 38 23.9991 38C23.4518 38 23.0078 37.556 23.0078 37.0087V34.6435ZM23.9991 34.4522C23.8937 34.4522 23.8078 34.538 23.8078 34.6435V37.0087C23.8078 37.1142 23.8937 37.2 23.9991 37.2C24.1046 37.2 24.1904 37.1142 24.1904 37.0087V34.6434C24.1904 34.538 24.1047 34.4522 23.9991 34.4522Z" fill="#022741"/>
<path d="M24.0004 10.4C23.674 10.4 23.4091 10.6649 23.4091 10.9913V23.4087H10.9917C10.6653 23.4087 10.4004 23.6736 10.4004 24C10.4004 31.499 16.5015 37.6 24.0004 37.6C31.4993 37.6 37.6004 31.4989 37.6004 24C37.6004 16.5011 31.4993 10.4 24.0004 10.4ZM24.0004 36.4174C17.3517 36.4174 11.907 31.1655 11.5972 24.5913H24.0004C24.3268 24.5913 24.5917 24.3264 24.5917 24V11.5968C31.1658 11.9055 36.4178 17.3514 36.4178 24C36.4178 30.8473 30.8477 36.4174 24.0004 36.4174Z" fill="#022741"/>
<path fill-rule="evenodd" clip-rule="evenodd" d="M23.0087 10.9913C23.0087 10.444 23.4527 10 24 10C31.7198 10 38 16.2802 38 24C38 31.7198 31.7198 38 24 38C16.2802 38 10 31.7198 10 24C10 23.4526 10.444 23.0087 10.9913 23.0087H23.0087V10.9913ZM24 10.8C23.8945 10.8 23.8087 10.8858 23.8087 10.9913V23.8087H10.9913C10.8858 23.8087 10.8 23.8945 10.8 24C10.8 31.278 16.722 37.2 24 37.2C31.278 37.2 37.2 31.278 37.2 24C37.2 16.722 31.278 10.8 24 10.8ZM24.1913 11.1776L24.6101 11.1972C31.3966 11.5159 36.8174 17.1367 36.8174 24C36.8174 31.0682 31.0682 36.8174 24 36.8174C17.1367 36.8174 11.5171 31.3965 11.1972 24.6101L11.1775 24.1913H24C24.1055 24.1913 24.1913 24.1055 24.1913 24V11.1776ZM24.9913 12.0233V24C24.9913 24.5473 24.5473 24.9913 24 24.9913H12.0234C12.5291 31.156 17.7079 36.0174 24 36.0174C30.6264 36.0174 36.0174 30.6264 36.0174 24C36.0174 17.7078 31.1559 12.528 24.9913 12.0233Z" fill="#022741"/>
</g>
<defs>
<clipPath id="clip0">
<rect width="28.8" height="28.8" fill="white" transform="translate(9.59961 9.59998)"/>
</clipPath>
</defs>
</svg>
