<svg width="48" height="48" viewBox="0 0 48 48" fill="none" xmlns="http://www.w3.org/2000/svg">
<circle cx="24" cy="24" r="24" fill="#F7F7F7"/>
<g clip-path="url(#clip0)">
<g clip-path="url(#clip1)">
<path d="M24.632 38.4C24.3956 38.4 24.1652 38.3064 23.996 38.136C23.7884 37.9284 23.6948 37.632 23.7464 37.344L24.3824 33.738C24.4148 33.5556 24.5024 33.3876 24.632 33.258L33.542 24.348C33.9212 23.9688 34.3232 23.7312 34.7372 23.646C35.3084 23.5248 35.864 23.7 36.2996 24.1356L37.784 25.62C38.6024 26.4396 38.6024 27.7704 37.784 28.59L28.8752 37.5C28.7444 37.6296 28.5764 37.7184 28.3952 37.7496L24.7892 38.3856C24.7364 38.3952 24.6848 38.4 24.632 38.4V38.4ZM28.2392 36.864H28.2512H28.2392ZM26.1056 34.3296L25.742 36.39L27.8024 36.0264L36.5108 27.3168C36.6272 27.1992 36.6272 27.0096 36.5108 26.892L35.0372 25.4184C35.0252 25.4412 34.9352 25.4976 34.814 25.6188L26.1056 34.3296Z" fill="#022741"/>
<path d="M21.6116 34.8H12.8996C11.0792 34.8 9.59961 33.3204 9.59961 31.5V12.9C9.59961 11.0796 11.0792 9.59998 12.8996 9.59998H26.6996C28.52 9.59998 29.9996 11.0796 29.9996 12.9V24.972C29.9996 25.4688 29.5964 25.872 29.0996 25.872C28.6028 25.872 28.1996 25.4688 28.1996 24.972V12.9C28.1996 12.0732 27.5264 11.4 26.6996 11.4H12.8996C12.0728 11.4 11.3996 12.0732 11.3996 12.9V31.5C11.3996 32.3268 12.0728 33 12.8996 33H21.6116C22.1084 33 22.5116 33.4032 22.5116 33.9C22.5116 34.3968 22.1084 34.8 21.6116 34.8Z" fill="#022741"/>
<path d="M25.4992 21H14.0992C13.6024 21 13.1992 20.5968 13.1992 20.1C13.1992 19.6032 13.6024 19.2 14.0992 19.2H25.4992C25.996 19.2 26.3992 19.6032 26.3992 20.1C26.3992 20.5968 25.996 21 25.4992 21Z" fill="#022741"/>
<path d="M20.6992 25.8H14.0992C13.6024 25.8 13.1992 25.3968 13.1992 24.9C13.1992 24.4032 13.6024 24 14.0992 24H20.6992C21.196 24 21.5992 24.4032 21.5992 24.9C21.5992 25.3968 21.196 25.8 20.6992 25.8Z" fill="#022741"/>
<path d="M19.4992 16.1999H14.0992C13.6024 16.1999 13.1992 15.7967 13.1992 15.2999C13.1992 14.8031 13.6024 14.3999 14.0992 14.3999H19.4992C19.996 14.3999 20.3992 14.8031 20.3992 15.2999C20.3992 15.7967 19.996 16.1999 19.4992 16.1999Z" fill="#022741"/>
</g>
</g>
<defs>
<clipPath id="clip0">
<rect width="28.8" height="28.8" fill="white" transform="translate(9.59961 9.59998)"/>
</clipPath>
<clipPath id="clip1">
<rect width="28.8" height="28.8" fill="white" transform="translate(9.59961 9.59998)"/>
</clipPath>
</defs>
</svg>
