<svg width="48" height="48" viewBox="0 0 48 48" fill="none" xmlns="http://www.w3.org/2000/svg">
<circle cx="24" cy="24" r="24" fill="#F7F7F7"/>
<g clip-path="url(#clip0)">
<path d="M34.767 15.2H13.2337C11.672 15.2 10.4004 16.4715 10.4004 18.0333V30.5C10.4004 32.0617 11.672 33.3333 13.2337 33.3333H34.767C36.3287 33.3333 37.6003 32.0617 37.6003 30.5V18.0333C37.6003 16.4715 36.3287 15.2 34.767 15.2ZM36.467 30.4999C36.467 31.4372 35.7043 32.1999 34.767 32.1999H13.2337C12.2964 32.1999 11.5337 31.4372 11.5337 30.4999V18.0333C11.5337 17.096 12.2964 16.3333 13.2337 16.3333H34.767C35.7043 16.3333 36.467 17.096 36.467 18.0333V30.4999H36.467Z" fill="#022741"/>
<path fill-rule="evenodd" clip-rule="evenodd" d="M10.0996 18.0333C10.0996 16.3059 11.5055 14.9 13.2329 14.9H34.7662C36.4936 14.9 37.8996 16.3059 37.8995 18.0333V30.5C37.8995 32.2274 36.4936 33.6333 34.7662 33.6333H13.2329C11.5055 33.6333 10.0996 32.2274 10.0996 30.5V18.0333ZM13.2329 15.5C11.8369 15.5 10.6996 16.6372 10.6996 18.0333V30.5C10.6996 31.896 11.8369 33.0333 13.2329 33.0333H34.7662C36.1622 33.0333 37.2995 31.896 37.2995 30.5V18.0333C37.2996 16.6372 36.1623 15.5 34.7662 15.5H13.2329ZM13.2329 16.6333C12.4613 16.6333 11.8329 17.2617 11.8329 18.0333V30.4999C11.8329 31.2715 12.4613 31.8999 13.2329 31.8999H34.7662C35.5337 31.8999 36.1595 31.2783 36.1662 30.5124V18.0333C36.1662 17.2617 35.5378 16.6333 34.7662 16.6333H13.2329ZM36.7662 30.1999V18.0333C36.7662 16.9304 35.8692 16.0333 34.7662 16.0333H13.2329C12.13 16.0333 11.2329 16.9304 11.2329 18.0333V30.4999C11.2329 31.6029 12.13 32.4999 13.2329 32.4999H34.7662C35.8692 32.4999 36.7662 31.6029 36.7662 30.4999L36.7662 30.1999Z" fill="#022741"/>
<path d="M37.0337 18.6H10.9671C10.6543 18.6 10.4004 18.8539 10.4004 19.1667V22.5667C10.4004 22.8795 10.6543 23.1333 10.9671 23.1333H37.0337C37.3465 23.1333 37.6004 22.8795 37.6004 22.5667V19.1667C37.6003 18.8539 37.3465 18.6 37.0337 18.6ZM36.467 22H11.5337V19.7333H36.467V22H36.467Z" fill="#022741"/>
<path d="M18.8988 26.5333H14.3655C14.0527 26.5333 13.7988 26.7871 13.7988 27.0999C13.7988 27.4127 14.0527 27.6666 14.3655 27.6666H18.8988C19.2116 27.6666 19.4655 27.4127 19.4655 27.0999C19.4655 26.7871 19.2116 26.5333 18.8988 26.5333Z" fill="#022741"/>
<path d="M22.2988 28.7999H14.3655C14.0527 28.7999 13.7988 29.0538 13.7988 29.3666C13.7988 29.6794 14.0527 29.9333 14.3655 29.9333H22.2988C22.6116 29.9333 22.8655 29.6794 22.8655 29.3666C22.8655 29.0538 22.6116 28.7999 22.2988 28.7999Z" fill="#022741"/>
</g>
<defs>
<clipPath id="clip0">
<rect width="28.8" height="28.8" fill="white" transform="translate(9.59961 9.59998)"/>
</clipPath>
</defs>
</svg>
