<svg width="48" height="48" viewBox="0 0 48 48" fill="none" xmlns="http://www.w3.org/2000/svg">
<circle cx="24" cy="24" r="24" fill="#F7F7F7"/>
<g clip-path="url(#clip0)">
<g clip-path="url(#clip1)">
<path d="M34.2926 14.4759C28.9763 14.4759 24.9048 10.0482 24.8362 9.97282C24.391 9.47668 23.6106 9.4747 23.1621 9.97238C23.1215 10.0172 19.0398 14.4759 13.7051 14.4759C13.0837 14.4759 12.5801 14.9795 12.5801 15.6009C12.5801 25.4886 14.5743 34.0432 23.5161 38.2912C23.8215 38.4362 24.1761 38.4362 24.4816 38.2912C33.4436 34.0335 35.4176 25.4495 35.4176 15.6009C35.4176 14.9795 34.914 14.4759 34.2926 14.4759V14.4759ZM23.9988 36.0207C16.6709 32.2715 14.9492 24.97 14.8369 16.6729C19.1488 16.2702 22.5064 13.6719 23.9988 12.3052C25.4912 13.6719 28.8491 16.2702 33.1608 16.6729C33.0485 24.9718 31.3258 32.272 23.9988 36.0207V36.0207ZM22.8435 25.0957L27.4222 20.5171C27.8614 20.0778 28.5738 20.0776 29.013 20.5171C29.4524 20.9565 29.4524 21.6686 29.0132 22.1081L23.6391 27.4822C23.1999 27.9214 22.4873 27.9212 22.0481 27.4822L18.9847 24.4187C18.5452 23.9793 18.5452 23.2669 18.9847 22.8277C19.4239 22.3882 20.1363 22.3882 20.5757 22.8277L22.8435 25.0957Z" fill="#022741"/>
</g>
</g>
<defs>
<clipPath id="clip0">
<rect width="28.8" height="28.8" fill="white" transform="translate(9.59961 9.59998)"/>
</clipPath>
<clipPath id="clip1">
<rect width="28.8" height="28.8" fill="white" transform="translate(9.59961 9.59998)"/>
</clipPath>
</defs>
</svg>
