<svg width="48" height="48" viewBox="0 0 48 48" fill="none" xmlns="http://www.w3.org/2000/svg">
<circle cx="24" cy="24" r="24" fill="#F9F9F9"/>
<path d="M21.5902 31.5938H20.1569C20.0899 32.1704 19.8133 32.7024 19.3797 33.0885C18.9462 33.4746 18.3858 33.6879 17.8053 33.6879C17.2247 33.6879 16.6644 33.4746 16.2308 33.0885C15.7972 32.7024 15.5206 32.1704 15.4536 31.5938H14.0452C12.3513 31.5938 11.0059 32.9745 11.0059 34.6685V37.5562H24.6746V34.6685C24.671 33.8525 24.3446 33.071 23.7666 32.4949C23.1887 31.9188 22.4062 31.5948 21.5902 31.5938Z" fill="#022741"/>
<path d="M21.5247 25.9442V24.2728L21.5411 23.8741C21.5534 23.0271 21.1666 22.2505 20.4842 21.7967C20.2825 21.6587 20.0587 21.5561 19.8226 21.4935C17.9539 24.7016 14.8872 25.3672 14.0997 25.4901V25.9953C14.0957 26.4842 14.1884 26.969 14.3725 27.4218C14.5567 27.8746 14.8286 28.2866 15.1727 28.6338C15.5168 28.981 15.9262 29.2567 16.3773 29.445C16.8285 29.6333 17.3124 29.7304 17.8013 29.7308H17.8269C19.871 29.7156 21.5247 28.017 21.5247 25.9442Z" fill="#022741"/>
<path d="M16.125 30.0707V31.3234C16.125 31.545 16.1686 31.7644 16.2535 31.9692C16.3383 32.1739 16.4626 32.3599 16.6193 32.5166C16.776 32.6733 16.962 32.7976 17.1667 32.8824C17.3715 32.9672 17.5909 33.0109 17.8125 33.0109C18.0341 33.0109 18.2535 32.9672 18.4583 32.8824C18.663 32.7976 18.849 32.6733 19.0057 32.5166C19.1624 32.3599 19.2867 32.1739 19.3715 31.9692C19.4564 31.7644 19.5 31.545 19.5 31.3234V30.0622C18.9749 30.2855 18.4107 30.4023 17.8402 30.4058H17.814C17.2341 30.409 16.6597 30.295 16.125 30.0707Z" fill="#022741"/>
<path d="M14.1577 28.4536C13.673 27.726 13.4179 26.8696 13.4256 25.9953V25.2801C13.4222 25.1678 13.4634 25.0587 13.5402 24.9766C13.6169 24.8946 13.723 24.8462 13.8352 24.842C14.071 24.8195 17.4347 24.437 19.3377 20.954C19.3699 20.894 19.4197 20.8454 19.4803 20.8145C19.5409 20.7837 19.6096 20.7722 19.677 20.7815C20.0958 20.8417 20.4954 20.9967 20.8453 21.2346C21.2778 21.5256 21.63 21.9209 21.8694 22.3839C22.1087 22.847 22.2276 23.3629 22.2149 23.884L22.2006 24.2777V25.9442C22.2041 26.6874 22.0217 27.4198 21.67 28.0746C22.2137 27.4059 22.6444 26.7216 22.9339 26.0306C23.4931 24.6957 23.5198 23.2669 23.0115 22.0074C22.9142 21.7663 22.3772 20.5758 21.3682 20.8149C21.2861 20.8345 21.1996 20.8226 21.1259 20.7815C21.0521 20.7405 20.9964 20.6733 20.9698 20.5933L20.9454 20.5206C20.5715 19.6453 19.9561 18.9702 19.1653 18.5677C18.3258 18.1405 17.3744 18.0614 16.4141 18.3389C14.8257 18.7979 13.5182 19.8568 12.8268 21.244C12.4202 22.0722 12.2291 22.9896 12.2714 23.9113C12.3477 25.5999 13.0155 27.2078 14.1577 28.4536Z" fill="#022741"/>
<path d="M31.7304 33.3375H28.0518L28.0508 34.8H31.7314L31.7304 33.3375Z" fill="#022741"/>
<path d="M31.099 32.6625H31.7296L31.7193 18.2625H31.084L31.099 32.6625Z" fill="#022741"/>
<path d="M28.6984 18.2625H28.063L28.0527 32.6625H28.6834L28.6984 18.2625Z" fill="#022741"/>
<path d="M29.3594 32.6625H30.4257L30.4107 18.2625H29.3744L29.3594 32.6625Z" fill="#022741"/>
<path d="M29.8917 15.4534L28.3789 17.5874H31.4045L29.8917 15.4534Z" fill="#022741"/>
<path d="M28.0511 35.475L28.0508 36.0123C28.0499 36.2558 28.097 36.4971 28.1895 36.7223C28.2819 36.9476 28.4179 37.1524 28.5896 37.325C28.7605 37.4961 28.9636 37.6319 29.187 37.7245C29.4105 37.8171 29.6501 37.8648 29.892 37.8648C30.1339 37.8648 30.3734 37.8171 30.5969 37.7245C30.8204 37.6319 31.0234 37.4961 31.1944 37.325C31.3661 37.1523 31.502 36.9475 31.5945 36.7223C31.6869 36.4971 31.734 36.2558 31.7331 36.0123L31.7328 35.475H28.0511Z" fill="#022741"/>
<path d="M29.9059 12.5526C29.9954 12.5526 30.0812 12.5171 30.1445 12.4538C30.2078 12.3905 30.2434 12.3047 30.2434 12.2151V10.4727C30.2434 10.3832 30.2078 10.2973 30.1445 10.234C30.0812 10.1708 29.9954 10.1352 29.9059 10.1352C29.8163 10.1352 29.7305 10.1708 29.6672 10.234C29.6039 10.2973 29.5684 10.3832 29.5684 10.4727V12.2151C29.5684 12.3047 29.6039 12.3905 29.6672 12.4538C29.7305 12.5171 29.8163 12.5526 29.9059 12.5526Z" fill="#022741"/>
<path d="M24.9304 16.6312H23.1168C23.0273 16.6312 22.9414 16.6668 22.8781 16.7301C22.8149 16.7934 22.7793 16.8792 22.7793 16.9687C22.7793 17.0582 22.8149 17.1441 22.8781 17.2074C22.9414 17.2707 23.0273 17.3062 23.1168 17.3062H24.9302C25.0197 17.3062 25.1056 17.2707 25.1689 17.2074C25.2322 17.1441 25.2677 17.0582 25.2677 16.9687C25.2677 16.8792 25.2322 16.7934 25.1689 16.7301C25.1056 16.6668 25.0197 16.6312 24.9302 16.6312H24.9304Z" fill="#022741"/>
<path d="M36.6666 16.6312H34.8531C34.7636 16.6312 34.6778 16.6668 34.6145 16.7301C34.5512 16.7934 34.5156 16.8792 34.5156 16.9687C34.5156 17.0582 34.5512 17.1441 34.6145 17.2074C34.6778 17.2707 34.7636 17.3062 34.8531 17.3062H36.6666C36.7561 17.3062 36.8419 17.2707 36.9052 17.2074C36.9685 17.1441 37.0041 17.0582 37.0041 16.9687C37.0041 16.8792 36.9685 16.7934 36.9052 16.7301C36.8419 16.6668 36.7561 16.6312 36.6666 16.6312Z" fill="#022741"/>
<path d="M25.3376 12.1378C25.2727 12.0761 25.186 12.0427 25.0965 12.045C25.007 12.0473 24.9221 12.0851 24.8604 12.15C24.7988 12.2149 24.7654 12.3016 24.7677 12.3911C24.77 12.4806 24.8077 12.5655 24.8726 12.6271L26.1638 13.8538C26.1959 13.8844 26.2337 13.9083 26.2751 13.9242C26.3165 13.9401 26.3606 13.9477 26.4049 13.9465C26.4492 13.9454 26.4928 13.9356 26.5333 13.9176C26.5739 13.8996 26.6104 13.8738 26.6409 13.8416C26.6715 13.8095 26.6954 13.7717 26.7113 13.7303C26.7272 13.6889 26.7348 13.6448 26.7337 13.6005C26.7325 13.5562 26.7227 13.5125 26.7047 13.472C26.6867 13.4315 26.6609 13.395 26.6287 13.3645L25.3376 12.1378Z" fill="#022741"/>
<path d="M34.9241 12.1499C34.8625 12.0851 34.7776 12.0473 34.6881 12.045C34.5986 12.0427 34.5119 12.0761 34.447 12.1377L33.1558 13.3644C33.1237 13.395 33.0979 13.4315 33.0799 13.472C33.0619 13.5125 33.052 13.5562 33.0509 13.6005C33.0498 13.6448 33.0574 13.6889 33.0733 13.7303C33.0892 13.7716 33.1131 13.8095 33.1436 13.8416C33.1741 13.8737 33.2107 13.8995 33.2512 13.9175C33.2917 13.9355 33.3354 13.9454 33.3797 13.9465C33.424 13.9477 33.4681 13.9401 33.5094 13.9241C33.5508 13.9082 33.5886 13.8843 33.6208 13.8538L34.9119 12.6271C34.9441 12.5966 34.9699 12.56 34.9879 12.5195C35.0059 12.479 35.0157 12.4354 35.0169 12.3911C35.018 12.3467 35.0104 12.3026 34.9945 12.2613C34.9786 12.2199 34.9547 12.1821 34.9241 12.1499Z" fill="#022741"/>
</svg>
