<svg width="48" height="48" viewBox="0 0 48 48" fill="none" xmlns="http://www.w3.org/2000/svg">
<circle cx="24" cy="24" r="24" fill="#F9F9F9"/>
<g clip-path="url(#clip0)">
<g clip-path="url(#clip1)">
<path d="M10.4995 38.4C10.2643 38.4 10.0339 38.3076 9.86353 38.136C9.62713 37.8996 9.54073 37.5504 9.64033 37.23L12.2959 28.764C12.3391 28.626 12.4159 28.5 12.5191 28.3968L28.9483 11.9688C29.2855 11.6316 29.8831 11.6316 30.2215 11.9688L36.0319 17.7792C36.3835 18.1308 36.3835 18.7008 36.0319 19.0524L19.6015 35.4816C19.4983 35.5836 19.3735 35.6604 19.2343 35.7048L10.7683 38.3592C10.6795 38.3868 10.5895 38.4 10.4995 38.4V38.4ZM13.9471 29.514L11.8735 36.126L18.4843 34.0524L34.1227 18.4152L29.5855 13.8768L13.9471 29.514ZM18.9655 34.8456H18.9775H18.9655Z" fill="#022741"/>
<path d="M34.5664 18.4848C34.3276 18.4848 34.0984 18.39 33.9304 18.2208L29.7796 14.0712C29.6104 13.902 29.5156 13.6728 29.5156 13.4352C29.5156 13.1976 29.6104 12.9672 29.7796 12.7992L31.8544 10.7244C33.3508 9.22799 35.782 9.22919 37.2772 10.7244C38.002 11.448 38.4004 12.4104 38.4004 13.4352C38.4004 14.46 38.002 15.4224 37.276 16.1472L35.2012 18.222C35.0332 18.39 34.8052 18.4848 34.5664 18.4848ZM31.6876 13.4352L34.5652 16.3128L36.0028 14.874C36.3868 14.4888 36.5992 13.9788 36.5992 13.4352C36.5992 12.8916 36.3868 12.3804 36.0028 11.9964C35.212 11.2044 33.9196 11.2008 33.1264 11.9964L31.6876 13.4352Z" fill="#022741"/>
<path d="M18.966 35.7456C18.7356 35.7456 18.5052 35.658 18.33 35.4816L12.5196 29.6712C12.168 29.3196 12.168 28.7496 12.5196 28.398C12.8712 28.0464 13.4412 28.0464 13.7928 28.398L19.6032 34.2084C19.9548 34.56 19.9548 35.13 19.6032 35.4816C19.4256 35.6568 19.1964 35.7456 18.966 35.7456V35.7456Z" fill="#022741"/>
<path d="M17.9642 20.1455C17.7338 20.1455 17.5034 20.0579 17.3282 19.8815C16.9766 19.5299 16.9766 18.9599 17.3282 18.6083L23.1386 12.7979C24.4046 11.5319 26.4662 11.5319 27.7322 12.7979L28.5614 13.6271C28.913 13.9787 28.913 14.5487 28.5614 14.9003C28.2098 15.2519 27.6398 15.2519 27.2882 14.9003L26.459 14.0711C25.8938 13.5071 24.9758 13.5071 24.4106 14.0711L18.6002 19.8815C18.425 20.0567 18.1946 20.1455 17.9642 20.1455V20.1455Z" fill="#022741"/>
</g>
</g>
<defs>
<clipPath id="clip0">
<rect width="28.8" height="28.8" fill="white" transform="translate(9.59961 9.59998)"/>
</clipPath>
<clipPath id="clip1">
<rect width="28.8" height="28.8" fill="white" transform="translate(9.59961 9.59998)"/>
</clipPath>
</defs>
</svg>
