<svg width="48" height="48" viewBox="0 0 48 48" fill="none" xmlns="http://www.w3.org/2000/svg">
<circle cx="24" cy="24" r="24" fill="#F9F9F9"/>
<g clip-path="url(#clip0)">
<g clip-path="url(#clip1)">
<path d="M14.1148 21.378C13.618 21.378 13.2148 20.9748 13.2148 20.478C13.2148 17.478 14.2936 14.7456 16.2544 12.786C18.3076 10.7316 21.0388 9.59998 23.9452 9.59998C24.442 9.59998 24.8452 10.0032 24.8452 10.5C24.8452 10.9968 24.442 11.4 23.9452 11.4C21.52 11.4 19.2412 12.3444 17.5264 14.0592C15.9052 15.6792 15.0136 17.9592 15.0136 20.478C15.0148 20.9748 14.6116 21.378 14.1148 21.378V21.378Z" fill="#022741"/>
<path d="M30.2991 38.4H20.0991C19.6023 38.4 19.1991 37.9968 19.1991 37.5V33.9852L16.6275 34.6848C16.4343 34.7556 16.1679 34.8 15.8751 34.8C14.4051 34.8 13.2099 33.6048 13.2099 32.136V28.8H11.0271C10.2063 28.8 9.53906 28.1328 9.53906 27.312C9.53906 26.9808 9.69746 26.7024 10.0323 26.1876L12.6867 22.338C13.0239 21.8124 13.2111 21.1632 13.2111 20.484C13.2111 17.4816 14.2887 14.7492 16.2471 12.792C16.4907 12.5472 16.7499 12.3144 17.0091 12.0936C17.2959 11.8608 17.5683 11.6544 17.8515 11.46C18.1659 11.256 18.4491 11.076 18.7599 10.908C19.1043 10.7352 19.3959 10.5888 19.7007 10.4556C20.3499 10.176 21.0663 9.95998 21.8331 9.80878C22.1547 9.74398 22.4787 9.69238 22.8159 9.65398C24.0219 9.52318 25.2411 9.60958 26.2983 9.85078C26.7819 9.96118 27.0855 10.4436 26.9751 10.9284C26.8647 11.4132 26.3847 11.7144 25.8975 11.6064C24.9891 11.3988 23.9043 11.3484 23.0139 11.4432C22.7343 11.4756 22.4583 11.5188 22.1835 11.5752C21.5367 11.7012 20.9439 11.88 20.4195 12.1068C20.1483 12.2256 19.8819 12.3588 19.6167 12.492C19.3491 12.636 19.1055 12.792 18.8499 12.9588C18.6231 13.1136 18.3903 13.2912 18.1575 13.4796C17.9523 13.6536 17.7303 13.8528 17.5215 14.064C15.9015 15.6816 15.0111 17.9616 15.0111 20.484C15.0111 21.51 14.7255 22.4964 14.1855 23.3352L11.6559 27H14.1111C14.6079 27 15.0111 27.4032 15.0111 27.9V32.136C15.0111 32.6124 15.3987 33 15.8763 33C15.9615 33 16.0287 32.9904 16.0923 32.9676L19.8639 31.9392C20.1387 31.866 20.4255 31.9224 20.6463 32.0928C20.8683 32.2632 20.9991 32.5272 20.9991 32.808V36.6H29.3991V31.596C29.3991 29.6892 29.9307 27.8208 30.9375 26.1912C31.1979 25.77 31.7499 25.6356 32.1759 25.8984C32.5983 26.16 32.7291 26.7144 32.4675 27.1368C31.6383 28.482 31.1991 30.024 31.1991 31.596V37.5C31.1991 37.9968 30.7959 38.4 30.2991 38.4Z" fill="#022741"/>
<path d="M33.8081 23.9999H32.1929C31.4021 23.9999 30.6005 23.3855 30.6005 22.2107V20.6675C30.6005 20.1743 30.3773 19.7195 30.0185 19.4831C28.1765 18.2627 27.2717 16.0643 27.7145 13.8815C28.1225 11.8691 29.7353 10.2071 31.7273 9.74753C33.3785 9.36833 35.0645 9.74153 36.3605 10.7735C37.6577 11.8031 38.4006 13.3451 38.4006 14.9999C38.4006 16.8071 37.4946 18.4847 35.9777 19.4855C35.6225 19.7219 35.4005 20.1863 35.4005 20.6987V22.4075C35.4005 23.2859 34.6853 23.9999 33.8081 23.9999V23.9999ZM32.4005 22.1999H33.6005V20.6987C33.6005 19.5731 34.1189 18.5579 34.9865 17.9843C35.9969 17.3171 36.6005 16.2011 36.6005 14.9999C36.6005 13.8971 36.1049 12.8687 35.2397 12.1811C34.3733 11.4923 33.2381 11.2451 32.1317 11.5007C30.8141 11.8043 29.7485 12.9047 29.4785 14.2391C29.1773 15.7223 29.7641 17.1563 31.0109 17.9819C31.8809 18.5567 32.4005 19.5611 32.4005 20.6675V22.1999Z" fill="#022741"/>
</g>
</g>
<defs>
<clipPath id="clip0">
<rect width="28.8" height="28.8" fill="white" transform="translate(9.59961 9.59998)"/>
</clipPath>
<clipPath id="clip1">
<rect width="28.8" height="28.8" fill="white" transform="translate(9.59961 9.59998)"/>
</clipPath>
</defs>
</svg>
