<svg width="48" height="48" viewBox="0 0 48 48" fill="none" xmlns="http://www.w3.org/2000/svg">
<circle cx="24" cy="24" r="24" fill="#F9F9F9"/>
<g clip-path="url(#clip0)">
<g clip-path="url(#clip1)">
<path d="M38.2049 10.4577C38.1391 10.1205 37.8755 9.85692 37.5383 9.79118C33.3781 8.97995 28.1308 10.7898 23.6548 14.4654C22.4913 13.9006 21.154 13.6907 19.8657 13.8757C18.464 14.077 17.1945 14.7119 16.1945 15.712L10.7452 21.1612C10.5143 21.3921 10.4373 21.7355 10.5477 22.0428C10.6581 22.3502 10.9359 22.5662 11.261 22.5974L16.8013 23.1298C16.6996 23.3465 16.6018 23.5637 16.5088 23.7814C16.0573 24.838 16.2815 25.999 17.0939 26.8113L21.1846 30.9021C21.7195 31.4369 22.4054 31.7168 23.1132 31.7168C23.4804 31.7168 23.8536 31.6415 24.2145 31.4872C24.4353 31.3929 24.6555 31.2936 24.8753 31.1905L25.4091 36.7455C25.4404 37.0705 25.6564 37.3483 25.9637 37.4587C26.0567 37.4921 26.1531 37.5084 26.2487 37.5084C26.4686 37.5084 26.6843 37.4222 26.8453 37.2613L32.2946 31.812C34.2741 29.8324 34.7534 26.8218 33.5347 24.338C37.224 19.8475 39.0083 14.5782 38.2049 10.4577V10.4577ZM26.4654 28.3926L19.6033 21.5306C20.5248 20.0776 21.6458 18.6814 22.927 17.4001C25.1032 15.2239 27.5591 13.5533 29.9966 12.512L35.4794 17.9948C34.649 19.9424 33.4175 21.9063 31.8417 23.7296C31.447 24.1863 31.0278 24.6368 30.5958 25.0689C29.3146 26.3502 27.9184 27.4713 26.4654 28.3926V28.3926ZM35.4501 11.2828C35.8554 11.2828 36.2531 11.3068 36.6404 11.3553C36.8277 12.8603 36.6399 14.5285 36.118 16.2475L31.7435 11.873C33.0189 11.4858 34.2691 11.2828 35.4501 11.2828ZM13.2031 21.0892L17.3874 16.9049C18.6571 15.6351 20.5539 15.1969 22.2392 15.7156C22.0693 15.8768 21.9008 16.0405 21.7341 16.2072C20.1079 17.8334 18.7201 19.6376 17.642 21.5158L13.2031 21.0892ZM23.5515 29.936C23.1361 30.1135 22.6972 30.0288 22.3776 29.7092L18.2868 25.6185C17.9673 25.2989 17.8826 24.8601 18.0601 24.4445C18.2611 23.9744 18.4842 23.506 18.7282 23.0413L24.9547 29.2679C24.49 29.5119 24.0217 29.735 23.5515 29.936ZM31.1017 30.6191L26.9173 34.8034L26.4893 30.3488C28.3643 29.2714 30.1653 27.8855 31.7889 26.2619C31.9575 26.0933 32.1234 25.9213 32.2878 25.748C32.8235 27.4384 32.3949 29.3259 31.1017 30.6191V30.6191Z" fill="#022741"/>
<path d="M30.1498 17.8459C29.0759 16.772 27.3285 16.772 26.2546 17.8459C25.1807 18.9198 25.1807 20.6671 26.2546 21.741C26.7748 22.2612 27.4665 22.5478 28.2023 22.5478C28.938 22.5478 29.6296 22.2612 30.1498 21.741C31.2237 20.6671 31.2237 18.9198 30.1498 17.8459ZM28.9569 20.5481C28.7553 20.7496 28.4873 20.8606 28.2023 20.8606C27.9172 20.8606 27.6492 20.7496 27.4476 20.5481C27.0316 20.132 27.0316 19.4549 27.4476 19.0388C27.6556 18.8308 27.9289 18.7268 28.2022 18.7268C28.4755 18.7268 28.7488 18.8308 28.9569 19.0388C29.3729 19.4549 29.3729 20.132 28.9569 20.5481Z" fill="#022741"/>
<path d="M17.8461 30.1593C17.5167 29.8299 16.9825 29.8299 16.6531 30.1593L9.85255 36.9599C9.52311 37.2893 9.52311 37.8234 9.85255 38.1528C10.0173 38.3176 10.2332 38.4 10.449 38.4C10.6648 38.4 10.8808 38.3176 11.0455 38.1528L17.846 31.3523C18.1755 31.0228 18.1755 30.4887 17.8461 30.1593Z" fill="#022741"/>
<path d="M12.8463 30.9469L15.1432 28.6501C15.4726 28.3207 15.4726 27.7866 15.1432 27.4571C14.8139 27.1277 14.2797 27.1278 13.9502 27.4571L11.6533 29.754C11.3239 30.0834 11.3239 30.6175 11.6533 30.9469C11.818 31.1117 12.0339 31.194 12.2498 31.194C12.4657 31.194 12.6816 31.1116 12.8463 30.9469Z" fill="#022741"/>
<path d="M19.3564 32.8616L17.0596 35.1584C16.7301 35.4879 16.7301 36.022 17.0596 36.3514C17.2243 36.5161 17.4402 36.5985 17.656 36.5985C17.8719 36.5985 18.0878 36.5162 18.2525 36.3514L20.5493 34.0545C20.8788 33.7251 20.8788 33.191 20.5493 32.8616C20.2199 32.5321 19.6858 32.5321 19.3564 32.8616V32.8616Z" fill="#022741"/>
</g>
</g>
<defs>
<clipPath id="clip0">
<rect width="28.8" height="28.8" fill="white" transform="translate(9.59961 9.59998)"/>
</clipPath>
<clipPath id="clip1">
<rect width="28.8" height="28.8" fill="white" transform="translate(9.59961 9.59998)"/>
</clipPath>
</defs>
</svg>
