<svg width="24" height="16" viewBox="0 0 24 16" fill="none" xmlns="http://www.w3.org/2000/svg">
<path fill-rule="evenodd" clip-rule="evenodd" d="M8.80391 0.55129C8.55604 0.291616 8.14459 0.282047 7.88492 0.529918L0.551582 7.52992C0.42309 7.65257 0.350391 7.82246 0.350391 8.0001C0.350391 8.17773 0.42309 8.34763 0.551582 8.47028L7.88492 15.4703C8.14459 15.7182 8.55604 15.7086 8.80391 15.4489C9.05178 15.1892 9.04221 14.7778 8.78253 14.5299L2.62272 8.6501H23.0004C23.3594 8.6501 23.6504 8.35908 23.6504 8.0001C23.6504 7.64111 23.3594 7.3501 23.0004 7.3501H2.62272L8.78253 1.47028C9.04221 1.22241 9.05178 0.810963 8.80391 0.55129Z" fill="white"/>
</svg>
