<svg width="12" height="12" viewBox="0 0 12 12" fill="none" xmlns="http://www.w3.org/2000/svg">
<path fill-rule="evenodd" clip-rule="evenodd" d="M0.262695 1.57896C0.262695 0.852686 0.852869 0.262512 1.57914 0.262512H3.51336C4.23964 0.262512 4.82981 0.852686 4.82981 1.57896C4.82981 2.17424 4.92339 2.7576 5.10645 3.31233L5.10886 3.31962L5.1088 3.31964C5.25313 3.78133 5.13922 4.27856 4.80988 4.62783L4.14203 5.51521C4.7369 6.54685 5.44547 7.25522 6.48508 7.85695L7.39936 7.16647C7.73359 6.85024 8.24754 6.74925 8.69281 6.90131C9.24351 7.08306 9.82535 7.17594 10.4212 7.17594C11.1475 7.17594 11.7377 7.76611 11.7377 8.49239V10.4211C11.7377 11.1473 11.1475 11.7375 10.4212 11.7375C4.81967 11.7375 0.262695 7.18054 0.262695 1.57896ZM1.57914 1.23751C1.39135 1.23751 1.2377 1.39116 1.2377 1.57896C1.2377 6.64206 5.35815 10.7625 10.4212 10.7625C10.609 10.7625 10.7627 10.6089 10.7627 10.4211V8.49239C10.7627 8.30459 10.609 8.15094 10.4212 8.15094C9.72265 8.15094 9.03652 8.04183 8.38432 7.82622L8.37848 7.82429L8.37849 7.82426C8.25082 7.78026 8.11849 7.82468 8.06544 7.87864C8.04867 7.8957 8.03067 7.9115 8.01159 7.92592L6.81956 8.82616C6.66802 8.9406 6.46382 8.95663 6.29628 8.86724C4.84422 8.0925 3.89843 7.14783 3.1319 5.70293C3.04325 5.53581 3.05928 5.33248 3.17304 5.18132L4.04896 4.01748C4.06255 3.99943 4.07737 3.98234 4.09333 3.96634C4.18419 3.87526 4.2186 3.74331 4.17909 3.61342C3.96409 2.96031 3.85481 2.27526 3.85481 1.57896C3.85481 1.39116 3.70116 1.23751 3.51336 1.23751H1.57914Z" fill="#F9F9F9"/>
</svg>
