<svg width="231" height="201" viewBox="0 0 231 201" fill="none" xmlns="http://www.w3.org/2000/svg">
<path d="M65.6656 91.1883L65.1888 91.038L65.6656 91.1883ZM95.0243 59.2318L94.8481 59.6997L95.0243 59.2318ZM160.849 19.7173L161.344 19.788L160.849 19.7173ZM149.618 1V1.5V1ZM186.637 44.2578L186.799 43.7846L186.637 44.2578ZM214.089 77.533L213.593 77.5951L214.089 77.533ZM95.2628 129.502C94.2173 128.935 92.9144 128.226 91.4398 127.384L90.9439 128.252C92.4286 129.1 93.7397 129.813 94.7857 130.381L95.2628 129.502ZM84.0209 122.776C81.7136 121.204 79.3419 119.435 77.0937 117.486L76.4388 118.242C78.7225 120.221 81.1264 122.014 83.4579 123.603L84.0209 122.776ZM71.0323 111.28C69.1799 108.968 67.6515 106.501 66.635 103.899L65.7036 104.263C66.7651 106.98 68.352 109.534 70.252 111.905L71.0323 111.28ZM65.3201 95.5295C65.4263 94.1625 65.6929 92.765 66.1425 91.3386L65.1888 91.038C64.7168 92.5356 64.4353 94.0079 64.3231 95.452L65.3201 95.5295ZM66.1425 91.3386C66.5409 90.0746 66.9598 88.816 67.3985 87.5693L66.4552 87.2374C66.0127 88.4948 65.5903 89.7638 65.1888 91.038L66.1425 91.3386ZM70.3069 80.1803C71.4062 77.6824 72.5875 75.299 73.8435 73.0913L72.9743 72.5969C71.699 74.8385 70.5025 77.2531 69.3916 79.7775L70.3069 80.1803ZM78.2383 66.5386C80.036 64.3108 81.9318 62.4897 83.9077 61.1892L83.3579 60.3539C81.2729 61.7262 79.3031 63.6266 77.4601 65.9107L78.2383 66.5386ZM91.1148 58.9404C92.3299 58.9761 93.5746 59.2202 94.8481 59.6997L95.2005 58.7638C93.8289 58.2474 92.4753 57.9799 91.1441 57.9408L91.1148 58.9404ZM94.8481 59.6997C95.993 60.1308 97.3908 60.2937 98.9694 60.243L98.9373 59.2435C97.4352 59.2917 96.1802 59.1327 95.2005 58.7638L94.8481 59.6997ZM106.953 58.7789C109.329 58.0878 111.887 57.1738 114.553 56.0818L114.174 55.1565C111.534 56.2381 109.009 57.1394 106.674 57.8187L106.953 58.7789ZM121.887 52.7655C124.242 51.6072 126.628 50.3493 128.999 49.0175L128.509 48.1456C126.153 49.4689 123.784 50.7183 121.445 51.8681L121.887 52.7655ZM135.904 44.9023C138.201 43.4514 140.441 41.9513 142.578 40.4278L141.997 39.6135C139.877 41.1256 137.652 42.6152 135.37 44.0568L135.904 44.9023ZM148.974 35.5347C151.19 33.7031 153.199 31.8738 154.923 30.0895L154.204 29.3946C152.511 31.1466 150.531 32.9506 148.337 34.7638L148.974 35.5347ZM159.915 23.6802C160.669 22.3271 161.168 21.0198 161.344 19.788L160.354 19.6466C160.2 20.7202 159.757 21.9091 159.042 23.1936L159.915 23.6802ZM161.344 19.788C161.487 18.7879 161.563 17.725 161.567 16.6329L160.567 16.6297C160.563 17.6779 160.49 18.6945 160.354 19.6466L161.344 19.788ZM160.77 10.3739C160.205 8.27719 159.318 6.28081 158.049 4.63643L157.257 5.24733C158.427 6.76342 159.265 8.63171 159.805 10.6343L160.77 10.3739ZM152.821 0.951187C151.841 0.65751 150.774 0.5 149.618 0.5V1.5C150.682 1.5 151.652 1.64484 152.533 1.90908L152.821 0.951187ZM149.618 0.5C147.597 0.5 145.779 1.13083 144.202 2.17708L144.754 3.01042C146.187 2.06026 147.815 1.5 149.618 1.5V0.5ZM137.936 11.2854C137.36 13.1498 137.056 15.0537 137.056 16.8057H138.056C138.056 15.1647 138.342 13.3604 138.892 11.5805L137.936 11.2854ZM137.056 16.8057C137.056 18.1301 137.287 19.3932 137.718 20.5967L138.659 20.2595C138.266 19.1607 138.056 18.0115 138.056 16.8057H137.056ZM142.071 26.7682C143.784 28.343 145.859 29.7829 148.171 31.1072L148.668 30.2395C146.4 28.9405 144.391 27.5425 142.747 26.032L142.071 26.7682ZM154.852 34.3948C157.082 35.3521 159.412 36.2426 161.773 37.0762L162.106 36.1332C159.76 35.3052 157.452 34.4226 155.247 33.4759L154.852 34.3948ZM168.81 39.3948C171.236 40.1479 173.625 40.8517 175.9 41.5163L176.181 40.5565C173.907 39.8921 171.524 39.1903 169.106 38.4398L168.81 39.3948ZM182.983 43.6093C184.239 43.9942 185.41 44.3671 186.476 44.731L186.799 43.7846C185.72 43.4161 184.538 43.0399 183.276 42.6532L182.983 43.6093ZM186.476 44.731C187.684 45.1435 188.849 45.598 189.972 46.0912L190.374 45.1756C189.225 44.6709 188.033 44.2062 186.799 43.7846L186.476 44.731ZM196.528 49.6998C198.654 51.139 200.576 52.7378 202.297 54.4589L203.004 53.7517C201.238 51.9864 199.268 50.3469 197.088 48.8716L196.528 49.6998ZM207.057 60.2275C208.48 62.3327 209.673 64.5366 210.644 66.7911L211.563 66.3956C210.568 64.0851 209.344 61.8259 207.885 59.6674L207.057 60.2275ZM212.951 73.9071C213.226 75.1389 213.44 76.3707 213.593 77.5951L214.585 77.471C214.428 76.2149 214.209 74.9518 213.927 73.689L212.951 73.9071ZM213.593 77.5951C213.731 78.7018 213.759 79.8413 213.687 81.0012L214.685 81.0634C214.761 79.8472 214.732 78.6451 214.585 77.471L213.593 77.5951ZM212.273 87.7127C211.533 89.8438 210.539 91.9552 209.356 93.9714L210.219 94.4774C211.431 92.4104 212.455 90.2397 213.218 88.0408L212.273 87.7127ZM205.349 99.6128C203.799 101.435 202.123 103.067 200.398 104.425L201.017 105.21C202.799 103.807 204.522 102.128 206.111 100.261L205.349 99.6128ZM194.491 107.854C193.369 108.263 192.272 108.517 191.218 108.596L191.294 109.594C192.453 109.506 193.641 109.229 194.834 108.793L194.491 107.854Z" fill="#9CE2FB"/>
<path d="M197.174 50.0808H48.8519C43.5936 50.0808 39.2871 54.0291 39.2871 58.9435V145.765C39.2871 150.637 43.5482 154.628 48.8519 154.628H197.174C202.432 154.628 206.739 150.679 206.739 145.765V58.9435C206.739 54.0291 202.432 50.0808 197.174 50.0808Z" fill="#C8E8F1"/>
<path d="M197.854 55.6672H48.1724C46.7671 55.6672 45.6338 56.7174 45.6338 58.0195V144.757C45.6338 146.059 46.7671 147.109 48.1724 147.109H197.854C199.259 147.109 200.393 146.059 200.393 144.757V58.0195C200.393 56.7174 199.259 55.6672 197.854 55.6672Z" fill="white"/>
<path d="M224.962 196.548H21.0192C20.022 196.548 19.07 196.295 18.2088 195.875C17.3475 195.413 16.6223 194.783 16.1236 193.985C15.625 193.187 15.353 192.305 15.3076 191.381C15.2623 190.457 15.5343 189.575 15.9876 188.735L36.6583 159.248C37.4743 157.862 38.6529 156.686 40.1035 155.888C41.5541 155.09 43.2314 154.67 44.9086 154.67H201.073C202.75 154.67 204.427 155.09 205.878 155.888C207.328 156.686 208.507 157.862 209.323 159.248L229.994 188.777C230.447 189.575 230.674 190.499 230.628 191.381C230.583 192.305 230.311 193.187 229.812 193.943C229.314 194.741 228.588 195.371 227.727 195.834C226.911 196.296 225.959 196.548 224.962 196.548Z" fill="#E7F8FE"/>
<path d="M230.719 191.087C230.719 191.801 230.628 192.515 230.311 193.187C230.039 193.859 229.631 194.447 229.087 194.951C228.543 195.456 227.908 195.876 227.183 196.128C226.458 196.422 225.732 196.548 224.962 196.548H21.019C20.2484 196.548 19.4778 196.422 18.7979 196.128C18.0726 195.834 17.438 195.456 16.894 194.951C16.35 194.447 15.9421 193.817 15.6701 193.187C15.3981 192.515 15.2621 191.801 15.3074 191.087V195.792C15.3074 197.178 15.9421 198.522 17.03 199.488C18.1179 200.454 19.5685 201 21.0644 201H225.007C226.503 201 227.954 200.454 229.042 199.488C230.13 198.522 230.719 197.178 230.764 195.792V191.087H230.719Z" fill="#D4F2FD"/>
<path d="M162.723 192.683H83.3041C82.9868 192.683 82.6694 192.599 82.4427 192.431C82.1708 192.305 81.9442 192.095 81.8082 191.843C81.6268 191.591 81.5361 191.297 81.5361 191.045C81.5361 190.793 81.5815 190.457 81.7175 190.205L84.8453 180.754C85.1173 180.292 85.48 179.956 85.9333 179.662C86.3866 179.41 86.9305 179.284 87.4745 179.242H158.598C159.142 179.242 159.686 179.368 160.14 179.662C160.593 179.914 161.001 180.292 161.227 180.754L164.355 190.205C164.491 190.457 164.537 190.751 164.537 191.045C164.537 191.339 164.446 191.633 164.265 191.843C164.083 192.095 163.902 192.305 163.63 192.431C163.313 192.599 163.041 192.683 162.723 192.683Z" fill="#E7F8FE"/>
<path d="M191.825 176.007H54.2009C53.8383 176.007 53.4756 175.924 53.1583 175.756C52.841 175.588 52.569 175.336 52.3877 175.041C52.2064 174.747 52.1156 174.411 52.0703 174.075C52.0703 173.739 52.161 173.403 52.3423 173.067L58.0993 161.894C58.4166 161.348 58.87 160.928 59.414 160.634C59.9579 160.34 60.5926 160.172 61.2272 160.172H184.844C185.479 160.172 186.113 160.34 186.657 160.634C187.201 160.928 187.654 161.39 187.972 161.894L193.774 173.067C193.955 173.361 194.046 173.697 194.001 174.075C194.001 174.411 193.865 174.747 193.683 175.041C193.502 175.336 193.23 175.588 192.913 175.756C192.55 175.924 192.187 176.007 191.825 176.007Z" fill="#C1EDFC"/>
<rect x="70.5898" y="64.2229" width="84.02" height="74.6039" rx="2" fill="#FAFDFF"/>
<rect x="70.5898" y="64.2229" width="84.02" height="6.65158" rx="2" fill="#C8E8F1"/>
<rect x="70.5898" y="64.2229" width="28.0067" height="6.65158" rx="2" fill="#D4F2FD"/>
<rect x="124.431" y="128.083" width="21.9707" height="4.10442" rx="2" fill="#D4F2FD"/>
<circle cx="109.689" cy="101.657" r="20.2927" stroke="#D4F2FD" stroke-width="6"/>
<path d="M86.4066 100.972C86.4556 99.3037 86.6842 97.6362 87.0942 95.9991L91.8037 97.1785C91.471 99.6885 91.3936 101.587 91.3965 102.222C91.461 104.311 91.8832 106.386 92.6572 108.355C94.0524 111.903 96.5212 114.927 99.7187 117.004C102.916 119.082 106.683 120.108 110.492 119.941C114.301 119.774 117.963 118.421 120.966 116.072C123.969 113.722 126.164 110.493 127.243 106.836C128.321 103.179 128.231 99.2763 126.984 95.673C125.738 92.0696 123.396 88.9457 120.288 86.7375C118.564 85.5126 116.651 84.6034 114.639 84.0381C113.931 83.8107 111.941 83.356 109.646 83.356L109.634 78.3648C111.322 78.3608 112.995 78.5402 114.627 78.8941C117.686 79.5578 120.598 80.8354 123.179 82.6684C127.135 85.4788 130.114 89.4548 131.701 94.0409C133.288 98.6269 133.403 103.594 132.03 108.249C130.657 112.903 127.864 117.013 124.042 120.003C120.22 122.993 115.559 124.715 110.711 124.928C105.863 125.14 101.069 123.834 96.9994 121.19C92.93 118.546 89.7879 114.697 88.0121 110.181C86.8538 107.235 86.3145 104.102 86.4066 100.972Z" fill="#00C189"/>
<path d="M2.37561 139.508L2.8532 139.656L2.37561 139.508ZM35.578 112.838C34.3343 113.021 33.0961 113.245 31.8682 113.51L32.0791 114.487C33.2847 114.227 34.5012 114.008 35.724 113.827L35.578 112.838ZM24.6296 115.632C22.2658 116.528 19.9835 117.614 17.8236 118.91L18.3381 119.768C20.443 118.505 22.6711 117.444 24.984 116.567L24.6296 115.632ZM11.763 123.437C9.94135 125.122 8.27516 127.022 6.80185 129.154L7.62446 129.722C9.05498 127.653 10.6727 125.808 12.442 124.171L11.763 123.437ZM3.18659 135.799C2.71143 136.938 2.28088 138.125 1.89801 139.36L2.8532 139.656C3.2269 138.45 3.64673 137.293 4.1095 136.184L3.18659 135.799ZM1.89801 139.36C1.47764 140.717 1.15701 142.06 0.929521 143.388L1.91517 143.557C2.13517 142.272 2.44554 140.972 2.8532 139.656L1.89801 139.36ZM0.675496 151.626C0.975978 154.381 1.65273 157.051 2.63174 159.628L3.56657 159.273C2.61475 156.767 1.96001 154.18 1.6696 151.518L0.675496 151.626ZM6.33468 166.967C7.77478 169.255 9.42645 171.452 11.2257 173.553L11.9852 172.902C10.213 170.833 8.59146 168.675 7.18095 166.435L6.33468 166.967ZM16.8972 179.459C18.8978 181.338 20.9831 183.119 23.0932 184.795L23.7154 184.013C21.6238 182.35 19.5597 180.587 17.5818 178.73L16.8972 179.459ZM29.6569 189.661C32.0068 191.292 34.3114 192.785 36.4867 194.133L37.0134 193.283C34.8503 191.943 32.5605 190.459 30.227 188.839L29.6569 189.661ZM43.5146 198.284C44.8364 199.031 46.029 199.691 47.0554 200.257L47.5387 199.382C46.5126 198.815 45.3238 198.158 44.0069 197.413L43.5146 198.284Z" fill="#9CE2FB"/>
</svg>
