<svg width="288" height="201" viewBox="0 0 288 201" fill="none" xmlns="http://www.w3.org/2000/svg">
<path d="M86.88 200C86.88 200 117.184 166.375 148.734 166.375C180.283 166.375 196.396 183.202 224.167 176.428C261.715 167.268 279.794 130.349 272.737 101.29C264.987 69.3785 228.991 56.7823 213.493 50.5555C197.995 44.3286 128.807 66.8349 86.8798 57.7021C70.2476 54.0793 57.6314 37.4786 67.2503 26.983C74.5889 18.9754 86.1796 20.7337 95.0635 26.9829C103.238 32.733 105.027 43.5769 105.027 50.5555C105.027 79.7037 95.0635 110.423 95.0635 110.423" stroke="#9CE2FB" stroke-linecap="round" stroke-linejoin="round" stroke-dasharray="8.8 8.8"/>
<rect x="111.253" width="140.312" height="118.541" rx="1" fill="#FAFDFF"/>
<rect x="111.253" y="0.000244141" width="46.7706" height="6.43926" rx="1" fill="#D4F2FD"/>
<rect x="156.204" width="50.4083" height="6.42935" rx="1" fill="#D4F2FD"/>
<rect x="204.794" width="46.7706" height="6.43926" rx="1" fill="#9CE2FB"/>
<rect x="119.827" y="13.4614" width="38.9755" height="1.60734" rx="0.803669" fill="#D4F2FD"/>
<rect x="119.827" y="10.6487" width="38.9755" height="1.60734" rx="0.803668" fill="#D4F2FD"/>
<rect x="129.181" y="18.6853" width="27.8025" height="1.60734" rx="0.803669" fill="#D4F2FD"/>
<rect x="187.644" y="18.6853" width="10.6533" height="1.60734" rx="0.803669" fill="#D4F2FD"/>
<rect x="129.181" y="23.1055" width="36.3772" height="1.60734" rx="0.803669" fill="#D4F2FD"/>
<rect x="187.644" y="23.1055" width="29.1017" height="1.60734" rx="0.803669" fill="#D4F2FD"/>
<rect x="129.181" y="27.5259" width="37.9362" height="1.60734" rx="0.803668" fill="#D4F2FD"/>
<rect x="187.644" y="27.5259" width="37.9362" height="1.60734" rx="0.803668" fill="#D4F2FD"/>
<rect x="129.181" y="31.7451" width="25.7238" height="1.60735" rx="0.803675" fill="#D4F2FD"/>
<rect x="187.644" y="31.7451" width="25.7238" height="1.60735" rx="0.803675" fill="#D4F2FD"/>
<rect x="129.181" y="35.9641" width="14.8107" height="1.60733" rx="0.803663" fill="#D4F2FD"/>
<rect x="187.644" y="35.9641" width="30.9206" height="1.60733" rx="0.803663" fill="#D4F2FD"/>
<rect x="129.181" y="39.9824" width="27.023" height="1.60734" rx="0.803668" fill="#D4F2FD"/>
<rect x="187.644" y="39.9824" width="32.9993" height="1.60734" rx="0.803668" fill="#D4F2FD"/>
<rect x="119.827" y="45.6082" width="25.7238" height="1.60612" rx="0.803062" fill="#D4F2FD"/>
<rect x="126.062" y="57.4622" width="10.1336" height="1.60734" rx="0.803668" fill="#D4F2FD"/>
<rect x="180.109" y="57.4622" width="20.5271" height="1.60734" rx="0.803668" fill="#D4F2FD"/>
<rect x="126.062" y="63.6909" width="10.1336" height="1.60734" rx="0.803671" fill="#D4F2FD"/>
<rect x="178.29" y="63.6909" width="22.346" height="1.60734" rx="0.803671" fill="#D4F2FD"/>
<rect x="178.29" y="69.5173" width="22.346" height="1.60734" rx="0.803668" fill="#D4F2FD"/>
<rect x="124.764" y="69.5173" width="11.4328" height="1.60734" rx="0.803668" fill="#D4F2FD"/>
<rect x="132.818" y="77.9561" width="92.7617" height="1.60734" rx="0.803671" fill="#D4F2FD"/>
<rect x="127.881" y="77.9561" width="2.0787" height="1.60734" rx="0.803671" fill="#D4F2FD"/>
<rect x="127.881" y="81.9744" width="2.0787" height="1.60734" rx="0.803671" fill="#D4F2FD"/>
<rect x="132.818" y="81.9744" width="92.7617" height="1.60734" rx="0.803671" fill="#D4F2FD"/>
<rect x="185.825" y="45.3892" width="6.3861" height="4.51475" rx="1" fill="#D4F2FD"/>
<rect x="138.015" y="56.0559" width="34.0386" height="4.42017" rx="1" fill="#D4F2FD"/>
<rect x="202.455" y="56.0559" width="34.0386" height="4.42017" rx="1" fill="#D4F2FD"/>
<rect x="138.015" y="62.2844" width="34.0386" height="4.42021" rx="1" fill="#D4F2FD"/>
<rect x="202.455" y="62.2844" width="34.0386" height="4.42021" rx="1" fill="#D4F2FD"/>
<rect x="202.455" y="68.1108" width="10.9131" height="4.42017" rx="1" fill="#D4F2FD"/>
<rect x="213.888" y="68.1108" width="22.6058" height="4.42017" rx="1" fill="#D4F2FD"/>
<rect x="138.015" y="68.1108" width="34.0386" height="4.42017" rx="1" fill="#D4F2FD"/>
<rect x="119.047" y="49.0239" width="24.9443" height="4.42018" rx="1" fill="#D4F2FD"/>
<rect x="144.511" y="49.0239" width="30.4009" height="4.42018" rx="1" fill="#D4F2FD"/>
<rect x="192.941" y="45.3892" width="8.02824" height="4.51475" rx="1" fill="#D4F2FD"/>
<rect x="201.699" y="45.3892" width="6.38612" height="4.51475" rx="1" fill="#D4F2FD"/>
<rect x="162.44" y="101.267" width="27.023" height="1.60614" rx="0.803072" fill="#D4F2FD"/>
<rect x="125.284" y="109.7" width="29.9235" height="1.55193" rx="0.775963" fill="#D4F2FD"/>
<rect x="193.641" y="99.8557" width="10.4002" height="4.51473" rx="1" fill="#D4F2FD"/>
<rect x="203.754" y="107.29" width="39.2354" height="6.42448" rx="1" fill="#00C189"/>
<rect x="119.827" y="90.2117" width="25.7238" height="1.60734" rx="0.803668" fill="#D4F2FD"/>
<rect x="152.566" y="88.8054" width="29.3615" height="4.42018" rx="1" fill="#D4F2FD"/>
<rect x="2.93066" y="69.7407" width="130.103" height="121.456" rx="2" fill="#D4F2FD"/>
<rect y="72.8218" width="130.103" height="121.456" rx="2" fill="#FAFDFF"/>
<rect x="12.7109" y="95.0298" width="104.681" height="6.68206" rx="2" fill="#D4F2FD"/>
<rect y="72.8218" width="130.103" height="10.8289" rx="2" fill="#D4F2FD"/>
<rect y="72.8218" width="43.3678" height="10.8289" rx="2" fill="#9CE2FB"/>
<rect x="12.7109" y="106.429" width="104.681" height="6.68206" rx="2" fill="#D4F2FD"/>
<rect x="12.7109" y="117.827" width="104.681" height="6.68206" rx="2" fill="#D4F2FD"/>
<rect x="12.7109" y="129.226" width="104.681" height="6.68206" rx="2" fill="#D4F2FD"/>
<rect x="12.7109" y="140.625" width="104.681" height="20.0462" rx="2" fill="#D4F2FD"/>
<rect x="12.7109" y="165.388" width="104.681" height="6.68206" rx="2" fill="#D4F2FD"/>
<rect x="83.3701" y="176.787" width="34.0213" height="6.68206" rx="2" fill="#00C189"/>
<path d="M283.622 146.954H193.22C191.047 146.954 189.297 148.703 189.297 150.93V195.044C189.297 197.218 191.047 199.02 193.22 199.02H283.622C285.795 199.02 287.598 197.271 287.598 195.044V150.93C287.598 148.703 285.795 146.954 283.622 146.954Z" fill="#FAFDFF"/>
<path d="M265.17 162.33H213.581C212.732 162.33 212.043 163.019 212.043 163.92C212.043 164.769 212.732 165.511 213.581 165.511H265.17C266.018 165.511 266.708 164.822 266.708 163.92C266.708 163.019 266.018 162.33 265.17 162.33Z" fill="#E7F8FE"/>
<path d="M246.03 169.382H213.581C212.732 169.382 212.043 170.071 212.043 170.972C212.043 171.821 212.732 172.563 213.581 172.563H245.977C246.825 172.563 247.567 171.874 247.567 170.972C247.567 170.071 246.878 169.382 246.03 169.382Z" fill="#E7F8FE"/>
<path d="M215.861 155.278H198.629C197.78 155.278 197.038 155.967 197.038 156.869C197.038 157.717 197.727 158.459 198.629 158.459H215.861C216.709 158.459 217.451 157.77 217.451 156.869C217.451 155.967 216.709 155.278 215.861 155.278Z" fill="#D4F2FD"/>
<path d="M198.682 179.031H208.544V190.59H198.682C198.258 190.59 197.834 190.431 197.515 190.113C197.197 189.795 197.038 189.371 197.038 188.946V180.675C197.038 180.251 197.197 179.827 197.515 179.509C197.834 179.244 198.258 179.031 198.682 179.031Z" fill="#E7F8FE"/>
<path d="M204.461 184.546H203.135V183.168C203.135 183.115 203.082 183.009 203.029 182.956C202.976 182.902 202.923 182.849 202.817 182.849C202.711 182.849 202.658 182.902 202.605 182.956C202.552 183.009 202.552 183.062 202.552 183.168V184.546H201.174C201.121 184.546 201.015 184.599 200.962 184.652C200.909 184.705 200.855 184.758 200.855 184.864C200.855 184.917 200.909 185.023 200.962 185.076C201.015 185.129 201.068 185.182 201.174 185.182H202.552V186.561C202.552 186.614 202.552 186.72 202.605 186.773C202.658 186.826 202.711 186.879 202.817 186.879C202.87 186.879 202.976 186.826 203.029 186.773C203.082 186.72 203.135 186.667 203.135 186.561V185.182H204.461C204.514 185.182 204.62 185.129 204.673 185.076C204.726 185.023 204.726 184.97 204.726 184.864C204.726 184.811 204.726 184.705 204.673 184.652C204.62 184.546 204.514 184.546 204.461 184.546Z" fill="#D4F2FD"/>
<path d="M206.052 162.33H198.205C197.568 162.33 197.038 162.86 197.038 163.443V171.397C197.038 172.033 197.568 172.51 198.205 172.51H206.105C206.741 172.51 207.271 171.98 207.271 171.397V163.443C207.218 162.807 206.741 162.33 206.052 162.33Z" fill="#9CE2FB"/>
<path d="M278.426 179.668C278.638 179.668 278.797 179.774 278.956 179.88C279.115 180.039 279.168 180.198 279.168 180.41V189.212C279.168 189.424 279.115 189.583 278.956 189.742C278.797 189.901 278.638 189.954 278.426 189.954H198.417C198.205 189.954 197.993 189.848 197.886 189.742C197.727 189.583 197.674 189.424 197.674 189.212V180.41C197.674 180.198 197.78 180.039 197.886 179.88C198.046 179.721 198.205 179.668 198.417 179.668H278.426ZM278.426 179.085H198.417C198.046 179.085 197.728 179.244 197.462 179.456C197.197 179.721 197.038 180.039 197.038 180.41V189.212C197.038 189.583 197.197 189.901 197.462 190.166C197.728 190.431 198.046 190.537 198.417 190.537H278.426C278.797 190.537 279.115 190.378 279.38 190.166C279.645 189.901 279.804 189.583 279.804 189.212V180.41C279.804 180.039 279.645 179.721 279.38 179.456C279.115 179.191 278.797 179.085 278.426 179.085Z" fill="#E7F8FE"/>
</svg>
