<svg width="216" height="200" viewBox="0 0 216 200" fill="none" xmlns="http://www.w3.org/2000/svg">
<path d="M175.975 181.43L69.1931 171.797C66.2557 171.538 64.0959 168.946 64.3551 165.966L77.1412 24.108C77.4004 21.1706 79.9922 19.0109 82.9728 19.2701L189.755 28.9029C192.692 29.162 194.852 31.7538 194.593 34.7344L181.807 176.592C181.547 179.529 178.956 181.689 175.975 181.43Z" fill="#D4F2FD"/>
<path d="M148.891 170.501L45.7806 199.789C42.9296 200.609 39.9922 198.968 39.1715 196.117L0.208174 59.0972C-0.612561 56.2463 1.07211 53.309 3.87988 52.4883L106.99 23.2008C109.841 22.3801 112.778 24.0648 113.599 26.8726L152.563 163.892C153.383 166.743 151.742 169.68 148.891 170.501Z" fill="#E7F8FE"/>
<path d="M166.668 151.797L60.4044 166.139C57.4671 166.57 54.7889 164.497 54.4001 161.56L35.3504 20.3931C34.9616 17.4557 36.9919 14.7776 39.9292 14.3888L146.15 0.0476795C149.087 -0.34109 151.765 1.68898 152.154 4.62635L171.204 145.793C171.636 148.687 169.605 151.408 166.668 151.797Z" fill="#FAFDFF"/>
<path d="M113.851 105.466L113.661 105.929L113.851 105.466ZM176.513 105.466L176.238 105.049L176.513 105.466ZM178.719 51.1886L178.801 51.6819L178.719 51.1886ZM157.979 75.4592L158.471 75.5486L157.979 75.4592ZM173.865 120.911L174.231 120.57L173.865 120.911ZM69.2754 62.4443C69.8303 63.554 70.4495 64.7226 71.1319 65.9377L72.0038 65.448C71.329 64.2463 70.7173 63.0919 70.1699 61.9971L69.2754 62.4443ZM75.2861 72.6742C76.6887 74.7631 78.2403 76.9132 79.9364 79.0773L80.7235 78.4605C79.043 76.3162 77.5057 74.1861 76.1163 72.1168L75.2861 72.6742ZM85.0454 85.1197C86.7892 87.0308 88.6444 88.9188 90.6079 90.7505L91.29 90.0193C89.3473 88.207 87.511 86.3382 85.7841 84.4456L85.0454 85.1197ZM96.6292 95.8952C98.6944 97.504 100.855 99.033 103.109 100.453L103.642 99.6074C101.418 98.2058 99.2846 96.6961 97.2437 95.1063L96.6292 95.8952ZM110.038 104.307C111.224 104.881 112.432 105.423 113.661 105.929L114.041 105.004C112.832 104.506 111.642 103.973 110.474 103.407L110.038 104.307ZM113.661 105.929C114.918 106.446 116.186 106.936 117.461 107.396L117.801 106.455C116.539 106 115.285 105.516 114.041 105.004L113.661 105.929ZM125.234 109.829C127.882 110.535 130.539 111.121 133.185 111.588L133.359 110.603C130.741 110.141 128.111 109.561 125.491 108.863L125.234 109.829ZM141.264 112.646C144.025 112.881 146.749 112.981 149.409 112.946L149.396 111.946C146.77 111.981 144.079 111.882 141.349 111.649L141.264 112.646ZM157.547 112.388C160.343 112.03 163.026 111.503 165.558 110.804L165.292 109.84C162.81 110.525 160.173 111.044 157.42 111.396L157.547 112.388ZM173.223 107.924C174.478 107.302 175.669 106.622 176.788 105.884L176.238 105.049C175.155 105.763 174 106.423 172.779 107.028L173.223 107.924ZM176.788 105.884C177.788 105.224 178.772 104.545 179.736 103.848L179.15 103.037C178.198 103.726 177.226 104.397 176.238 105.049L176.788 105.884ZM185.346 99.3892C187.18 97.7829 188.901 96.1092 190.482 94.381L189.744 93.7062C188.19 95.405 186.496 97.053 184.687 98.637L185.346 99.3892ZM194.965 88.7642C196.367 86.7173 197.555 84.617 198.489 82.4815L197.573 82.0809C196.667 84.1519 195.511 86.1975 194.14 88.1993L194.965 88.7642ZM200.556 75.5524C200.744 74.3481 200.842 73.1392 200.842 71.9289H199.842C199.842 73.0852 199.749 74.2425 199.568 75.3979L200.556 75.5524ZM200.842 71.9289C200.842 70.4923 200.672 69.0604 200.355 67.658L199.38 67.8786C199.682 69.2132 199.842 70.571 199.842 71.9289H200.842ZM196.904 59.8565C195.273 57.4735 193.219 55.3875 190.906 53.7934L190.338 54.6169C192.546 56.1379 194.514 58.1346 196.079 60.4213L196.904 59.8565ZM182.965 50.628C181.539 50.4428 180.088 50.4551 178.638 50.6953L178.801 51.6819C180.15 51.4585 181.502 51.4464 182.836 51.6197L182.965 50.628ZM178.638 50.6953C177.228 50.9288 175.849 51.3701 174.514 51.9801L174.929 52.8897C176.194 52.312 177.489 51.8993 178.801 51.6819L178.638 50.6953ZM167.565 56.9329C165.574 58.898 163.788 61.1817 162.282 63.5903L163.129 64.1206C164.6 61.7705 166.338 59.5493 168.268 57.6446L167.565 56.9329ZM158.588 71.2431C158.102 72.6492 157.73 74.0365 157.487 75.3697L158.471 75.5486C158.703 74.2715 159.061 72.9337 159.533 71.5698L158.588 71.2431ZM157.487 75.3697C157.229 76.7919 157.028 78.1856 156.884 79.5533L157.879 79.6578C158.02 78.316 158.217 76.9471 158.471 75.5486L157.487 75.3697ZM156.728 87.9998C156.938 90.8794 157.427 93.6473 158.175 96.3315L159.138 96.063C158.408 93.4424 157.931 90.7399 157.725 87.9268L156.728 87.9998ZM161.211 104.221C162.426 106.685 163.866 109.095 165.515 111.476L166.337 110.907C164.713 108.561 163.298 106.194 162.108 103.778L161.211 104.221ZM170.689 118.12C171.588 119.164 172.526 120.207 173.499 121.252L174.231 120.57C173.265 119.534 172.337 118.501 171.446 117.467L170.689 118.12ZM173.499 121.252C174.387 122.205 175.313 123.104 176.268 123.955L176.933 123.208C176 122.377 175.097 121.499 174.231 120.57L173.499 121.252ZM182.449 128.579C184.651 129.968 186.93 131.177 189.229 132.239L189.649 131.332C187.383 130.284 185.142 129.096 182.983 127.733L182.449 128.579ZM196.366 135.107C198.88 135.987 201.349 136.733 203.697 137.392L203.967 136.43C201.632 135.774 199.184 135.034 196.696 134.163L196.366 135.107ZM211.096 139.36C212.42 139.708 213.649 140.038 214.763 140.366L215.045 139.407C213.917 139.075 212.676 138.741 211.35 138.393L211.096 139.36Z" fill="#9CE2FB"/>
<path d="M74.1356 81.1959C70.8667 83.8111 91.5271 115.251 94.7043 114.192C98.6758 112.868 140.156 56.384 140.156 51.5299C140.156 46.6758 98.2345 95.2167 93.8217 95.658C89.4089 96.0993 76.342 79.4308 74.1356 81.1959Z" fill="#00C189"/>
</svg>
