<svg width="60" height="60" viewBox="0 0 60 60" fill="none" xmlns="http://www.w3.org/2000/svg">
<rect width="60" height="60" rx="2" fill="white" fill-opacity="0.16"/>
<path fill-rule="evenodd" clip-rule="evenodd" d="M33.1961 22.5512C33.444 22.2915 33.8554 22.2819 34.1151 22.5298L41.4484 29.5298C41.5769 29.6524 41.6496 29.8223 41.6496 30C41.6496 30.1776 41.5769 30.3475 41.4484 30.4702L34.1151 37.4702C33.8554 37.718 33.444 37.7085 33.1961 37.4488C32.9482 37.1891 32.9578 36.7777 33.2175 36.5298L39.3773 30.65H18.9996C18.6406 30.65 18.3496 30.359 18.3496 30C18.3496 29.641 18.6406 29.35 18.9996 29.35H39.3773L33.2175 23.4702C32.9578 23.2223 32.9482 22.8108 33.1961 22.5512Z" fill="white"/>
</svg>
